SplineFontDB: 3.0
FontName: Kaippada
FullName: Kaippada
FamilyName: Kaippada
Weight: Book
Copyright: Copyright 2014 Santhosh Thottingal, Kavya Manohar, Swathanthra Malayalam Computing (http://smc.org.in)
Version: 0.1
ItalicAngle: 0
UnderlinePosition: -942
UnderlineWidth: 61
Ascent: 1434
Descent: 614
sfntRevision: 0x00060000
LayerCount: 2
Layer: 0 1 "Back"  1
Layer: 1 1 "Fore"  0
XUID: [1021 393 960756424 4828222]
FSType: 8
OS2Version: 1
OS2_WeightWidthSlopeOnly: 0
OS2_UseTypoMetrics: 1
CreationTime: 1201144287
ModificationTime: 1410765459
PfmFamily: 17
TTFWeight: 400
TTFWidth: 5
LineGap: 0
VLineGap: 0
Panose: 2 11 6 3 0 0 0 0 0 0
OS2TypoAscent: 0
OS2TypoAOffset: 1
OS2TypoDescent: 0
OS2TypoDOffset: 1
OS2TypoLinegap: 0
OS2WinAscent: 0
OS2WinAOffset: 1
OS2WinDescent: 0
OS2WinDOffset: 1
HheadAscent: 0
HheadAOffset: 1
HheadDescent: 0
HheadDOffset: 1
OS2SubXSize: 1327
OS2SubYSize: 1225
OS2SubXOff: 0
OS2SubYOff: 150
OS2SupXSize: 1327
OS2SupYSize: 1427
OS2SupXOff: 0
OS2SupYOff: 977
OS2StrikeYSize: 98
OS2StrikeYPos: 512
OS2Vendor: 'PfEd'
OS2CodePages: 00000001.00000000
OS2UnicodeRanges: 80800003.00002000.00000000.00000000
Lookup: 4 0 0 "'akhn' Akhand in Malay+AQEA-lam lookup 0"  {"'akhn' Akhand in Malay+AQEA-lam lookup 0 subtable"  } ['akhn' ('mlym' <'dflt' > ) ]
Lookup: 4 0 0 "'akhn' Akhand in Malay+AQEA-lam2 lookup 0"  {"'akhn' Akhand in Malay+AQEA-lam2 lookup 0 subtable"  } ['akhn' ('mlm2' <'dflt' > ) ]
Lookup: 4 0 0 "'pref' Pre Base Forms in Malay+AQEA-lam2 lookup 1"  {"'pref' Pre Base Forms in Malay+AQEA-lam2 lookup 1 subtable"  } ['pref' ('mlm2' <'dflt' > ) ]
Lookup: 4 0 0 "'half' Half Forms in Malay+AQEA-lam lookup 1"  {"'half' Half Forms in Malay+AQEA-lam lookup 1 subtable"  } ['half' ('mlym' <'dflt' > ) ]
Lookup: 4 0 0 "'blwf' Below Base Forms in Malay+AQEA-lam lookup 2"  {"'blwf' Below Base Forms in Malay+AQEA-lam lookup 2 subtable"  } ['blwf' ('mlym' <'dflt' > ) ]

StartChar: .notdef
Encoding: 198 -1 0
Width: 692
GlyphClass: 2
Flags: MW
LayerCount: 2
Fore
SplineSet
45 1 m 1,0,-1
 45 1119 l 1,1,-1
 606 1119 l 1,2,-1
 606 1 l 1,3,-1
 45 1 l 1,0,-1
102 55 m 1,4,-1
 552 55 l 1,5,-1
 552 1063 l 1,6,-1
 102 1063 l 1,7,-1
 102 55 l 1,4,-1
EndSplineSet
Validated: 1
EndChar

StartChar: exclam
Encoding: 1 33 4
Width: 607
GlyphClass: 2
Flags: MW
LayerCount: 2
Fore
SplineSet
303 -1 m 1,0,-1
 303 164 l 1,1,-1
 450 164 l 1,2,-1
 450 -1 l 1,3,-1
 303 -1 l 1,0,-1
450 687 m 1,4,-1
 406 299 l 1,5,-1
 350 299 l 1,6,7
 305 683 305 683 305 687 c 2,8,-1
 303 1280 l 1,9,-1
 450 1280 l 1,10,-1
 450 687 l 1,4,-1
EndSplineSet
Validated: 1
EndChar

StartChar: quotedbl
Encoding: 2 34 5
Width: 782
GlyphClass: 2
Flags: MW
LayerCount: 2
Fore
SplineSet
663 952 m 2,0,-1
 639 832 l 1,1,-1
 585 832 l 1,2,-1
 560 952 l 2,3,4
 539 1053 539 1053 539 1067 c 2,5,-1
 539 1262 l 1,6,-1
 686 1262 l 1,7,-1
 686 1067 l 1,8,9
 681 1039 681 1039 663 952 c 2,0,-1
427 952 m 2,10,-1
 402 832 l 1,11,-1
 350 832 l 1,12,-1
 326 952 l 1,13,14
 303 1053 303 1053 301 1067 c 1,15,-1
 301 1262 l 1,16,-1
 451 1262 l 1,17,-1
 451 1067 l 1,18,19
 446 1039 446 1039 427 952 c 2,10,-1
EndSplineSet
Validated: 1
EndChar

StartChar: numbersign
Encoding: 3 35 6
Width: 942
GlyphClass: 2
Flags: MW
LayerCount: 2
Fore
SplineSet
807 781 m 1,0,-1
 746 450 l 1,1,-1
 938 450 l 1,2,-1
 938 349 l 1,3,-1
 728 349 l 1,4,-1
 659 -28 l 1,5,-1
 544 -28 l 1,6,-1
 612 349 l 1,7,-1
 366 349 l 1,8,-1
 296 -28 l 1,9,-1
 183 -28 l 1,10,-1
 251 349 l 1,11,-1
 68 349 l 1,12,-1
 68 450 l 1,13,-1
 272 450 l 1,14,-1
 330 781 l 1,15,-1
 134 781 l 1,16,-1
 134 882 l 1,17,-1
 350 882 l 1,18,-1
 413 1231 l 1,19,-1
 530 1231 l 1,20,-1
 462 882 l 1,21,-1
 711 882 l 1,22,-1
 774 1231 l 1,23,-1
 891 1231 l 1,24,-1
 824 882 l 1,25,-1
 996 882 l 1,26,-1
 996 781 l 1,27,-1
 807 781 l 1,0,-1
446 781 m 1,28,-1
 384 450 l 1,29,-1
 633 450 l 1,30,-1
 692 781 l 1,31,-1
 446 781 l 1,28,-1
EndSplineSet
Validated: 1
EndChar

StartChar: dollar
Encoding: 4 36 7
Width: 955
GlyphClass: 2
Flags: MW
LayerCount: 2
Fore
SplineSet
566 -31 m 1,0,-1
 566 -212 l 1,1,-1
 483 -212 l 1,2,-1
 483 -31 l 1,3,4
 293 -18 293 -18 198.5 76 c 128,-1,5
 104 170 104 170 104 360 c 1,6,-1
 225 360 l 1,7,8
 237 222 237 222 287.5 155 c 128,-1,9
 338 88 338 88 483 70 c 1,10,-1
 483 576 l 1,11,12
 301 630 301 630 214 699 c 128,-1,13
 127 768 127 768 127 921 c 0,14,15
 127 1223 127 1223 483 1267 c 1,16,-1
 483 1362 l 1,17,-1
 566 1362 l 1,18,-1
 566 1267 l 1,19,20
 727 1254 727 1254 820 1169.5 c 128,-1,21
 913 1085 913 1085 915 937 c 1,22,-1
 795 937 l 1,23,24
 791 1033 791 1033 732 1097.5 c 128,-1,25
 673 1162 673 1162 566 1164 c 1,26,-1
 566 699 l 1,27,28
 800 636 800 636 877.5 568.5 c 128,-1,29
 955 501 955 501 955 348 c 0,30,31
 955 -3 955 -3 566 -31 c 1,0,-1
483 1164 m 1,32,33
 249 1132 249 1132 249 937 c 0,34,35
 249 768 249 768 483 707 c 1,36,-1
 483 1164 l 1,32,33
566 567 m 1,37,-1
 566 70 l 1,38,39
 829 100 829 100 830 326 c 0,40,41
 830 510 830 510 566 567 c 1,37,-1
EndSplineSet
Validated: 1
EndChar

StartChar: percent
Encoding: 5 37 8
Width: 1485
GlyphClass: 2
Flags: MW
LayerCount: 2
Fore
SplineSet
1397.5 56.5 m 128,-1,1
 1312 -30 1312 -30 1190 -30 c 256,2,3
 1068 -30 1068 -30 984 56 c 128,-1,4
 900 142 900 142 899 264 c 0,5,6
 899 386 899 386 984.5 472 c 128,-1,7
 1070 558 1070 558 1193 558 c 256,8,9
 1316 558 1316 558 1399 473 c 128,-1,10
 1482 388 1482 388 1483 263 c 0,11,0
 1483 143 1483 143 1397.5 56.5 c 128,-1,1
505 -30 m 1,12,-1
 413 -30 l 1,13,-1
 1105 1251 l 1,14,-1
 1196 1251 l 1,15,-1
 505 -30 l 1,12,-1
623.5 705.5 m 128,-1,17
 538 620 538 620 416 620 c 256,18,19
 294 620 294 620 209.5 704.5 c 128,-1,20
 125 789 125 789 125 913 c 256,21,22
 125 1037 125 1037 209.5 1121.5 c 128,-1,23
 294 1206 294 1206 418 1206 c 0,24,25
 540 1206 540 1206 624.5 1120.5 c 128,-1,26
 709 1035 709 1035 709 913 c 256,27,16
 709 791 709 791 623.5 705.5 c 128,-1,17
1192 458 m 0,28,29
 1110 458 1110 458 1055 402.5 c 128,-1,30
 1000 347 1000 347 1000 266 c 256,31,32
 1000 185 1000 185 1055 129.5 c 128,-1,33
 1110 74 1110 74 1190 74 c 256,34,35
 1270 74 1270 74 1327 129.5 c 128,-1,36
 1384 185 1384 185 1384 265 c 256,37,38
 1384 345 1384 345 1328 401.5 c 128,-1,39
 1272 458 1272 458 1192 458 c 0,28,29
418 1107 m 0,40,41
 336 1107 336 1107 281 1050 c 128,-1,42
 226 993 226 993 226 913 c 256,43,44
 226 833 226 833 281 778 c 128,-1,45
 336 723 336 723 418 723 c 0,46,47
 498 723 498 723 553 778 c 128,-1,48
 608 833 608 833 608 913 c 256,49,50
 608 993 608 993 553 1050 c 128,-1,51
 498 1107 498 1107 418 1107 c 0,40,41
EndSplineSet
Validated: 1
EndChar

StartChar: ampersand
Encoding: 6 38 9
Width: 1107
GlyphClass: 2
Flags: MW
LayerCount: 2
Fore
SplineSet
947 2 m 1,0,-1
 832 147 l 1,1,2
 640 -38 640 -38 466 -38 c 256,3,4
 292 -38 292 -38 194 54 c 1,5,6
 96 148 96 148 96 292 c 256,7,8
 96 436 96 436 169 515 c 128,-1,9
 242 594 242 594 394 682 c 1,10,11
 242 872 242 872 242 984 c 256,12,13
 242 1096 242 1096 329 1171.5 c 128,-1,14
 416 1247 416 1247 539 1247 c 256,15,16
 662 1247 662 1247 740.5 1173.5 c 128,-1,17
 819 1100 819 1100 819 987 c 256,18,19
 819 874 819 874 755.5 806 c 128,-1,20
 692 738 692 738 566 670 c 1,21,-1
 824 356 l 1,22,23
 886 466 886 466 888 576 c 1,24,-1
 1011 576 l 1,25,26
 1006 417 1006 417 903 260 c 1,27,-1
 1112 2 l 1,28,-1
 947 2 l 1,0,-1
534 1144 m 0,29,30
 368 1144 368 1144 368 980 c 0,31,32
 368 902 368 902 453 803 c 1,33,-1
 502 747 l 1,34,35
 701 872 701 872 701 982 c 0,36,37
 701 1054 701 1054 653 1099 c 128,-1,38
 605 1144 605 1144 534 1144 c 0,29,30
458 609 m 1,39,40
 225 461 225 461 225 318 c 0,41,42
 225 218 225 218 297.5 147.5 c 128,-1,43
 370 77 370 77 473 77 c 0,44,45
 617 77 617 77 758 236 c 1,46,-1
 458 609 l 1,39,40
EndSplineSet
Validated: 1
EndChar

StartChar: quotesingle
Encoding: 7 39 10
Width: 577
GlyphClass: 2
Flags: MW
LayerCount: 2
Fore
SplineSet
425 952 m 2,0,-1
 401 832 l 1,1,-1
 347 832 l 1,2,-1
 322 952 l 2,3,4
 301 1053 301 1053 301 1067 c 2,5,-1
 301 1262 l 1,6,-1
 448 1262 l 1,7,-1
 448 1067 l 1,8,9
 443 1039 443 1039 425 952 c 2,0,-1
EndSplineSet
Validated: 1
EndChar

StartChar: parenleft
Encoding: 8 40 11
Width: 500
GlyphClass: 2
Flags: MW
LayerCount: 2
Fore
SplineSet
425 -343 m 1,0,1
 127 33 127 33 127 484 c 256,2,3
 127 935 127 935 425 1311 c 1,4,-1
 500 1311 l 1,5,6
 254 922 254 922 254 484 c 256,7,8
 254 46 254 46 500 -343 c 1,9,-1
 425 -343 l 1,0,1
EndSplineSet
Validated: 1
EndChar

StartChar: parenright
Encoding: 9 41 12
Width: 714
GlyphClass: 2
Flags: MW
LayerCount: 2
Fore
SplineSet
215 -343 m 1,0,-1
 138 -343 l 1,1,2
 384 46 384 46 384 484 c 256,3,4
 384 922 384 922 138 1311 c 1,5,-1
 215 1311 l 1,6,7
 512 935 512 935 512 484 c 256,8,9
 512 33 512 33 215 -343 c 1,0,-1
EndSplineSet
Validated: 1
EndChar

StartChar: asterisk
Encoding: 10 42 13
Width: 655
GlyphClass: 2
Flags: MW
LayerCount: 2
Fore
SplineSet
445 925 m 1,0,-1
 578 757 l 1,1,-1
 504 703 l 1,2,-1
 386 881 l 1,3,-1
 268 703 l 1,4,-1
 196 755 l 1,5,-1
 325 925 l 1,6,-1
 123 982 l 1,7,-1
 150 1067 l 1,8,-1
 349 994 l 1,9,-1
 339 1205 l 1,10,-1
 433 1205 l 1,11,-1
 423 994 l 1,12,-1
 622 1067 l 1,13,-1
 649 982 l 1,14,-1
 445 925 l 1,0,-1
EndSplineSet
Validated: 1
EndChar

StartChar: plus
Encoding: 11 43 14
Width: 955
GlyphClass: 2
Flags: MW
LayerCount: 2
Fore
SplineSet
592 373 m 1,0,-1
 592 0 l 1,1,-1
 488 0 l 1,2,-1
 488 373 l 1,3,-1
 115 373 l 1,4,-1
 115 477 l 1,5,-1
 488 477 l 1,6,-1
 488 850 l 1,7,-1
 592 850 l 1,8,-1
 592 477 l 1,9,-1
 965 477 l 1,10,-1
 965 373 l 1,11,-1
 592 373 l 1,0,-1
EndSplineSet
Validated: 1
EndChar

StartChar: comma
Encoding: 12 44 15
Width: 385
GlyphClass: 2
Flags: MW
LayerCount: 2
Fore
SplineSet
127 -263 m 1,0,-1
 127 -216 l 1,1,2
 212 -209 212 -209 235 -143 c 0,3,4
 244 -117 244 -117 244 0 c 1,5,-1
 127 0 l 1,6,-1
 127 164 l 1,7,-1
 310 164 l 1,8,-1
 310 -40 l 2,9,10
 310 -256 310 -256 127 -263 c 1,0,-1
EndSplineSet
Validated: 1
EndChar

StartChar: hyphen
Encoding: 13 45 16
Width: 555
GlyphClass: 2
Flags: MW
LayerCount: 2
Fore
SplineSet
109 368 m 1,0,-1
 109 494 l 1,1,-1
 527 494 l 1,2,-1
 527 368 l 1,3,-1
 109 368 l 1,0,-1
EndSplineSet
Validated: 1
EndChar

StartChar: period
Encoding: 14 46 17
Width: 432
GlyphClass: 2
Flags: MW
LayerCount: 2
Fore
SplineSet
127 0 m 1,0,-1
 127 166 l 1,1,-1
 308 166 l 1,2,-1
 308 0 l 1,3,-1
 127 0 l 1,0,-1
EndSplineSet
Validated: 1
EndChar

StartChar: slash
Encoding: 15 47 18
Width: 572
GlyphClass: 2
Flags: MW
LayerCount: 2
Fore
SplineSet
211 -30 m 1,0,-1
 74 -30 l 1,1,-1
 501 1286 l 1,2,-1
 638 1286 l 1,3,-1
 211 -30 l 1,0,-1
EndSplineSet
Validated: 1
EndChar

StartChar: zero
Encoding: 16 48 19
Width: 1046
GlyphClass: 2
Flags: MW
LayerCount: 2
Fore
SplineSet
623 -22 m 256,0,1
 200 -22 200 -22 200 622 c 0,2,3
 200 1303 200 1303 623 1303 c 256,4,5
 1046 1303 1046 1303 1046 636 c 0,6,7
 1046 -22 1046 -22 623 -22 c 256,0,1
902 640 m 0,8,9
 902 1188 902 1188 623 1188 c 256,10,11
 344 1188 344 1188 344 640 c 0,12,13
 344 93 344 93 618 93 c 0,14,15
 902 93 902 93 902 640 c 0,8,9
EndSplineSet
EndChar

StartChar: one
Encoding: 17 49 20
Width: 646
GlyphClass: 2
Flags: MW
LayerCount: 2
Fore
SplineSet
501 0 m 1,0,-1
 501 920 l 1,1,-1
 200 920 l 1,2,-1
 200 1014 l 1,3,4
 392 1033 392 1033 447.5 1088.5 c 128,-1,5
 503 1144 503 1144 504 1280 c 1,6,-1
 646 1280 l 1,7,-1
 646 0 l 1,8,-1
 501 0 l 1,0,-1
EndSplineSet
EndChar

StartChar: two
Encoding: 18 50 21
Width: 1054
GlyphClass: 2
Flags: MW
LayerCount: 2
Fore
SplineSet
431 296 m 128,-1,1
 374 238 374 238 367 125 c 1,2,-1
 1054 125 l 1,3,-1
 1054 0 l 1,4,-1
 202 0 l 1,5,6
 210 217 210 217 288 327.5 c 128,-1,7
 366 438 366 438 563 550 c 2,8,-1
 736 648 l 2,9,10
 887 734 887 734 887 924 c 0,11,12
 887 1040 887 1040 812.5 1114 c 128,-1,13
 738 1188 738 1188 622 1188 c 0,14,15
 372 1188 372 1188 345 868 c 1,16,-1
 200 868 l 1,17,18
 217 1303 217 1303 626 1303 c 0,19,20
 807 1303 807 1303 924 1202.5 c 128,-1,21
 1041 1102 1041 1102 1041 902 c 0,22,23
 1041 692 1041 692 870 587 c 2,24,-1
 704 486 l 2,25,0
 488 354 488 354 431 296 c 128,-1,1
EndSplineSet
EndChar

StartChar: three
Encoding: 19 51 22
Width: 1069
GlyphClass: 2
Flags: MW
LayerCount: 2
Fore
SplineSet
628 -22 m 0,0,1
 240 -22 240 -22 200 373 c 1,2,-1
 345 373 l 1,3,4
 367 93 367 93 634 93 c 0,5,6
 922 93 922 93 922 368 c 0,7,8
 922 577 922 577 738 606 c 0,9,10
 719 609 719 609 556 615 c 1,11,-1
 559 736 l 1,12,13
 692 739 692 739 735 749 c 0,14,15
 884 785 884 785 884 954 c 0,16,17
 884 1188 884 1188 635 1188 c 256,18,19
 386 1188 386 1188 371 908 c 1,20,-1
 229 908 l 1,21,22
 242 1303 242 1303 634 1303 c 0,23,24
 815 1303 815 1303 922.5 1216 c 128,-1,25
 1030 1129 1030 1129 1030 959 c 0,26,27
 1030 761 1030 761 820 679 c 1,28,29
 955 635 955 635 1012 560 c 128,-1,30
 1069 485 1069 485 1069 371 c 0,31,32
 1069 185 1069 185 946.5 81.5 c 128,-1,33
 824 -22 824 -22 628 -22 c 0,0,1
EndSplineSet
EndChar

StartChar: four
Encoding: 20 52 23
Width: 1098
GlyphClass: 2
Flags: MW
LayerCount: 2
Fore
SplineSet
903 293 m 1,0,-1
 903 0 l 1,1,-1
 758 0 l 1,2,-1
 758 293 l 1,3,-1
 200 293 l 1,4,-1
 200 450 l 1,5,-1
 798 1280 l 1,6,-1
 903 1280 l 1,7,-1
 903 418 l 1,8,-1
 1098 418 l 1,9,-1
 1098 293 l 1,10,-1
 903 293 l 1,0,-1
758 1051 m 1,11,-1
 310 418 l 1,12,-1
 758 418 l 1,13,-1
 758 1051 l 1,11,-1
EndSplineSet
EndChar

StartChar: five
Encoding: 21 53 24
Width: 1073
GlyphClass: 2
Flags: MW
LayerCount: 2
Fore
SplineSet
627 -23 m 0,0,1
 277 -23 277 -23 200 309 c 1,2,-1
 342 309 l 1,3,4
 406 93 406 93 625 92 c 0,5,6
 770 92 770 92 848 181 c 128,-1,7
 926 270 926 270 926 411 c 0,8,9
 926 571 926 571 848 655.5 c 128,-1,10
 770 740 770 740 625 740 c 0,11,12
 481 740 481 740 374 620 c 1,13,-1
 242 620 l 1,14,-1
 339 1280 l 1,15,-1
 1003 1280 l 1,16,-1
 1003 1155 l 1,17,-1
 451 1155 l 1,18,-1
 393 766 l 1,19,20
 515 855 515 855 651 855 c 0,21,22
 845 854 845 854 959 745 c 128,-1,23
 1073 636 1073 636 1073 436 c 256,24,25
 1073 236 1073 236 951 106.5 c 128,-1,26
 829 -23 829 -23 627 -23 c 0,0,1
EndSplineSet
EndChar

StartChar: six
Encoding: 22 54 25
Width: 1062
GlyphClass: 2
Flags: MW
LayerCount: 2
Fore
SplineSet
637 -22 m 0,0,1
 200 -22 200 -22 200 604 c 0,2,3
 200 1302 200 1302 668 1302 c 0,4,5
 974 1302 974 1302 1035 988 c 1,6,-1
 891 988 l 1,7,8
 842 1187 842 1187 655 1187 c 0,9,10
 346 1187 346 1187 346 640 c 1,11,12
 471 806 471 806 657 806 c 0,13,14
 844 806 844 806 953 696 c 128,-1,15
 1062 586 1062 586 1062 402 c 256,16,17
 1062 218 1062 218 944.5 98 c 128,-1,18
 827 -22 827 -22 637 -22 c 0,0,1
847.5 608.5 m 128,-1,20
 779 691 779 691 647 691 c 256,21,22
 515 691 515 691 435.5 611 c 128,-1,23
 356 531 356 531 356 401 c 0,24,25
 356 274 356 274 433 183.5 c 128,-1,26
 510 93 510 93 636 93 c 256,27,28
 762 93 762 93 839 179.5 c 128,-1,29
 916 266 916 266 916 396 c 256,30,19
 916 526 916 526 847.5 608.5 c 128,-1,20
EndSplineSet
EndChar

StartChar: seven
Encoding: 23 55 26
Width: 1066
GlyphClass: 2
Flags: MW
LayerCount: 2
Fore
SplineSet
527 0 m 1,0,-1
 376 0 l 1,1,2
 433 424 433 424 927 1155 c 1,3,-1
 200 1155 l 1,4,-1
 200 1280 l 1,5,-1
 1066 1280 l 1,6,-1
 1066 1160 l 1,7,8
 633 594 633 594 527 0 c 1,0,-1
EndSplineSet
EndChar

StartChar: eight
Encoding: 24 56 27
Width: 1072
GlyphClass: 2
Flags: MW
LayerCount: 2
Fore
SplineSet
947 83.5 m 128,-1,1
 822 -22 822 -22 635 -22 c 0,2,3
 447 -22 447 -22 323.5 84 c 128,-1,4
 200 190 200 190 200 370 c 0,5,6
 200 581 200 581 442 690 c 1,7,8
 339 754 339 754 294 812.5 c 128,-1,9
 249 871 249 871 249 964 c 0,10,11
 249 1124 249 1124 359.5 1213 c 128,-1,12
 470 1302 470 1302 637 1302 c 0,13,14
 800 1302 800 1302 911.5 1214.5 c 128,-1,15
 1023 1127 1023 1127 1023 964 c 0,16,17
 1023 872 1023 872 978.5 811.5 c 128,-1,18
 934 751 934 751 829 690 c 1,19,20
 1072 581 1072 581 1072 368 c 0,21,0
 1072 189 1072 189 947 83.5 c 128,-1,1
637 1187 m 256,22,23
 530 1187 530 1187 462 1130 c 128,-1,24
 394 1073 394 1073 394 967 c 256,25,26
 394 861 394 861 463 803 c 128,-1,27
 532 745 532 745 636 745 c 256,28,29
 740 745 740 745 809 802 c 128,-1,30
 878 859 878 859 878 961 c 0,31,32
 878 1071 878 1071 811 1129 c 128,-1,33
 744 1187 744 1187 637 1187 c 256,22,23
637 630 m 0,34,35
 510 630 510 630 428 560 c 128,-1,36
 346 490 346 490 346 366 c 256,37,38
 346 242 346 242 426.5 167.5 c 128,-1,39
 507 93 507 93 634 93 c 256,40,41
 761 93 761 93 844 166.5 c 128,-1,42
 927 240 927 240 927 364 c 256,43,44
 927 488 927 488 846.5 559 c 128,-1,45
 766 630 766 630 637 630 c 0,34,35
EndSplineSet
EndChar

StartChar: nine
Encoding: 25 57 28
Width: 1049
GlyphClass: 2
Flags: MW
LayerCount: 2
Fore
SplineSet
1049 675 m 0,0,1
 1049 -22 1049 -22 592 -22 c 0,2,3
 287 -22 287 -22 231 292 c 1,4,-1
 374 292 l 1,5,6
 421 93 421 93 604 93 c 0,7,8
 913 93 913 93 913 632 c 1,9,10
 764 472 764 472 590 472 c 256,11,12
 416 472 416 472 308 587 c 128,-1,13
 200 702 200 702 200 884 c 256,14,15
 200 1066 200 1066 318 1184 c 128,-1,16
 436 1302 436 1302 622 1302 c 0,17,18
 1049 1302 1049 1302 1049 675 c 0,0,1
904 877 m 0,19,20
 904 1010 904 1010 827.5 1098.5 c 128,-1,21
 751 1187 751 1187 623 1187 c 256,22,23
 495 1187 495 1187 420 1101 c 128,-1,24
 345 1015 345 1015 345 882 c 256,25,26
 345 749 345 749 416 668.5 c 128,-1,27
 487 588 487 588 615 588 c 256,28,29
 743 588 743 588 823.5 670 c 128,-1,30
 904 752 904 752 904 877 c 0,19,20
EndSplineSet
EndChar

StartChar: colon
Encoding: 26 58 29
Width: 373
GlyphClass: 2
Flags: MW
LayerCount: 2
Fore
SplineSet
147 0 m 1,0,-1
 147 166 l 1,1,-1
 328 166 l 1,2,-1
 328 0 l 1,3,-1
 147 0 l 1,0,-1
147 709 m 1,4,-1
 147 875 l 1,5,-1
 328 875 l 1,6,-1
 328 709 l 1,7,-1
 147 709 l 1,4,-1
EndSplineSet
Validated: 1
EndChar

StartChar: semicolon
Encoding: 27 59 30
Width: 425
GlyphClass: 2
Flags: MW
LayerCount: 2
Fore
SplineSet
163 709 m 1,0,-1
 163 875 l 1,1,-1
 344 875 l 1,2,-1
 344 709 l 1,3,-1
 163 709 l 1,0,-1
162 -263 m 1,4,-1
 162 -216 l 1,5,6
 245 -209 245 -209 270 -143 c 1,7,8
 279 -111 279 -111 279 0 c 1,9,-1
 162 0 l 1,10,-1
 162 164 l 1,11,-1
 345 164 l 1,12,-1
 345 -40 l 2,13,14
 345 -256 345 -256 162 -263 c 1,4,-1
EndSplineSet
Validated: 1
EndChar

StartChar: less
Encoding: 28 60 31
Width: 944
GlyphClass: 2
Flags: MW
LayerCount: 2
Fore
SplineSet
86 412 m 1,0,-1
 86 522 l 1,1,-1
 947 886 l 1,2,-1
 947 768 l 1,3,-1
 217 468 l 1,4,-1
 947 166 l 1,5,-1
 947 48 l 1,6,-1
 86 412 l 1,0,-1
EndSplineSet
Validated: 1
EndChar

StartChar: equal
Encoding: 29 61 32
Width: 973
GlyphClass: 2
Flags: MW
LayerCount: 2
Fore
SplineSet
115 572 m 1,0,-1
 115 677 l 1,1,-1
 965 677 l 1,2,-1
 965 572 l 1,3,-1
 115 572 l 1,0,-1
115 253 m 1,4,-1
 115 361 l 1,5,-1
 965 361 l 1,6,-1
 965 253 l 1,7,-1
 115 253 l 1,4,-1
EndSplineSet
Validated: 1
EndChar

StartChar: greater
Encoding: 30 62 33
Width: 969
GlyphClass: 2
Flags: MW
LayerCount: 2
Fore
SplineSet
115 48 m 1,0,-1
 115 166 l 1,1,-1
 842 463 l 1,2,-1
 115 768 l 1,3,-1
 115 886 l 1,4,-1
 971 522 l 1,5,-1
 971 412 l 1,6,-1
 115 48 l 1,0,-1
EndSplineSet
Validated: 1
EndChar

StartChar: question
Encoding: 31 63 34
Width: 939
GlyphClass: 2
Flags: MW
LayerCount: 2
Fore
SplineSet
601 585 m 2,0,1
 547 533 547 533 547 454 c 2,2,-1
 547 374 l 1,3,-1
 407 374 l 1,4,-1
 407 460 l 2,5,6
 407 569 407 569 521 679 c 2,7,-1
 643 797 l 2,8,9
 732 883 732 883 732 988 c 0,10,11
 732 1092 732 1092 663 1147 c 128,-1,12
 594 1202 594 1202 488 1202 c 0,13,14
 247 1202 247 1202 242 925 c 1,15,-1
 113 925 l 1,16,17
 118 1320 118 1320 498 1320 c 0,18,19
 662 1320 662 1320 766.5 1234 c 128,-1,20
 871 1148 871 1148 871 998 c 256,21,22
 871 848 871 848 779 758 c 2,23,-1
 601 585 l 2,0,1
407 18 m 1,24,-1
 407 180 l 1,25,-1
 547 180 l 1,26,-1
 547 18 l 1,27,-1
 407 18 l 1,24,-1
EndSplineSet
Validated: 1
EndChar

StartChar: at
Encoding: 32 64 35
Width: 1734
GlyphClass: 2
Flags: MW
LayerCount: 2
Fore
SplineSet
1738 690 m 0,0,1
 1738 473 1738 473 1598 308.5 c 128,-1,2
 1458 144 1458 144 1264 144 c 0,3,4
 1102 144 1102 144 1076 294 c 1,5,6
 948 151 948 151 820 151 c 256,7,8
 692 151 692 151 614.5 244.5 c 128,-1,9
 537 338 537 338 537 468 c 0,10,11
 537 650 537 650 669.5 800 c 128,-1,12
 802 950 802 950 985 950 c 0,13,14
 1128 950 1128 950 1203 775 c 1,15,-1
 1248 913 l 1,16,-1
 1372 913 l 1,17,-1
 1218 430 l 2,18,19
 1196 361 1196 361 1196 327.5 c 128,-1,20
 1196 294 1196 294 1226.5 269.5 c 128,-1,21
 1257 245 1257 245 1297 245 c 0,22,23
 1414 245 1414 245 1510 375 c 128,-1,24
 1606 505 1606 505 1606 667 c 0,25,26
 1606 901 1606 901 1414.5 1063 c 128,-1,27
 1223 1225 1223 1225 995 1225 c 0,28,29
 682 1225 682 1225 470 1015 c 0,30,31
 258 806 258 806 258 534 c 256,32,33
 258 262 258 262 450.5 82.5 c 128,-1,34
 643 -97 643 -97 936 -97 c 0,35,36
 1076 -97 1076 -97 1272 -43 c 1,37,-1
 1314 -142 l 1,38,39
 1122 -212 1122 -212 928 -212 c 0,40,41
 611 -212 611 -212 369 -14 c 128,-1,42
 127 184 127 184 127 491 c 0,43,44
 127 842 127 842 382.5 1091 c 128,-1,45
 638 1340 638 1340 992 1340 c 0,46,47
 1282 1340 1282 1340 1510 1154 c 128,-1,48
 1738 968 1738 968 1738 690 c 0,0,1
972 859 m 0,49,50
 852 859 852 859 763.5 735 c 128,-1,51
 675 611 675 611 675 466 c 0,52,53
 675 381 675 381 726.5 313 c 128,-1,54
 778 245 778 245 861 245 c 0,55,56
 990 245 990 245 1071 398.5 c 128,-1,57
 1152 552 1152 552 1152 688 c 0,58,59
 1152 763 1152 763 1100 811 c 128,-1,60
 1048 859 1048 859 972 859 c 0,49,50
EndSplineSet
Validated: 1
EndChar

StartChar: A
Encoding: 33 65 36
Width: 1267
GlyphClass: 2
Flags: MW
LayerCount: 2
Fore
SplineSet
1105 0 m 1,0,-1
 970 393 l 1,1,-1
 451 393 l 1,2,-1
 315 0 l 1,3,-1
 160 0 l 1,4,-1
 617 1283 l 1,5,-1
 815 1283 l 1,6,-1
 1267 0 l 1,7,-1
 1105 0 l 1,0,-1
714 1149 m 1,8,-1
 484 511 l 1,9,-1
 931 511 l 1,10,-1
 714 1149 l 1,8,-1
EndSplineSet
EndChar

StartChar: B
Encoding: 34 66 37
Width: 1117
GlyphClass: 2
Flags: MW
LayerCount: 2
Fore
SplineSet
861 674 m 1,0,1
 1117 583 1117 583 1117 362 c 0,2,3
 1117 195 1117 195 1015 97.5 c 128,-1,4
 913 0 913 0 742 0 c 2,5,-1
 160 0 l 1,6,-1
 160 1280 l 1,7,-1
 683 1280 l 2,8,9
 865 1280 865 1280 962 1195 c 128,-1,10
 1059 1110 1059 1110 1059 966 c 0,11,12
 1059 767 1059 767 861 674 c 1,0,1
641 1155 m 2,13,-1
 305 1155 l 1,14,-1
 305 719 l 1,15,-1
 641 719 l 2,16,17
 757 719 757 719 836 779 c 128,-1,18
 915 839 915 839 915 945 c 0,19,20
 915 1025 915 1025 849.5 1090 c 128,-1,21
 784 1155 784 1155 641 1155 c 2,13,-1
974 358 m 0,22,23
 974 508 974 508 878 551 c 128,-1,24
 782 594 782 594 649 594 c 2,25,-1
 305 594 l 1,26,-1
 305 125 l 1,27,-1
 725 125 l 2,28,29
 838 125 838 125 906 185.5 c 128,-1,30
 974 246 974 246 974 358 c 0,22,23
EndSplineSet
EndChar

StartChar: C
Encoding: 35 67 38
Width: 1261
GlyphClass: 2
Flags: MW
LayerCount: 2
Fore
SplineSet
737 -23 m 0,0,1
 493 -23 493 -23 326.5 139.5 c 128,-1,2
 160 302 160 302 160 635 c 0,3,4
 160 929 160 929 310 1116.5 c 128,-1,5
 460 1304 460 1304 745 1304 c 0,6,7
 1153 1304 1153 1304 1232 906 c 1,8,-1
 1087 906 l 1,9,10
 1024 1179 1024 1179 725 1179 c 0,11,12
 506 1179 506 1179 405.5 1020.5 c 128,-1,13
 305 862 305 862 305 638 c 0,14,15
 305 370 305 370 427.5 236 c 128,-1,16
 550 102 550 102 740 102 c 0,17,18
 1050 102 1050 102 1112 465 c 1,19,-1
 1261 465 l 1,20,21
 1197 -23 1197 -23 737 -23 c 0,0,1
EndSplineSet
EndChar

StartChar: D
Encoding: 36 68 39
Width: 1176
GlyphClass: 2
Flags: MW
LayerCount: 2
Fore
SplineSet
1008.5 135.5 m 128,-1,1
 841 0 841 0 652 0 c 2,2,-1
 160 0 l 1,3,-1
 160 1280 l 1,4,-1
 652 1280 l 2,5,6
 918 1280 918 1280 1047 1098 c 128,-1,7
 1176 916 1176 916 1176 641 c 0,8,0
 1176 271 1176 271 1008.5 135.5 c 128,-1,1
625 1155 m 2,9,-1
 303 1155 l 1,10,-1
 303 125 l 1,11,-1
 625 125 l 2,12,13
 1030 125 1030 125 1030 640 c 256,14,15
 1030 1155 1030 1155 625 1155 c 2,9,-1
EndSplineSet
EndChar

StartChar: E
Encoding: 37 69 40
Width: 1079
GlyphClass: 2
Flags: MW
LayerCount: 2
Fore
SplineSet
160 0 m 1,0,-1
 160 1280 l 1,1,-1
 1046 1280 l 1,2,-1
 1046 1155 l 1,3,-1
 305 1155 l 1,4,-1
 305 719 l 1,5,-1
 1020 719 l 1,6,-1
 1020 594 l 1,7,-1
 305 594 l 1,8,-1
 305 125 l 1,9,-1
 1079 125 l 1,10,-1
 1079 0 l 1,11,-1
 160 0 l 1,0,-1
EndSplineSet
EndChar

StartChar: F
Encoding: 38 70 41
Width: 1021
GlyphClass: 2
Flags: MW
LayerCount: 2
Fore
SplineSet
305 1155 m 1,0,-1
 305 719 l 1,1,-1
 934 719 l 1,2,-1
 934 594 l 1,3,-1
 305 594 l 1,4,-1
 305 0 l 1,5,-1
 160 0 l 1,6,-1
 160 1280 l 1,7,-1
 1021 1280 l 1,8,-1
 1021 1155 l 1,9,-1
 305 1155 l 1,0,-1
EndSplineSet
EndChar

StartChar: G
Encoding: 39 71 42
Width: 1330
GlyphClass: 2
Flags: MW
LayerCount: 2
Fore
SplineSet
1243 12 m 1,0,-1
 1199 194 l 1,1,2
 1002 -22 1002 -22 739 -22 c 256,3,4
 476 -22 476 -22 318 169.5 c 128,-1,5
 160 361 160 361 160 625 c 0,6,7
 160 929 160 929 323.5 1116 c 128,-1,8
 487 1303 487 1303 776 1303 c 0,9,10
 1229 1303 1229 1303 1309 916 c 1,11,-1
 1162 916 l 1,12,13
 1130 1044 1130 1044 1026.5 1111 c 128,-1,14
 923 1178 923 1178 778 1178 c 0,15,16
 542 1178 542 1178 423.5 1026 c 128,-1,17
 305 874 305 874 305 643 c 256,18,19
 305 412 305 412 426.5 257.5 c 128,-1,20
 548 103 548 103 784 103 c 0,21,22
 966 103 966 103 1085 213.5 c 128,-1,23
 1204 324 1204 324 1204 506 c 2,24,-1
 1204 553 l 1,25,-1
 809 553 l 1,26,-1
 809 678 l 1,27,-1
 1330 678 l 1,28,-1
 1330 12 l 1,29,-1
 1243 12 l 1,0,-1
EndSplineSet
EndChar

StartChar: H
Encoding: 40 72 43
Width: 1145
GlyphClass: 2
Flags: MW
LayerCount: 2
Fore
SplineSet
1002 0 m 1,0,-1
 1002 594 l 1,1,-1
 305 594 l 1,2,-1
 305 0 l 1,3,-1
 160 0 l 1,4,-1
 160 1280 l 1,5,-1
 305 1280 l 1,6,-1
 305 719 l 1,7,-1
 1002 719 l 1,8,-1
 1002 1280 l 1,9,-1
 1145 1280 l 1,10,-1
 1145 0 l 1,11,-1
 1002 0 l 1,0,-1
EndSplineSet
EndChar

StartChar: I
Encoding: 41 73 44
Width: 305
GlyphClass: 2
Flags: MW
LayerCount: 2
Fore
SplineSet
160 0 m 1,0,-1
 160 1280 l 1,1,-1
 305 1280 l 1,2,-1
 305 0 l 1,3,-1
 160 0 l 1,0,-1
EndSplineSet
EndChar

StartChar: J
Encoding: 42 74 45
Width: 876
GlyphClass: 2
Flags: MW
LayerCount: 2
Fore
SplineSet
780 70 m 128,-1,1
 684 -23 684 -23 518 -23 c 256,2,3
 352 -23 352 -23 256 63 c 128,-1,4
 160 149 160 149 160 306 c 2,5,-1
 160 409 l 1,6,-1
 305 409 l 1,7,-1
 305 336 l 2,8,9
 305 102 305 102 518 102 c 256,10,11
 731 102 731 102 731 388 c 2,12,-1
 731 1280 l 1,13,-1
 876 1280 l 1,14,-1
 876 328 l 2,15,0
 876 163 876 163 780 70 c 128,-1,1
EndSplineSet
EndChar

StartChar: K
Encoding: 43 75 46
Width: 1168
GlyphClass: 2
Flags: MW
LayerCount: 2
Fore
SplineSet
998 0 m 1,0,-1
 531 675 l 1,1,-1
 305 449 l 1,2,-1
 305 0 l 1,3,-1
 160 0 l 1,4,-1
 160 1280 l 1,5,-1
 305 1280 l 1,6,-1
 305 604 l 1,7,-1
 974 1280 l 1,8,-1
 1157 1280 l 1,9,-1
 636 761 l 1,10,-1
 1168 0 l 1,11,-1
 998 0 l 1,0,-1
EndSplineSet
EndChar

StartChar: L
Encoding: 44 76 47
Width: 955
GlyphClass: 2
Flags: MW
LayerCount: 2
Fore
SplineSet
160 0 m 1,0,-1
 160 1280 l 1,1,-1
 305 1280 l 1,2,-1
 305 125 l 1,3,-1
 955 125 l 1,4,-1
 955 0 l 1,5,-1
 160 0 l 1,0,-1
EndSplineSet
EndChar

StartChar: M
Encoding: 45 77 48
Width: 1384
GlyphClass: 2
Flags: MW
LayerCount: 2
Fore
SplineSet
1239 0 m 1,0,-1
 1239 1149 l 1,1,-1
 853 0 l 1,2,-1
 693 0 l 1,3,-1
 305 1149 l 1,4,-1
 305 0 l 1,5,-1
 160 0 l 1,6,-1
 170 1280 l 1,7,-1
 381 1280 l 1,8,-1
 775 119 l 1,9,-1
 1162 1280 l 1,10,-1
 1384 1280 l 1,11,-1
 1384 0 l 1,12,-1
 1239 0 l 1,0,-1
EndSplineSet
EndChar

StartChar: N
Encoding: 46 78 49
Width: 1182
GlyphClass: 2
Flags: MW
LayerCount: 2
Fore
SplineSet
1000 0 m 1,0,-1
 305 1086 l 1,1,-1
 305 0 l 1,2,-1
 160 0 l 1,3,-1
 160 1283 l 1,4,-1
 334 1283 l 1,5,-1
 1037 192 l 1,6,-1
 1037 1283 l 1,7,-1
 1182 1283 l 1,8,-1
 1182 0 l 1,9,-1
 1000 0 l 1,0,-1
EndSplineSet
EndChar

StartChar: O
Encoding: 47 79 50
Width: 1396
GlyphClass: 2
Flags: MW
LayerCount: 2
Fore
SplineSet
776 -23 m 256,0,1
 493 -23 493 -23 326.5 163.5 c 128,-1,2
 160 350 160 350 160 638 c 256,3,4
 160 926 160 926 324.5 1114.5 c 128,-1,5
 489 1303 489 1303 779 1303 c 256,6,7
 1069 1303 1069 1303 1232.5 1114 c 128,-1,8
 1396 925 1396 925 1396 636 c 256,9,10
 1396 347 1396 347 1227.5 162 c 128,-1,11
 1059 -23 1059 -23 776 -23 c 256,0,1
305 639 m 0,12,13
 305 414 305 414 427 257.5 c 128,-1,14
 549 101 549 101 774 101 c 0,15,16
 1002 101 1002 101 1126.5 255.5 c 128,-1,17
 1251 410 1251 410 1251 638 c 256,18,19
 1251 866 1251 866 1130.5 1022 c 128,-1,20
 1010 1178 1010 1178 781 1178 c 256,21,22
 552 1178 552 1178 428.5 1023 c 128,-1,23
 305 868 305 868 305 639 c 0,12,13
EndSplineSet
EndChar

StartChar: P
Encoding: 48 80 51
Width: 1079
GlyphClass: 2
Flags: MW
LayerCount: 2
Fore
SplineSet
728 552 m 2,0,-1
 305 552 l 1,1,-1
 305 0 l 1,2,-1
 160 0 l 1,3,-1
 160 1280 l 1,4,-1
 690 1280 l 2,5,6
 1079 1280 1079 1280 1079 909 c 0,7,8
 1079 747 1079 747 985.5 649.5 c 128,-1,9
 892 552 892 552 728 552 c 2,0,-1
666 1155 m 2,10,-1
 305 1155 l 1,11,-1
 305 677 l 1,12,-1
 666 677 l 2,13,14
 784 677 784 677 859 737.5 c 128,-1,15
 934 798 934 798 934 916 c 256,16,17
 934 1034 934 1034 860 1094.5 c 128,-1,18
 786 1155 786 1155 666 1155 c 2,10,-1
EndSplineSet
EndChar

StartChar: Q
Encoding: 49 81 52
Width: 1398
GlyphClass: 2
Flags: MW
LayerCount: 2
Fore
SplineSet
1206 140 m 1,0,-1
 1377 2 l 1,1,-1
 1307 -82 l 1,2,-1
 1121 68 l 1,3,4
 964 -22 964 -22 779 -22 c 0,5,6
 491 -22 491 -22 325.5 164 c 128,-1,7
 160 350 160 350 160 640 c 256,8,9
 160 930 160 930 324.5 1116.5 c 128,-1,10
 489 1303 489 1303 777 1303 c 256,11,12
 1065 1303 1065 1303 1231.5 1116.5 c 128,-1,13
 1398 930 1398 930 1398 637 c 256,14,15
 1398 344 1398 344 1206 140 c 1,0,-1
779 1178 m 0,16,17
 549 1178 549 1178 427 1023.5 c 128,-1,18
 305 869 305 869 305 639 c 0,19,20
 305 415 305 415 422 259 c 128,-1,21
 539 103 539 103 784 103 c 0,22,23
 902 103 902 103 1012 165 c 1,24,-1
 875 269 l 1,25,-1
 943 351 l 1,26,-1
 1101 225 l 1,27,28
 1253 393 1253 393 1253 631 c 256,29,30
 1253 869 1253 869 1132 1023.5 c 128,-1,31
 1011 1178 1011 1178 779 1178 c 0,16,17
EndSplineSet
EndChar

StartChar: R
Encoding: 50 82 53
Width: 1190
GlyphClass: 2
Flags: MW
LayerCount: 2
Fore
SplineSet
1007 0 m 1,0,1
 974 80 974 80 974 331 c 0,2,3
 974 561 974 561 747 561 c 2,4,-1
 305 561 l 1,5,-1
 305 0 l 1,6,-1
 160 0 l 1,7,-1
 160 1280 l 1,8,-1
 752 1280 l 2,9,10
 1138 1280 1138 1280 1138 943 c 0,11,12
 1138 831 1138 831 1087.5 760.5 c 128,-1,13
 1037 690 1037 690 920 631 c 1,14,15
 1035 582 1035 582 1074.5 511 c 128,-1,16
 1114 440 1114 440 1114 312 c 0,17,18
 1114 84 1114 84 1190 24 c 1,19,-1
 1190 0 l 1,20,-1
 1007 0 l 1,0,1
721 1155 m 1,21,-1
 305 1155 l 1,22,-1
 305 686 l 1,23,-1
 721 686 l 2,24,25
 978 686 978 686 978 920 c 256,26,27
 978 1154 978 1154 721 1155 c 1,21,-1
EndSplineSet
EndChar

StartChar: S
Encoding: 51 83 54
Width: 1168
GlyphClass: 2
Flags: MW
LayerCount: 2
Fore
SplineSet
1026 71 m 128,-1,1
 884 -23 884 -23 658 -23 c 0,2,3
 438 -23 438 -23 302.5 84 c 128,-1,4
 167 191 167 191 160 404 c 1,5,-1
 298 404 l 1,6,7
 303 102 303 102 676 102 c 0,8,9
 1023 102 1023 102 1023 343 c 0,10,11
 1023 499 1023 499 774 564 c 2,12,-1
 450 648 l 2,13,14
 200 713 200 713 200 937 c 0,15,16
 200 1120 200 1120 329 1211.5 c 128,-1,17
 458 1303 458 1303 661 1303 c 256,18,19
 864 1303 864 1303 991.5 1210 c 128,-1,20
 1119 1117 1119 1117 1124 928 c 1,21,-1
 988 928 l 1,22,23
 979 1178 979 1178 650 1178 c 0,24,25
 511 1178 511 1178 428 1128 c 128,-1,26
 345 1078 345 1078 345 962 c 0,27,28
 345 818 345 818 568 759 c 2,29,-1
 898 672 l 2,30,31
 1168 601 1168 601 1168 357 c 0,32,0
 1168 165 1168 165 1026 71 c 128,-1,1
EndSplineSet
EndChar

StartChar: T
Encoding: 52 84 55
Width: 1166
GlyphClass: 2
Flags: MW
LayerCount: 2
Fore
SplineSet
735 1155 m 1,0,-1
 735 0 l 1,1,-1
 590 0 l 1,2,-1
 590 1155 l 1,3,-1
 160 1155 l 1,4,-1
 160 1280 l 1,5,-1
 1166 1280 l 1,6,-1
 1166 1155 l 1,7,-1
 735 1155 l 1,0,-1
EndSplineSet
EndChar

StartChar: U
Encoding: 53 85 56
Width: 1143
GlyphClass: 2
Flags: MW
LayerCount: 2
Fore
SplineSet
1143 390 m 2,0,1
 1143 191 1143 191 1003 84 c 128,-1,2
 863 -23 863 -23 647 -23 c 256,3,4
 431 -23 431 -23 295.5 81 c 128,-1,5
 160 185 160 185 160 390 c 2,6,-1
 160 1280 l 1,7,-1
 305 1280 l 1,8,-1
 305 390 l 2,9,10
 305 102 305 102 651 102 c 256,11,12
 997 102 997 102 998 390 c 1,13,-1
 998 1280 l 1,14,-1
 1143 1280 l 1,15,-1
 1143 390 l 2,0,1
EndSplineSet
EndChar

StartChar: V
Encoding: 54 86 57
Width: 1231
GlyphClass: 2
Flags: MW
LayerCount: 2
Fore
SplineSet
786 0 m 1,0,-1
 622 0 l 1,1,-1
 160 1280 l 1,2,-1
 317 1280 l 1,3,-1
 708 154 l 1,4,-1
 1079 1280 l 1,5,-1
 1231 1280 l 1,6,-1
 786 0 l 1,0,-1
EndSplineSet
EndChar

StartChar: W
Encoding: 55 87 58
Width: 1747
GlyphClass: 2
Flags: MW
LayerCount: 2
Fore
SplineSet
1423 0 m 1,0,-1
 1259 0 l 1,1,-1
 952 1101 l 1,2,-1
 652 0 l 1,3,-1
 486 0 l 1,4,-1
 160 1280 l 1,5,-1
 322 1280 l 1,6,-1
 575 186 l 1,7,-1
 872 1280 l 1,8,-1
 1032 1280 l 1,9,-1
 1339 186 l 1,10,-1
 1585 1280 l 1,11,-1
 1747 1280 l 1,12,-1
 1423 0 l 1,0,-1
EndSplineSet
EndChar

StartChar: X
Encoding: 56 88 59
Width: 1241
GlyphClass: 2
Flags: MW
LayerCount: 2
Fore
SplineSet
1062 0 m 1,0,-1
 701 552 l 1,1,-1
 335 0 l 1,2,-1
 160 0 l 1,3,-1
 615 658 l 1,4,-1
 188 1280 l 1,5,-1
 364 1280 l 1,6,-1
 706 759 l 1,7,-1
 1048 1280 l 1,8,-1
 1220 1280 l 1,9,-1
 788 658 l 1,10,-1
 1241 0 l 1,11,-1
 1062 0 l 1,0,-1
EndSplineSet
EndChar

StartChar: Y
Encoding: 57 89 60
Width: 1280
GlyphClass: 2
Flags: MW
LayerCount: 2
Fore
SplineSet
799 503 m 1,0,-1
 799 0 l 1,1,-1
 654 0 l 1,2,-1
 654 503 l 1,3,-1
 160 1280 l 1,4,-1
 340 1280 l 1,5,-1
 730 635 l 1,6,-1
 1109 1280 l 1,7,-1
 1280 1280 l 1,8,-1
 799 503 l 1,0,-1
EndSplineSet
EndChar

StartChar: Z
Encoding: 58 90 61
Width: 1135
GlyphClass: 2
Flags: MW
LayerCount: 2
Fore
SplineSet
160 0 m 1,0,-1
 160 133 l 1,1,-1
 959 1155 l 1,2,-1
 211 1155 l 1,3,-1
 211 1280 l 1,4,-1
 1131 1280 l 1,5,-1
 1131 1142 l 1,6,-1
 336 125 l 1,7,-1
 1135 125 l 1,8,-1
 1135 0 l 1,9,-1
 160 0 l 1,0,-1
EndSplineSet
EndChar

StartChar: bracketleft
Encoding: 59 91 62
Width: 459
GlyphClass: 2
Flags: MW
LayerCount: 2
Fore
SplineSet
127 -374 m 1,0,-1
 127 1280 l 1,1,-1
 453 1280 l 1,2,-1
 453 1174 l 1,3,-1
 260 1174 l 1,4,-1
 260 -268 l 1,5,-1
 453 -268 l 1,6,-1
 453 -374 l 1,7,-1
 127 -374 l 1,0,-1
EndSplineSet
Validated: 1
EndChar

StartChar: backslash
Encoding: 60 92 63
Width: 572
GlyphClass: 2
Flags: MW
LayerCount: 2
Fore
SplineSet
501 -30 m 5,0,-1
 74 1286 l 5,1,-1
 211 1286 l 5,2,-1
 638 -30 l 5,3,-1
 501 -30 l 5,0,-1
EndSplineSet
EndChar

StartChar: bracketright
Encoding: 61 93 64
Width: 451
GlyphClass: 2
Flags: MW
LayerCount: 2
Fore
SplineSet
84 -374 m 1,0,-1
 84 -268 l 1,1,-1
 278 -268 l 1,2,-1
 278 1174 l 1,3,-1
 84 1174 l 1,4,-1
 84 1280 l 1,5,-1
 410 1280 l 1,6,-1
 410 -374 l 1,7,-1
 84 -374 l 1,0,-1
EndSplineSet
EndChar

StartChar: asciicircum
Encoding: 62 94 65
Width: 722
GlyphClass: 2
Flags: MW
LayerCount: 2
Fore
SplineSet
652 562 m 1,0,-1
 422 1128 l 1,1,-1
 195 562 l 1,2,-1
 94 562 l 1,3,-1
 362 1231 l 1,4,-1
 481 1231 l 1,5,-1
 753 562 l 1,6,-1
 652 562 l 1,0,-1
EndSplineSet
Validated: 1
EndChar

StartChar: underscore
Encoding: 63 95 66
Width: 999
GlyphClass: 2
Flags: MW
LayerCount: 2
Fore
SplineSet
35 -171 m 1,0,-1
 35 -61 l 1,1,-1
 1089 -61 l 1,2,-1
 1089 -171 l 1,3,-1
 35 -171 l 1,0,-1
EndSplineSet
Validated: 1
EndChar

StartChar: grave
Encoding: 64 96 67
Width: 490
GlyphClass: 2
Flags: MW
LayerCount: 2
Fore
SplineSet
431 887 m 1,0,-1
 178 1148 l 1,1,-1
 353 1148 l 1,2,-1
 517 887 l 1,3,-1
 431 887 l 1,0,-1
EndSplineSet
Validated: 1
EndChar

StartChar: a
Encoding: 65 97 68
Width: 1044
GlyphClass: 2
Flags: MW
LayerCount: 2
Fore
SplineSet
950 -23 m 0,0,1
 819 -23 819 -23 800 127 c 1,2,3
 624 -23 624 -23 476 -23 c 256,4,5
 328 -23 328 -23 244 44.5 c 128,-1,6
 160 112 160 112 160 243 c 0,7,8
 160 366 160 366 232 425.5 c 128,-1,9
 304 485 304 485 521 518 c 0,10,11
 691 543 691 543 744.5 562.5 c 128,-1,12
 798 582 798 582 798 678 c 0,13,14
 798 828 798 828 579 828 c 256,15,16
 360 828 360 828 336 664 c 1,17,-1
 205 664 l 1,18,19
 223 943 223 943 575 943 c 256,20,21
 927 943 927 943 927 701 c 2,22,-1
 927 164 l 2,23,24
 927 80 927 80 1021 80 c 2,25,-1
 1044 80 l 1,26,-1
 1044 -8 l 1,27,28
 987 -23 987 -23 950 -23 c 0,0,1
798 482 m 1,29,30
 744 458 744 458 653.5 444 c 128,-1,31
 563 430 563 430 495 416 c 0,32,33
 298 374 298 374 298 245 c 0,34,35
 298 87 298 87 498 87 c 0,36,37
 668 87 668 87 733 166 c 128,-1,38
 798 245 798 245 798 302 c 2,39,-1
 798 482 l 1,29,30
EndSplineSet
EndChar

StartChar: b
Encoding: 66 98 69
Width: 987
GlyphClass: 2
Flags: MW
LayerCount: 2
Fore
SplineSet
586 -23 m 0,0,1
 400 -23 400 -23 274 161 c 1,2,-1
 274 0 l 1,3,-1
 160 0 l 1,4,-1
 160 1280 l 1,5,-1
 288 1280 l 1,6,-1
 288 764 l 1,7,8
 409 943 409 943 599 943 c 256,9,10
 789 943 789 943 888 808 c 128,-1,11
 987 673 987 673 987 471 c 0,12,13
 987 253 987 253 882.5 115 c 128,-1,14
 778 -23 778 -23 586 -23 c 0,0,1
781.5 716.5 m 128,-1,16
 712 828 712 828 569 828 c 256,17,18
 426 828 426 828 357 713 c 128,-1,19
 288 598 288 598 288 459 c 0,20,21
 288 296 288 296 364.5 194 c 128,-1,22
 441 92 441 92 576 92 c 256,23,24
 711 92 711 92 781 200.5 c 128,-1,25
 851 309 851 309 851 457 c 256,26,15
 851 605 851 605 781.5 716.5 c 128,-1,16
EndSplineSet
EndChar

StartChar: c
Encoding: 67 99 70
Width: 949
GlyphClass: 2
Flags: MW
LayerCount: 2
Fore
SplineSet
571 -23 m 0,0,1
 369 -23 369 -23 264.5 115 c 128,-1,2
 160 253 160 253 160 464 c 0,3,4
 160 676 160 676 270 809.5 c 128,-1,5
 380 943 380 943 573 943 c 0,6,7
 902 943 902 943 937 626 c 1,8,-1
 807 626 l 1,9,10
 776 828 776 828 571 828 c 0,11,12
 419 828 419 828 357.5 716 c 128,-1,13
 296 604 296 604 296 457 c 256,14,15
 296 310 296 310 361 201 c 128,-1,16
 426 92 426 92 577 92 c 0,17,18
 775 92 775 92 819 316 c 1,19,-1
 949 316 l 1,20,21
 932 157 932 157 833.5 67 c 128,-1,22
 735 -23 735 -23 571 -23 c 0,0,1
EndSplineSet
EndChar

StartChar: d
Encoding: 68 100 71
Width: 984
GlyphClass: 2
Flags: MW
LayerCount: 2
Fore
SplineSet
873 0 m 1,0,-1
 873 163 l 1,1,2
 741 -23 741 -23 549 -23 c 256,3,4
 357 -23 357 -23 258.5 118 c 128,-1,5
 160 259 160 259 160 462 c 256,6,7
 160 665 160 665 260 804 c 128,-1,8
 360 943 360 943 551 943 c 256,9,10
 742 943 742 943 856 774 c 1,11,-1
 856 1280 l 1,12,-1
 984 1280 l 1,13,-1
 984 0 l 1,14,-1
 873 0 l 1,0,-1
580 828 m 0,15,16
 435 828 435 828 364.5 716 c 128,-1,17
 294 604 294 604 294 459 c 0,18,19
 294 311 294 311 364 201.5 c 128,-1,20
 434 92 434 92 577 92 c 0,21,22
 721 92 721 92 788.5 202.5 c 128,-1,23
 856 313 856 313 856 459 c 256,24,25
 856 605 856 605 791 716.5 c 128,-1,26
 726 828 726 828 580 828 c 0,15,16
EndSplineSet
EndChar

StartChar: e
Encoding: 69 101 72
Width: 1000
GlyphClass: 2
Flags: MW
LayerCount: 2
Fore
SplineSet
294 431 m 1,0,1
 297 284 297 284 369 188 c 128,-1,2
 441 92 441 92 587 92 c 0,3,4
 780 92 780 92 845 276 c 1,5,-1
 978 276 l 1,6,7
 911 -23 911 -23 582 -23 c 0,8,9
 374 -23 374 -23 267 112 c 128,-1,10
 160 247 160 247 160 450 c 256,11,12
 160 653 160 653 268 798 c 128,-1,13
 376 943 376 943 572 943 c 256,14,15
 768 943 768 943 882.5 831 c 128,-1,16
 997 719 997 719 1000 431 c 1,17,-1
 294 431 l 1,0,1
855 529 m 1,18,19
 854 652 854 652 782 740 c 128,-1,20
 710 828 710 828 582 828 c 256,21,22
 454 828 454 828 381 739.5 c 128,-1,23
 308 651 308 651 297 529 c 1,24,-1
 855 529 l 1,18,19
EndSplineSet
EndChar

StartChar: f
Encoding: 70 102 73
Width: 581
GlyphClass: 2
Flags: MW
LayerCount: 2
Fore
SplineSet
291 1078 m 2,0,1
 291 1280 291 1280 507 1280 c 0,2,3
 544 1280 544 1280 581 1275 c 1,4,-1
 581 1172 l 1,5,-1
 539 1172 l 2,6,7
 421 1172 421 1172 421 1066 c 2,8,-1
 421 914 l 1,9,-1
 581 914 l 1,10,-1
 581 814 l 1,11,-1
 421 814 l 1,12,-1
 421 0 l 1,13,-1
 291 0 l 1,14,-1
 291 814 l 1,15,-1
 160 814 l 1,16,-1
 160 914 l 1,17,-1
 291 914 l 1,18,-1
 291 1078 l 2,0,1
EndSplineSet
EndChar

StartChar: g
Encoding: 71 103 74
Width: 968
GlyphClass: 2
Flags: MW
LayerCount: 2
Fore
SplineSet
556 -362 m 0,0,1
 226 -362 226 -362 192 -104 c 1,2,-1
 322 -104 l 1,3,4
 351 -246 351 -246 549 -247 c 0,5,6
 744 -247 744 -247 789.5 -152 c 128,-1,7
 835 -57 835 -57 835 150 c 1,8,9
 718 -24 718 -24 537 -24 c 256,10,11
 356 -24 356 -24 258 118.5 c 128,-1,12
 160 261 160 261 160 466 c 256,13,14
 160 671 160 671 266.5 807 c 128,-1,15
 373 943 373 943 548 943 c 256,16,17
 723 943 723 943 850 761 c 1,18,-1
 850 920 l 1,19,-1
 968 920 l 1,20,-1
 968 158 l 2,21,22
 968 -99 968 -99 884 -230.5 c 128,-1,23
 800 -362 800 -362 556 -362 c 0,0,1
568 828 m 0,24,25
 423 828 423 828 357.5 717 c 128,-1,26
 292 606 292 606 292 460 c 256,27,28
 292 314 292 314 356.5 203 c 128,-1,29
 421 92 421 92 567 92 c 256,30,31
 713 92 713 92 774 200 c 128,-1,32
 835 308 835 308 835 454 c 0,33,34
 835 828 835 828 568 828 c 0,24,25
EndSplineSet
EndChar

StartChar: h
Encoding: 72 104 75
Width: 892
GlyphClass: 2
Flags: MW
LayerCount: 2
Fore
SplineSet
765 0 m 1,0,-1
 765 641 l 2,1,2
 765 732 765 732 707 782.5 c 128,-1,3
 649 833 649 833 556 833 c 0,4,5
 422 833 422 833 354.5 738.5 c 128,-1,6
 287 644 287 644 287 508 c 2,7,-1
 287 0 l 1,8,-1
 160 0 l 1,9,-1
 160 1280 l 1,10,-1
 287 1280 l 1,11,-1
 287 767 l 1,12,13
 425 943 425 943 603 943 c 0,14,15
 733 943 733 943 812.5 882 c 128,-1,16
 892 821 892 821 892 701 c 2,17,-1
 892 0 l 1,18,-1
 765 0 l 1,0,-1
EndSplineSet
EndChar

StartChar: i
Encoding: 73 105 76
Width: 289
GlyphClass: 2
Flags: MW
LayerCount: 2
Fore
SplineSet
160 1115 m 1,0,-1
 160 1280 l 1,1,-1
 289 1280 l 1,2,-1
 289 1115 l 1,3,-1
 160 1115 l 1,0,-1
162 0 m 1,4,-1
 162 916 l 1,5,-1
 289 916 l 1,6,-1
 289 0 l 1,7,-1
 162 0 l 1,4,-1
EndSplineSet
EndChar

StartChar: j
Encoding: 74 106 77
Width: 458
GlyphClass: 2
Flags: MW
LayerCount: 2
Fore
SplineSet
331 1115 m 1,0,-1
 331 1280 l 1,1,-1
 458 1280 l 1,2,-1
 458 1115 l 1,3,-1
 331 1115 l 1,0,-1
221 -362 m 0,4,5
 184 -362 184 -362 160 -357 c 1,6,-1
 160 -252 l 1,7,8
 160 -252 160 -252 186 -252 c 0,9,10
 331 -252 331 -252 331 -122 c 2,11,-1
 331 916 l 1,12,-1
 458 916 l 1,13,-1
 458 -178 l 2,14,15
 458 -362 458 -362 221 -362 c 0,4,5
EndSplineSet
EndChar

StartChar: k
Encoding: 75 107 78
Width: 931
GlyphClass: 2
Flags: MW
LayerCount: 2
Fore
SplineSet
772 0 m 1,0,-1
 447 515 l 1,1,-1
 287 360 l 1,2,-1
 287 0 l 1,3,-1
 160 0 l 1,4,-1
 160 1280 l 1,5,-1
 287 1280 l 1,6,-1
 287 503 l 1,7,-1
 706 916 l 1,8,-1
 868 916 l 1,9,-1
 551 606 l 1,10,-1
 931 0 l 1,11,-1
 772 0 l 1,0,-1
EndSplineSet
EndChar

StartChar: l
Encoding: 76 108 79
Width: 287
GlyphClass: 2
Flags: MW
LayerCount: 2
Fore
SplineSet
160 0 m 1,0,-1
 160 1280 l 1,1,-1
 287 1280 l 1,2,-1
 287 0 l 1,3,-1
 160 0 l 1,0,-1
EndSplineSet
EndChar

StartChar: m
Encoding: 77 109 80
Width: 1375
GlyphClass: 2
Flags: MW
LayerCount: 2
Fore
SplineSet
1248 0 m 1,0,-1
 1248 636 l 2,1,2
 1248 833 1248 833 1064 833 c 0,3,4
 961 833 961 833 895.5 756.5 c 128,-1,5
 830 680 830 680 830 577 c 2,6,-1
 830 0 l 1,7,-1
 703 0 l 1,8,-1
 703 636 l 2,9,10
 703 833 703 833 518 833 c 0,11,12
 418 833 418 833 352.5 756.5 c 128,-1,13
 287 680 287 680 287 577 c 2,14,-1
 287 0 l 1,15,-1
 160 0 l 1,16,-1
 160 920 l 1,17,-1
 275 920 l 1,18,-1
 275 759 l 1,19,20
 406 943 406 943 576 943 c 256,21,22
 746 943 746 943 826 792 c 1,23,24
 950 943 950 943 1116 943 c 0,25,26
 1375 943 1375 943 1375 693 c 2,27,-1
 1375 0 l 1,28,-1
 1248 0 l 1,0,-1
EndSplineSet
EndChar

StartChar: n
Encoding: 78 110 81
Width: 890
GlyphClass: 2
Flags: MW
LayerCount: 2
Fore
SplineSet
763 0 m 1,0,-1
 763 639 l 2,1,2
 763 732 763 732 706 782.5 c 128,-1,3
 649 833 649 833 556 833 c 0,4,5
 420 833 420 833 354 737.5 c 128,-1,6
 288 642 288 642 288 508 c 2,7,-1
 288 0 l 1,8,-1
 160 0 l 1,9,-1
 160 920 l 1,10,-1
 276 920 l 1,11,-1
 276 732 l 1,12,13
 411 943 411 943 601 943 c 0,14,15
 731 943 731 943 810.5 881.5 c 128,-1,16
 890 820 890 820 890 698 c 2,17,-1
 890 0 l 1,18,-1
 763 0 l 1,0,-1
EndSplineSet
EndChar

StartChar: o
Encoding: 79 111 82
Width: 990
GlyphClass: 2
Flags: MW
LayerCount: 2
Fore
SplineSet
576 -23 m 256,0,1
 368 -23 368 -23 264 111 c 128,-1,2
 160 245 160 245 160 459 c 256,3,4
 160 673 160 673 263 808 c 128,-1,5
 366 943 366 943 576 943 c 256,6,7
 786 943 786 943 888 808 c 128,-1,8
 990 673 990 673 990 457 c 256,9,10
 990 241 990 241 887 109 c 128,-1,11
 784 -23 784 -23 576 -23 c 256,0,1
575 828 m 0,12,13
 294 828 294 828 294 461 c 0,14,15
 294 92 294 92 573 92 c 0,16,17
 857 92 857 92 857 456 c 0,18,19
 857 828 857 828 575 828 c 0,12,13
EndSplineSet
EndChar

StartChar: p
Encoding: 80 112 83
Width: 980
GlyphClass: 2
Flags: MW
LayerCount: 2
Fore
SplineSet
885.5 804 m 128,-1,1
 980 665 980 665 980 460 c 256,2,3
 980 255 980 255 882 116 c 128,-1,4
 784 -23 784 -23 602 -23 c 256,5,6
 420 -23 420 -23 289 134 c 1,7,-1
 289 -362 l 1,8,-1
 160 -362 l 1,9,-1
 160 920 l 1,10,-1
 275 920 l 1,11,-1
 275 752 l 1,12,13
 401 943 401 943 596 943 c 256,14,0
 791 943 791 943 885.5 804 c 128,-1,1
779.5 716 m 128,-1,16
 712 828 712 828 567 828 c 0,17,18
 421 828 421 828 355 716 c 128,-1,19
 289 604 289 604 289 442 c 256,20,21
 289 280 289 280 370 186 c 128,-1,22
 451 92 451 92 563 92 c 0,23,24
 704 92 704 92 775.5 203.5 c 128,-1,25
 847 315 847 315 847 459 c 0,26,15
 847 604 847 604 779.5 716 c 128,-1,16
EndSplineSet
EndChar

StartChar: q
Encoding: 81 113 84
Width: 984
GlyphClass: 2
Flags: MW
LayerCount: 2
Fore
SplineSet
855 -362 m 1,0,-1
 855 149 l 1,1,2
 735 -23 735 -23 545 -23 c 256,3,4
 355 -23 355 -23 257.5 111 c 128,-1,5
 160 245 160 245 160 464 c 256,6,7
 160 683 160 683 272 813 c 128,-1,8
 384 943 384 943 565 943 c 0,9,10
 747 943 747 943 873 771 c 1,11,-1
 873 920 l 1,12,-1
 984 920 l 1,13,-1
 984 -362 l 1,14,-1
 855 -362 l 1,0,-1
789.5 201.5 m 128,-1,16
 855 311 855 311 855 471 c 256,17,18
 855 631 855 631 780.5 729.5 c 128,-1,19
 706 828 706 828 572 828 c 0,20,21
 437 828 437 828 364.5 715 c 128,-1,22
 292 602 292 602 292 457 c 0,23,24
 292 313 292 313 363.5 202.5 c 128,-1,25
 435 92 435 92 580 92 c 0,26,15
 724 92 724 92 789.5 201.5 c 128,-1,16
EndSplineSet
EndChar

StartChar: r
Encoding: 82 114 85
Width: 602
GlyphClass: 2
Flags: MW
LayerCount: 2
Fore
SplineSet
289 478 m 2,0,-1
 289 0 l 1,1,-1
 160 0 l 1,2,-1
 160 925 l 1,3,-1
 277 925 l 1,4,-1
 277 727 l 1,5,6
 409 943 409 943 553 943 c 0,7,8
 572 943 572 943 602 940 c 1,9,-1
 602 828 l 1,10,11
 443 824 443 824 366 729 c 128,-1,12
 289 634 289 634 289 478 c 2,0,-1
EndSplineSet
EndChar

StartChar: s
Encoding: 83 115 86
Width: 908
GlyphClass: 2
Flags: MW
LayerCount: 2
Fore
SplineSet
908 249 m 0,0,1
 908 -23 908 -23 538 -23 c 0,2,3
 169 -23 169 -23 160 271 c 1,4,-1
 297 271 l 1,5,6
 326 92 326 92 549 92 c 256,7,8
 772 92 772 92 772 246 c 0,9,10
 772 348 772 348 591 394 c 2,11,-1
 385 446 l 2,12,13
 184 497 184 497 184 679 c 0,14,15
 184 822 184 822 283 882.5 c 128,-1,16
 382 943 382 943 535 943 c 0,17,18
 862 943 862 943 870 682 c 1,19,-1
 732 682 l 1,20,21
 720 828 720 828 520 828 c 0,22,23
 319 828 319 828 319 682 c 0,24,25
 319 589 319 589 526 533 c 2,26,-1
 695 487 l 2,27,28
 908 429 908 429 908 249 c 0,0,1
EndSplineSet
EndChar

StartChar: t
Encoding: 84 116 87
Width: 583
GlyphClass: 2
Flags: MW
LayerCount: 2
Fore
SplineSet
467 -23 m 0,0,1
 294 -23 294 -23 294 112 c 2,2,-1
 294 820 l 1,3,-1
 160 820 l 1,4,-1
 160 920 l 1,5,-1
 294 920 l 1,6,-1
 294 1178 l 1,7,-1
 422 1178 l 1,8,-1
 422 920 l 1,9,-1
 583 920 l 1,10,-1
 583 820 l 1,11,-1
 422 820 l 1,12,-1
 422 178 l 2,13,14
 422 87 422 87 519 87 c 0,15,16
 558 87 558 87 583 89 c 1,17,-1
 583 -14 l 1,18,19
 516 -23 516 -23 467 -23 c 0,0,1
EndSplineSet
EndChar

StartChar: u
Encoding: 85 117 88
Width: 894
GlyphClass: 2
Flags: MW
LayerCount: 2
Fore
SplineSet
781 0 m 1,0,-1
 781 170 l 1,1,2
 639 -23 639 -23 453 -23 c 0,3,4
 324 -23 324 -23 242 38.5 c 128,-1,5
 160 100 160 100 160 217 c 2,6,-1
 160 920 l 1,7,-1
 287 920 l 1,8,-1
 287 276 l 2,9,10
 287 186 287 186 345 134.5 c 128,-1,11
 403 83 403 83 496 83 c 0,12,13
 627 83 627 83 697 179.5 c 128,-1,14
 767 276 767 276 767 407 c 2,15,-1
 767 920 l 1,16,-1
 894 920 l 1,17,-1
 894 0 l 1,18,-1
 781 0 l 1,0,-1
EndSplineSet
EndChar

StartChar: v
Encoding: 86 118 89
Width: 986
GlyphClass: 2
Flags: MW
LayerCount: 2
Fore
SplineSet
633 0 m 1,0,-1
 485 0 l 1,1,-1
 160 920 l 1,2,-1
 305 920 l 1,3,-1
 566 134 l 1,4,-1
 842 920 l 1,5,-1
 986 920 l 1,6,-1
 633 0 l 1,0,-1
EndSplineSet
EndChar

StartChar: w
Encoding: 87 119 90
Width: 1386
GlyphClass: 2
Flags: MW
LayerCount: 2
Fore
SplineSet
1116 0 m 1,0,-1
 964 0 l 1,1,-1
 765 775 l 1,2,-1
 575 0 l 1,3,-1
 425 0 l 1,4,-1
 160 920 l 1,5,-1
 300 920 l 1,6,-1
 502 154 l 1,7,-1
 688 920 l 1,8,-1
 853 920 l 1,9,-1
 1047 154 l 1,10,-1
 1241 920 l 1,11,-1
 1386 920 l 1,12,-1
 1116 0 l 1,0,-1
EndSplineSet
EndChar

StartChar: x
Encoding: 88 120 91
Width: 941
GlyphClass: 2
Flags: MW
LayerCount: 2
Fore
SplineSet
795 0 m 1,0,-1
 551 372 l 1,1,-1
 305 0 l 1,2,-1
 160 0 l 1,3,-1
 487 470 l 1,4,-1
 180 920 l 1,5,-1
 322 920 l 1,6,-1
 556 571 l 1,7,-1
 792 920 l 1,8,-1
 931 920 l 1,9,-1
 622 478 l 1,10,-1
 941 0 l 1,11,-1
 795 0 l 1,0,-1
EndSplineSet
EndChar

StartChar: y
Encoding: 89 121 92
Width: 956
GlyphClass: 2
Flags: MW
LayerCount: 2
Fore
SplineSet
541 -176 m 2,0,1
 471 -362 471 -362 307 -362 c 0,2,3
 258 -362 258 -362 216 -342 c 1,4,-1
 216 -230 l 1,5,6
 256 -237 256 -237 286 -237 c 0,7,8
 383 -237 383 -237 418 -138 c 2,9,-1
 476 26 l 1,10,-1
 160 920 l 1,11,-1
 298 920 l 1,12,-1
 546 200 l 1,13,-1
 816 920 l 1,14,-1
 956 920 l 1,15,-1
 541 -176 l 2,0,1
EndSplineSet
EndChar

StartChar: z
Encoding: 90 122 93
Width: 908
GlyphClass: 2
Flags: MW
LayerCount: 2
Fore
SplineSet
160 0 m 1,0,-1
 160 122 l 1,1,-1
 731 810 l 1,2,-1
 199 810 l 1,3,-1
 199 920 l 1,4,-1
 882 920 l 1,5,-1
 882 803 l 1,6,-1
 307 110 l 1,7,-1
 908 110 l 1,8,-1
 908 0 l 1,9,-1
 160 0 l 1,0,-1
EndSplineSet
EndChar

StartChar: braceleft
Encoding: 91 123 94
Width: 526
GlyphClass: 2
Flags: MW
LayerCount: 2
Fore
SplineSet
451 -371 m 2,0,1
 262 -371 262 -371 262 -148 c 2,2,-1
 262 150 l 2,3,4
 262 375 262 375 117 403 c 1,5,-1
 117 509 l 1,6,7
 262 541 262 541 262 764 c 2,8,-1
 262 1062 l 2,9,10
 262 1283 262 1283 451 1283 c 2,11,-1
 525 1283 l 1,12,-1
 525 1189 l 1,13,14
 443 1189 443 1189 411.5 1164.5 c 128,-1,15
 380 1140 380 1140 380 1060 c 2,16,-1
 380 737 l 2,17,18
 380 525 380 525 211 457 c 1,19,20
 380 383 380 383 380 176 c 2,21,-1
 380 -145 l 2,22,23
 380 -229 380 -229 413 -252 c 128,-1,24
 446 -275 446 -275 525 -277 c 1,25,-1
 525 -371 l 1,26,-1
 451 -371 l 2,0,1
EndSplineSet
Validated: 1
EndChar

StartChar: bar
Encoding: 92 124 95
Width: 335
GlyphClass: 2
Flags: MW
LayerCount: 2
Fore
SplineSet
147 -371 m 1,0,-1
 147 1280 l 1,1,-1
 251 1280 l 1,2,-1
 251 -371 l 1,3,-1
 147 -371 l 1,0,-1
EndSplineSet
Validated: 1
EndChar

StartChar: braceright
Encoding: 93 125 96
Width: 504
GlyphClass: 2
Flags: MW
LayerCount: 2
Fore
SplineSet
328 150 m 2,0,-1
 328 -148 l 2,1,2
 328 -371 328 -371 136 -371 c 2,3,-1
 59 -371 l 1,4,-1
 59 -277 l 1,5,6
 143 -275 143 -275 175 -252 c 128,-1,7
 207 -229 207 -229 207 -145 c 2,8,-1
 207 176 l 2,9,10
 207 383 207 383 377 455 c 1,11,12
 207 530 207 530 207 737 c 2,13,-1
 207 1060 l 2,14,15
 207 1140 207 1140 174 1164.5 c 128,-1,16
 141 1189 141 1189 59 1189 c 1,17,-1
 59 1283 l 1,18,-1
 136 1283 l 2,19,20
 328 1283 328 1283 328 1062 c 2,21,-1
 328 764 l 2,22,23
 328 542 328 542 467 509 c 1,24,-1
 467 403 l 1,25,26
 328 371 328 371 328 150 c 2,0,-1
EndSplineSet
Validated: 1
EndChar

StartChar: asciitilde
Encoding: 94 126 97
Width: 910
GlyphClass: 2
Flags: MW
LayerCount: 2
Fore
SplineSet
882 933 m 2,0,1
 882 704 882 704 707 704 c 0,2,3
 623 704 623 704 540 763 c 2,4,-1
 395 866 l 2,5,6
 348 899 348 899 304 899 c 0,7,8
 209 899 209 899 196 751 c 1,9,-1
 123 751 l 1,10,11
 139 1002 139 1002 306 1002 c 0,12,13
 355 1002 355 1002 397 975 c 2,14,-1
 609 839 l 2,15,16
 659 807 659 807 705 807 c 0,17,18
 805 807 805 807 808 950 c 1,19,-1
 882 950 l 1,20,-1
 882 933 l 2,0,1
EndSplineSet
Validated: 1
EndChar

StartChar: anuswara
Encoding: 96 3330 99
Width: 685
GlyphClass: 2
Flags: MW
LayerCount: 2
Fore
SplineSet
338.597 139.764 m 1,0,1
 441.264 149.689 441.264 149.689 476.259 201.587 c 1,2,3
 493.787 232.165 493.787 232.165 488.573 266.102 c 0,4,5
 482.531 305.425 482.531 305.425 456.416 335.463 c 0,6,7
 430.573 365.189 430.573 365.189 389.45 377.028 c 0,8,9
 342.481 390.55 342.481 390.55 300.889 385.601 c 0,10,11
 255.13 380.155 255.13 380.155 228.742 369.257 c 0,12,13
 197.164 356.216 197.164 356.216 186.745 342.23 c 128,-1,14
 176.326 328.245 176.326 328.245 176.279 304.904 c 0,15,16
 176.157 244.558 176.157 244.558 227.527 189.703 c 0,17,18
 275.581 138.389 275.581 138.389 338.597 139.764 c 1,0,1
344.863 9.89355 m 0,19,20
 221.801 5.62988 221.801 5.62988 132.639 100.842 c 0,21,22
 46.0537 193.302 46.0537 193.302 46.2793 305.17 c 0,23,24
 46.4062 367.935 46.4062 367.935 82.3135 416.099 c 128,-1,25
 118.222 464.263 118.222 464.263 179.118 489.413 c 0,26,27
 222.023 507.133 222.023 507.133 285.527 514.689 c 0,28,29
 353.203 522.743 353.203 522.743 425.414 501.954 c 0,30,31
 503.467 479.484 503.467 479.484 554.527 420.753 c 0,32,33
 605.312 362.338 605.312 362.338 617.064 285.848 c 0,34,35
 629.506 204.87 629.506 204.87 586.574 132.742 c 1,36,37
 516.604 25.5605 516.604 25.5605 348.558 10.127 c 0,38,39
 346.713 9.95801 346.713 9.95801 344.863 9.89355 c 0,19,20
EndSplineSet
EndChar

StartChar: visarga
Encoding: 97 3331 100
Width: 452
GlyphClass: 2
Flags: MW
LayerCount: 2
Fore
SplineSet
461 706 m 0,0,1
 461 638 461 638 411.5 590 c 128,-1,2
 362 542 362 542 294 542 c 256,3,4
 226 542 226 542 177.5 590 c 128,-1,5
 129 638 129 638 129 706 c 0,6,7
 129 775 129 775 178 824 c 0,8,9
 226 873 226 873 294 873 c 256,10,11
 362 873 362 873 411.5 824 c 128,-1,12
 461 775 461 775 461 706 c 0,0,1
357 706 m 0,13,14
 357 770 357 770 295 770 c 256,15,16
 233 770 233 770 233 706 c 0,17,18
 233 643 233 643 295 643 c 256,19,20
 357 643 357 643 357 706 c 0,13,14
411.5 313 m 128,-1,22
 461 264 461 264 461 196 c 256,23,24
 461 128 461 128 411.5 79.5 c 128,-1,25
 362 31 362 31 294 31 c 256,26,27
 226 31 226 31 178 80 c 0,28,29
 130 128 130 128 129 196 c 0,30,31
 129 264 129 264 178 313 c 0,32,33
 226 362 226 362 294 362 c 256,34,21
 362 362 362 362 411.5 313 c 128,-1,22
357 196 m 256,35,36
 357 258 357 258 295 259 c 1,37,38
 233 258 233 258 233 196 c 256,39,40
 233 134 233 134 295 134 c 256,41,42
 357 134 357 134 357 196 c 256,35,36
EndSplineSet
Validated: 1
EndChar

StartChar: ml_a
Encoding: 98 3333 101
Width: 2353
GlyphClass: 2
Flags: MW
LayerCount: 2
Fore
SplineSet
741.808 894.982 m 1,0,1
 1191.11 1041.64 1191.11 1041.64 1290.96 751.395 c 1,2,3
 1480.65 970.41 1480.65 970.41 1763.68 987.039 c 0,4,5
 2054.63 1004.13 2054.63 1004.13 2192.53 803.87 c 0,6,7
 2264.63 699.178 2264.63 699.178 2272.69 565.676 c 1,8,9
 2314.28 319.79 2314.28 319.79 2168.93 150.5 c 0,10,11
 2065.76 30.3235 2065.76 30.3235 1915.23 -3.34776 c 128,-1,12
 1764.7 -37.019 1764.7 -37.019 1665.07 30.2709 c 0,13,14
 1602.6 72.464 1602.6 72.464 1582.01 141.791 c 0,15,16
 1542.95 273.293 1542.95 273.293 1648.37 454.536 c 0,17,18
 1650.6 458.367 1650.6 458.367 1653.33 461.862 c 0,19,20
 1742.88 576.53 1742.88 576.53 1911.06 603.614 c 0,21,22
 2024.55 621.89 2024.55 621.89 2141.34 576.799 c 1,23,24
 2125.52 720.945 2125.52 720.945 2017.42 800.19 c 0,25,26
 1927.08 866.416 1927.08 866.416 1771.3 857.263 c 0,27,28
 1489.06 840.68 1489.06 840.68 1325.59 579.758 c 1,29,30
 1328.89 526.351 1328.89 526.351 1329.06 407.548 c 128,-1,31
 1329.24 288.744 1329.24 288.744 1329.33 238.696 c 0,32,33
 1329.57 108.713 1329.57 108.713 1329.49 91.8653 c 128,-1,34
 1329.42 75.0175 1329.42 75.0175 1331.04 74.1414 c 128,-1,35
 1332.65 73.2652 1332.65 73.2652 1334.85 71.5801 c 128,-1,36
 1337.06 69.895 1337.06 69.895 1339.62 64.2575 c 128,-1,37
 1342.19 58.6201 1342.19 58.6201 1340.75 51.8655 c 0,38,39
 1336.94 34.1102 1336.94 34.1102 1311.61 12.2014 c 128,-1,40
 1286.28 -9.70741 1286.28 -9.70741 1267.71 -11.2617 c 128,-1,41
 1249.13 -12.816 1249.13 -12.816 1237.18 -3.0794 c 128,-1,42
 1225.24 6.65724 1225.24 6.65724 1216.2 20.0725 c 128,-1,43
 1207.17 33.4877 1207.17 33.4877 1203.16 43.3706 c 128,-1,44
 1199.15 53.2535 1199.15 53.2535 1199.15 54.4128 c 128,-1,45
 1199.08 55.6659 1199.08 55.6659 1198.69 62.9905 c 128,-1,46
 1198.3 70.3151 1198.3 70.3151 1190.29 147.616 c 0,47,48
 1154 497.524 1154 497.524 1192.26 604.341 c 1,49,50
 1174.63 719.47 1174.63 719.47 1148.17 753.01 c 0,51,52
 1085.98 831.851 1085.98 831.851 959.249 812.421 c 0,53,54
 913.593 805.421 913.593 805.421 871.208 795.827 c 1,55,56
 957.468 698.061 957.468 698.061 951.842 607.781 c 128,-1,57
 946.216 517.501 946.216 517.501 883.627 457.899 c 1,58,59
 958.048 432.653 958.048 432.653 1013.37 388.935 c 0,60,61
 1121.77 303.284 1121.77 303.284 1119.95 184.162 c 0,62,63
 1118.25 72.8172 1118.25 72.8172 1023.8 11.0249 c 0,64,65
 966.723 -26.3186 966.723 -26.3186 887.735 -30.9292 c 0,66,67
 646.87 -44.9888 646.87 -44.9888 463.122 123.354 c 0,68,69
 351.355 225.752 351.355 225.752 321.516 352.515 c 0,70,71
 305.624 420.029 305.624 420.029 319.641 481.735 c 0,72,73
 367.24 691.264 367.24 691.264 565.191 814.401 c 1,74,75
 541.294 816.096 541.294 816.096 529.127 814.112 c 128,-1,76
 516.96 812.128 516.96 812.128 514.546 811.917 c 0,77,78
 259.041 789.579 259.041 789.579 181.422 596.442 c 0,79,80
 139.604 492.389 139.604 492.389 168.157 359.513 c 0,81,82
 194.028 239.126 194.028 239.126 269.943 165.24 c 0,83,84
 303.722 132.363 303.722 132.363 335.035 121.598 c 128,-1,85
 366.347 110.833 366.347 110.833 378.272 86.4073 c 128,-1,86
 390.198 61.9812 390.198 61.9812 381.565 36.8679 c 128,-1,87
 372.931 11.7547 372.931 11.7547 348.507 -0.17486 c 128,-1,88
 324.083 -12.1044 324.083 -12.1044 279.003 3.39329 c 128,-1,89
 233.923 18.891 233.923 18.891 180.825 70.5678 c 0,90,91
 75.1895 173.377 75.1895 173.377 41.0591 332.2 c 0,92,93
 -16.4444 599.788 -16.4444 599.788 146.512 783.952 c 0,94,95
 266.968 920.085 266.968 920.085 500.878 941.214 c 1,96,97
 616.45 958.722 616.45 958.722 741.808 894.982 c 1,0,1
2150.56 427.489 m 1,98,99
 1989.03 527.037 1989.03 527.037 1827.98 440.764 c 0,100,101
 1785.11 417.799 1785.11 417.799 1758.41 385.128 c 1,102,103
 1719.85 317.753 1719.85 317.753 1708.05 262.209 c 128,-1,104
 1696.26 206.666 1696.26 206.666 1703.81 181.267 c 128,-1,105
 1711.37 155.869 1711.37 155.869 1737.83 137.999 c 0,106,107
 1791.01 102.08 1791.01 102.08 1893.13 124.922 c 128,-1,108
 1995.24 147.763 1995.24 147.763 2068.24 232.784 c 128,-1,109
 2141.23 317.806 2141.23 317.806 2150.56 427.489 c 1,98,99
932.774 286.937 m 0,110,111
 829.897 368.23 829.897 368.23 650.625 359.49 c 0,112,113
 605.084 357.27 605.084 357.27 575.586 356.896 c 128,-1,114
 546.089 356.522 546.089 356.522 526.624 375.5 c 128,-1,115
 507.158 394.478 507.158 394.478 506.824 420.836 c 128,-1,116
 506.49 447.194 506.49 447.194 525.462 466.029 c 128,-1,117
 544.434 484.864 544.434 484.864 570.86 486.986 c 128,-1,118
 597.286 489.108 597.286 489.108 638.736 492.347 c 0,119,120
 707.395 497.711 707.395 497.711 750.91 522.707 c 128,-1,121
 794.426 547.704 794.426 547.704 807.282 566.095 c 0,122,123
 839.751 612.539 839.751 612.539 806.06 665.535 c 128,-1,124
 772.37 718.532 772.37 718.532 727.786 751.473 c 1,125,126
 492.317 655.01 492.317 655.01 446.411 452.935 c 0,127,128
 430.725 383.883 430.725 383.883 483.057 299.43 c 0,129,130
 538.126 210.56 538.126 210.56 645.043 151.722 c 0,131,132
 755.902 90.7138 755.902 90.7138 882.773 100.164 c 1,133,134
 988.72 104.335 988.72 104.335 989.963 186.138 c 0,135,136
 990.799 241.086 990.799 241.086 932.774 286.937 c 0,110,111
EndSplineSet
EndChar

StartChar: ml_aa
Encoding: 99 3334 102
Width: 2650
GlyphClass: 2
Flags: MW
LayerCount: 2
Fore
SplineSet
2279.85 509.569 m 1,0,1
 2562.07 382.515 2562.07 382.515 2635.42 146.16 c 0,2,3
 2659.36 69.0356 2659.36 69.0356 2656.98 -15.7163 c 0,4,5
 2653.53 -157.073 2653.53 -157.073 2583.87 -263.849 c 128,-1,6
 2514.22 -370.625 2514.22 -370.625 2412.87 -424.148 c 128,-1,7
 2311.52 -477.671 2311.52 -477.671 2192.53 -495.298 c 0,8,9
 1947.64 -531.575 1947.64 -531.575 1760.12 -412.352 c 0,10,11
 1662.64 -350.37 1662.64 -350.37 1620.67 -256.544 c 0,12,13
 1609.82 -232.306 1609.82 -232.306 1619.52 -206.91 c 128,-1,14
 1629.21 -181.514 1629.21 -181.514 1653.46 -170.667 c 128,-1,15
 1677.71 -159.821 1677.71 -159.821 1703.1 -169.518 c 128,-1,16
 1728.49 -179.215 1728.49 -179.215 1739.33 -203.456 c 0,17,18
 1765.35 -261.626 1765.35 -261.626 1832.88 -304.556 c 128,-1,19
 1900.4 -347.485 1900.4 -347.485 1988.38 -364.286 c 128,-1,20
 2076.37 -381.086 2076.37 -381.086 2173.47 -366.702 c 0,21,22
 2381.69 -335.857 2381.69 -335.857 2474.56 -193.493 c 0,23,24
 2524.47 -116.98 2524.47 -116.98 2526.63 -32.932 c 0,25,26
 2530.34 110.822 2530.34 110.822 2467.18 203.733 c 0,27,28
 2398.49 304.771 2398.49 304.771 2273.74 368.559 c 1,29,30
 2251.36 246.504 2251.36 246.504 2158.56 138.414 c 128,-1,31
 2065.76 30.3235 2065.76 30.3235 1915.23 -3.34776 c 128,-1,32
 1764.7 -37.019 1764.7 -37.019 1665.07 30.2709 c 0,33,34
 1602.6 72.464 1602.6 72.464 1582.01 141.791 c 0,35,36
 1542.95 273.293 1542.95 273.293 1648.37 454.536 c 0,37,38
 1650.6 458.367 1650.6 458.367 1653.33 461.862 c 0,39,40
 1742.88 576.53 1742.88 576.53 1911.06 603.614 c 0,41,42
 2024.55 621.89 2024.55 621.89 2141.26 576.83 c 1,43,44
 2125.51 712.288 2125.51 712.288 2015.78 791.73 c 0,45,46
 1925.71 856.927 1925.71 856.927 1775.97 857 c 0,47,48
 1502.19 857.134 1502.19 857.134 1328.15 569.943 c 0,49,50
 1327.29 568.521 1327.29 568.521 1327.86 547.147 c 0,51,52
 1328.92 507.967 1328.92 507.967 1329.08 398.355 c 128,-1,53
 1329.24 288.744 1329.24 288.744 1329.33 238.696 c 0,54,55
 1329.57 108.713 1329.57 108.713 1329.49 91.8653 c 128,-1,56
 1329.42 75.0175 1329.42 75.0175 1331.04 74.1414 c 128,-1,57
 1332.65 73.2652 1332.65 73.2652 1334.85 71.5801 c 128,-1,58
 1337.06 69.895 1337.06 69.895 1339.62 64.2575 c 128,-1,59
 1342.19 58.6201 1342.19 58.6201 1340.75 51.8655 c 0,60,61
 1336.94 34.1102 1336.94 34.1102 1311.61 12.2014 c 128,-1,62
 1286.28 -9.70741 1286.28 -9.70741 1267.71 -11.2617 c 128,-1,63
 1249.13 -12.816 1249.13 -12.816 1237.18 -3.0794 c 128,-1,64
 1225.24 6.65724 1225.24 6.65724 1216.2 20.0725 c 128,-1,65
 1207.17 33.4877 1207.17 33.4877 1203.16 43.3706 c 128,-1,66
 1199.15 53.2535 1199.15 53.2535 1199.15 54.4128 c 128,-1,67
 1199.08 55.664 1199.08 55.664 1198.77 62.4206 c 128,-1,68
 1198.47 69.1771 1198.47 69.1771 1191.64 148.156 c 0,69,70
 1163.58 472.458 1163.58 472.458 1194.7 585.58 c 1,71,72
 1181.36 710.936 1181.36 710.936 1141.61 761.323 c 0,73,74
 1121.71 786.549 1121.71 786.549 1075.46 804.882 c 128,-1,75
 1029.33 823.165 1029.33 823.165 971.46 814.293 c 128,-1,76
 913.593 805.421 913.593 805.421 871.208 795.827 c 1,77,78
 957.468 698.061 957.468 698.061 951.842 607.781 c 128,-1,79
 946.216 517.501 946.216 517.501 883.627 457.899 c 1,80,81
 958.048 432.653 958.048 432.653 1013.37 388.935 c 0,82,83
 1121.77 303.284 1121.77 303.284 1119.95 184.162 c 0,84,85
 1118.25 72.8172 1118.25 72.8172 1023.8 11.0249 c 0,86,87
 966.723 -26.3186 966.723 -26.3186 887.735 -30.9292 c 0,88,89
 646.87 -44.9888 646.87 -44.9888 463.122 123.354 c 0,90,91
 351.355 225.752 351.355 225.752 321.516 352.515 c 0,92,93
 305.624 420.029 305.624 420.029 319.641 481.735 c 0,94,95
 367.24 691.264 367.24 691.264 565.191 814.401 c 1,96,97
 541.294 816.096 541.294 816.096 529.127 814.112 c 128,-1,98
 516.96 812.128 516.96 812.128 514.546 811.917 c 0,99,100
 259.041 789.579 259.041 789.579 181.422 596.442 c 0,101,102
 139.604 492.389 139.604 492.389 168.157 359.513 c 0,103,104
 194.028 239.126 194.028 239.126 269.943 165.24 c 0,105,106
 303.722 132.363 303.722 132.363 335.035 121.598 c 128,-1,107
 366.347 110.833 366.347 110.833 378.272 86.4073 c 128,-1,108
 390.198 61.9812 390.198 61.9812 381.565 36.8679 c 128,-1,109
 372.931 11.7547 372.931 11.7547 348.507 -0.17486 c 128,-1,110
 324.083 -12.1044 324.083 -12.1044 279.003 3.39329 c 128,-1,111
 233.923 18.891 233.923 18.891 180.825 70.5678 c 0,112,113
 75.1895 173.377 75.1895 173.377 41.0591 332.2 c 0,114,115
 -16.4444 599.788 -16.4444 599.788 146.512 783.952 c 0,116,117
 266.968 920.085 266.968 920.085 500.878 941.214 c 1,118,119
 616.45 958.722 616.45 958.722 741.808 894.982 c 1,120,121
 1195.36 1043.03 1195.36 1043.03 1293.05 745.171 c 1,122,123
 1492.02 987.139 1492.02 987.139 1776.03 987 c 0,124,125
 2053.65 986.864 2053.65 986.864 2189.65 799.954 c 0,126,127
 2264.63 696.912 2264.63 696.912 2272.69 565.687 c 1,128,129
 2277.5 537.228 2277.5 537.228 2279.85 509.569 c 1,0,1
2150.56 427.489 m 1,130,131
 1989.03 527.037 1989.03 527.037 1827.98 440.764 c 0,132,133
 1785.11 417.799 1785.11 417.799 1758.41 385.128 c 1,134,135
 1719.85 317.753 1719.85 317.753 1708.05 262.209 c 128,-1,136
 1696.26 206.666 1696.26 206.666 1703.81 181.267 c 128,-1,137
 1711.37 155.869 1711.37 155.869 1737.83 137.999 c 0,138,139
 1791.01 102.08 1791.01 102.08 1893.13 124.922 c 128,-1,140
 1995.24 147.763 1995.24 147.763 2068.24 232.784 c 128,-1,141
 2141.23 317.806 2141.23 317.806 2150.56 427.489 c 1,130,131
932.774 286.937 m 0,142,143
 829.897 368.23 829.897 368.23 650.625 359.49 c 0,144,145
 605.084 357.27 605.084 357.27 575.586 356.896 c 128,-1,146
 546.089 356.522 546.089 356.522 526.624 375.5 c 128,-1,147
 507.158 394.478 507.158 394.478 506.824 420.836 c 128,-1,148
 506.49 447.194 506.49 447.194 525.462 466.029 c 128,-1,149
 544.434 484.864 544.434 484.864 570.86 486.986 c 128,-1,150
 597.286 489.108 597.286 489.108 638.736 492.347 c 0,151,152
 707.395 497.711 707.395 497.711 750.91 522.707 c 128,-1,153
 794.426 547.704 794.426 547.704 807.282 566.095 c 0,154,155
 839.751 612.539 839.751 612.539 806.06 665.535 c 128,-1,156
 772.37 718.532 772.37 718.532 727.786 751.473 c 1,157,158
 492.317 655.01 492.317 655.01 446.411 452.935 c 0,159,160
 430.725 383.883 430.725 383.883 483.057 299.43 c 0,161,162
 538.126 210.56 538.126 210.56 645.043 151.722 c 0,163,164
 755.902 90.7138 755.902 90.7138 882.773 100.164 c 1,165,166
 988.72 104.335 988.72 104.335 989.963 186.138 c 0,167,168
 990.799 241.086 990.799 241.086 932.774 286.937 c 0,142,143
EndSplineSet
EndChar

StartChar: ml_i
Encoding: 100 3335 103
Width: 2015
GlyphClass: 2
Flags: MW
LayerCount: 2
Fore
SplineSet
1106.77 -35.333 m 1,0,1
 1277.65 -38.7029 1277.65 -38.7029 1396.51 -16.3008 c 0,2,3
 1398.08 -16.0049 1398.08 -16.0049 1399.66 -15.7861 c 0,4,5
 1522.81 1.20605 1522.81 1.20605 1625.81 85.1494 c 128,-1,6
 1728.81 169.093 1728.81 169.093 1781.23 288.671 c 128,-1,7
 1833.65 408.249 1833.65 408.249 1817.33 537.267 c 128,-1,8
 1801.01 666.284 1801.01 666.284 1723.97 773.201 c 1,9,10
 1633.8 908.257 1633.8 908.257 1528.02 923.129 c 0,11,12
 1505.48 926.297 1505.48 926.297 1493.2 921.698 c 128,-1,13
 1480.91 917.099 1480.91 917.099 1479.4 916.618 c 0,14,15
 1279.09 852.556 1279.09 852.556 1158.41 542.022 c 1,16,17
 1131.74 466.681 1131.74 466.681 1115.7 397.614 c 1,18,19
 1124.57 263.066 1124.57 263.066 1125 10.1104 c 0,20,21
 1125.04 -13.8682 1125.04 -13.8682 1106.77 -35.333 c 1,0,1
1009.16 -30.5938 m 1,22,23
 1002.15 -20.9893 1002.15 -20.9893 999.021 -12.5059 c 0,24,25
 933.147 165.973 933.147 165.973 984.688 407.375 c 1,26,27
 969.107 612.071 969.107 612.071 916.479 723.718 c 0,28,29
 872.539 816.932 872.539 816.932 795.058 866.766 c 1,30,31
 736.813 907.733 736.813 907.733 667.353 914.034 c 128,-1,32
 597.893 920.334 597.893 920.334 537.294 891.326 c 0,33,34
 415.294 832.924 415.294 832.924 334.457 729.979 c 0,35,36
 252.595 625.726 252.595 625.726 254.311 499.105 c 128,-1,37
 256.027 372.484 256.027 372.484 298.979 258.893 c 128,-1,38
 341.931 145.302 341.931 145.302 427.345 76.6846 c 0,39,40
 487.998 26.981 487.998 26.981 627.961 57.8447 c 0,41,42
 652.312 63.4023 652.312 63.4023 673.384 83.5034 c 0,43,44
 717.117 125.223 717.117 125.223 709.897 181.391 c 0,45,46
 706.767 205.738 706.767 205.738 698.004 215.527 c 128,-1,47
 689.242 225.316 689.242 225.316 688.172 226.648 c 0,48,49
 651.278 272.507 651.278 272.507 595.486 300.424 c 128,-1,50
 539.693 328.341 539.693 328.341 480.497 327.528 c 128,-1,51
 421.3 326.715 421.3 326.715 390.03 302.525 c 128,-1,52
 358.761 278.336 358.761 278.336 331.799 281.779 c 128,-1,53
 304.838 285.223 304.838 285.223 288.589 306.228 c 128,-1,54
 272.339 327.228 272.339 327.228 275.778 354.193 c 128,-1,55
 279.218 381.158 279.218 381.158 300.228 397.411 c 0,56,57
 376.099 456.106 376.099 456.106 472.829 457.435 c 128,-1,58
 569.559 458.763 569.559 458.763 651.622 417.7 c 128,-1,59
 733.686 376.638 733.686 376.638 782.216 318.767 c 0,60,61
 874.167 209.118 874.167 209.118 825.676 82.707 c 0,62,63
 804.498 27.5019 804.498 27.5019 758.04 -15.3281 c 1,64,65
 840.645 -18.946 840.645 -18.946 1009.16 -30.5938 c 1,22,23
410.083 -62.208 m 1,66,67
 374.631 -47.9756 374.631 -47.9756 345.313 -24.1699 c 0,68,69
 232.663 66.7148 232.663 66.7148 179.488 207.342 c 128,-1,70
 126.313 347.969 126.313 347.969 124.48 467.016 c 128,-1,71
 122.646 586.062 122.646 586.062 152.023 665.81 c 0,72,73
 206.24 812.99 206.24 812.99 344.493 923.186 c 0,74,75
 407.252 973.209 407.252 973.209 490.645 1013.12 c 128,-1,76
 574.037 1053.03 574.037 1053.03 677.998 1043.6 c 128,-1,77
 781.959 1034.17 781.959 1034.17 867.648 974.643 c 1,78,79
 1015.84 878.142 1015.84 878.142 1072.83 672.52 c 1,80,81
 1210.96 966.266 1210.96 966.266 1438.28 1039.95 c 1,82,83
 1530.07 1073.12 1530.07 1073.12 1635.23 1027.02 c 0,84,85
 1741.2 980.568 1741.2 980.568 1830.8 847.313 c 1,86,87
 1925.97 714.34 1925.97 714.34 1946.56 551.607 c 128,-1,88
 1967.14 388.875 1967.14 388.875 1901.25 238.583 c 128,-1,89
 1835.37 88.291 1835.37 88.291 1706.42 -16.7935 c 128,-1,90
 1577.46 -121.878 1577.46 -121.878 1419.03 -144.343 c 1,91,92
 1242.11 -177.341 1242.11 -177.341 1018.21 -161.543 c 0,93,94
 745.062 -142.27 745.062 -142.27 687.762 -143.092 c 128,-1,95
 630.462 -143.915 630.462 -143.915 623.067 -145.278 c 0,96,97
 394.283 -187.468 394.283 -187.468 261.833 -262.8 c 0,98,99
 257.705 -265.148 257.705 -265.148 248.403 -268.77 c 0,100,101
 209.684 -283.843 209.684 -283.843 239.95 -324.901 c 0,102,103
 248.832 -336.951 248.832 -336.951 258.479 -340.625 c 128,-1,104
 268.127 -344.299 268.127 -344.299 272.286 -346.627 c 0,105,106
 459.817 -451.589 459.817 -451.589 647.414 -451.783 c 1,107,108
 817.448 -440.222 817.448 -440.222 976.199 -412.9 c 0,109,110
 1282.87 -360.121 1282.87 -360.121 1413.78 -345.689 c 0,111,112
 1694.31 -314.763 1694.31 -314.763 1861.55 -334.257 c 128,-1,113
 2028.8 -353.752 2028.8 -353.752 2145.06 -411.858 c 0,114,115
 2168.81 -423.73 2168.81 -423.73 2177.42 -449.515 c 128,-1,116
 2186.02 -475.299 2186.02 -475.299 2174.14 -499.061 c 128,-1,117
 2162.26 -522.82 2162.26 -522.82 2136.48 -531.418 c 128,-1,118
 2110.69 -540.016 2110.69 -540.016 2086.94 -528.142 c 0,119,120
 1880.6 -425.013 1880.6 -425.013 1464.85 -470.847 c 0,121,122
 1300.99 -488.912 1300.99 -488.912 1136.73 -517.183 c 0,123,124
 763.256 -581.461 763.256 -581.461 649.825 -581.78 c 0,125,126
 429.382 -582.398 429.382 -582.398 212.616 -462.197 c 1,127,128
 165.017 -442.342 165.017 -442.342 134.814 -401.368 c 0,129,130
 66.7536 -309.034 66.7536 -309.034 121.806 -215.399 c 0,131,132
 148.371 -170.214 148.371 -170.214 201.419 -147.62 c 1,133,134
 289.755 -98.209 289.755 -98.209 410.083 -62.208 c 1,66,67
EndSplineSet
EndChar

StartChar: ml_u
Encoding: 102 3337 105
Width: 1211
GlyphClass: 2
Flags: MW
LayerCount: 2
Fore
SplineSet
319.653 627.192 m 128,-1,1
 323.409 653.481 323.409 653.481 345.153 669.792 c 128,-1,2
 366.897 686.103 366.897 686.103 393.192 682.347 c 0,3,4
 588.557 654.438 588.557 654.438 620.284 529.118 c 0,5,6
 644.302 434.248 644.302 434.248 566.838 350.996 c 0,7,8
 449.702 225.107 449.702 225.107 300.202 274.524 c 0,9,10
 241.591 293.898 241.591 293.898 182.108 377.248 c 128,-1,11
 122.625 460.599 122.625 460.599 128.151 561.115 c 128,-1,12
 133.677 661.631 133.677 661.631 216.203 764.529 c 128,-1,13
 298.728 867.427 298.728 867.427 445.225 936.206 c 128,-1,14
 591.723 1004.99 591.723 1004.99 728.705 986.414 c 0,15,16
 1011.97 948.137 1011.97 948.137 1120.73 760.612 c 0,17,18
 1156.53 698.877 1156.53 698.877 1162.38 642.328 c 128,-1,19
 1168.23 585.779 1168.23 585.779 1168.85 574.896 c 0,20,21
 1189.73 377.765 1189.73 377.765 1045.52 271.647 c 0,22,23
 922.914 181.422 922.914 181.422 727.463 146.312 c 128,-1,24
 532.013 111.203 532.013 111.203 424.821 98.1308 c 0,25,26
 242.657 75.9154 242.657 75.9154 147.328 28.7426 c 0,27,28
 113.945 12.2232 113.945 12.2232 106.656 -4.84507 c 128,-1,29
 99.3668 -21.9134 99.3668 -21.9134 108.688 -53.8564 c 128,-1,30
 118.01 -85.7995 118.01 -85.7995 129.938 -102.31 c 128,-1,31
 141.866 -118.82 141.866 -118.82 163.756 -130.157 c 0,32,33
 199.443 -148.64 199.443 -148.64 297.368 -133.111 c 128,-1,34
 395.294 -117.582 395.294 -117.582 494.823 -88.5932 c 0,35,36
 820.78 6.34424 820.78 6.34424 958.905 11 c 1,37,38
 1033.1 11 1033.1 11 1123.89 -14.9391 c 128,-1,39
 1214.68 -40.8782 1214.68 -40.8782 1271.24 -66.9826 c 2,40,-1
 1323.24 -90.9826 l 2,41,42
 1347.35 -102.111 1347.35 -102.111 1356.75 -127.615 c 128,-1,43
 1366.15 -153.118 1366.15 -153.118 1355.02 -177.239 c 128,-1,44
 1343.89 -201.356 1343.89 -201.356 1318.38 -210.751 c 128,-1,45
 1292.87 -220.147 1292.87 -220.147 1268.76 -209.017 c 2,46,-1
 1216.76 -185.017 l 2,47,48
 1169.31 -163.118 1169.31 -163.118 1092.58 -141.195 c 128,-1,49
 1015.85 -119.273 1015.85 -119.273 961.085 -119.002 c 1,50,51
 839.497 -123.601 839.497 -123.601 531.177 -213.407 c 0,52,53
 424.714 -244.417 424.714 -244.417 310.542 -264.297 c 128,-1,54
 196.37 -284.176 196.37 -284.176 106.371 -242.759 c 128,-1,55
 16.373 -201.341 16.373 -201.341 -14.3362 -96.4182 c 0,56,57
 -37.026 -20.3401 -37.026 -20.3401 -9.14291 44.9087 c 128,-1,58
 18.7402 110.158 18.7402 110.158 81.2426 141.086 c 0,59,60
 204.896 202.275 204.896 202.275 358.786 221.041 c 128,-1,61
 512.677 239.807 512.677 239.807 691.438 271.922 c 128,-1,62
 870.2 304.036 870.2 304.036 968.476 376.353 c 0,63,64
 1053.19 438.695 1053.19 438.695 1039.4 562.822 c 0,65,66
 1039.12 565.329 1039.12 565.329 1038.69 572.016 c 0,67,68
 1033.64 651.645 1033.64 651.645 1008.27 695.388 c 0,69,70
 931.457 827.835 931.457 827.835 711.295 857.586 c 0,71,72
 612.258 871.012 612.258 871.012 496.766 816.79 c 128,-1,73
 381.274 762.567 381.274 762.567 319.579 685.642 c 128,-1,74
 257.885 608.717 257.885 608.717 254.911 554.479 c 128,-1,75
 251.938 500.241 251.938 500.241 287.174 452.171 c 128,-1,76
 322.41 404.101 322.41 404.101 344.888 396.671 c 0,77,78
 411.333 374.708 411.333 374.708 468.276 435.909 c 0,79,80
 554.01 528.054 554.01 528.054 374.808 553.653 c 0,81,82
 348.513 557.41 348.513 557.41 332.205 579.157 c 128,-1,0
 315.898 600.904 315.898 600.904 319.653 627.192 c 128,-1,1
EndSplineSet
EndChar

StartChar: ml_r
Encoding: 104 3339 107
Width: 1454
GlyphClass: 2
Flags: MW
LayerCount: 2
Fore
SplineSet
948 867 m 0,0,1
 1028 943 1028 943 1159 943 c 256,2,3
 1290 943 1290 943 1374.5 833.5 c 128,-1,4
 1459 724 1459 724 1459 578 c 0,5,6
 1459 438 1459 438 1389 333 c 128,-1,7
 1319 228 1319 228 1192 174 c 1,8,9
 1426 133 1426 133 1426 -73 c 0,10,11
 1426 -246 1426 -246 1235.5 -318.5 c 128,-1,12
 1045 -391 1045 -391 797 -391 c 0,13,14
 553 -391 553 -391 369 -320 c 128,-1,15
 185 -249 185 -249 185 -73 c 0,16,17
 185 77 185 77 413 174 c 1,18,19
 285 214 285 214 214 325.5 c 128,-1,20
 143 437 143 437 143 580 c 0,21,22
 143 730 143 730 224 836.5 c 128,-1,23
 305 943 305 943 460 943 c 0,24,25
 575 943 575 943 651 866.5 c 128,-1,26
 727 790 727 790 727 672 c 256,27,28
 727 554 727 554 655 476 c 128,-1,29
 583 398 583 398 472 398 c 0,30,31
 406 398 406 398 347.5 437 c 128,-1,32
 289 476 289 476 268 541 c 1,33,34
 268 234 268 234 800 234 c 256,35,36
 1332 234 1332 234 1333 541 c 1,37,38
 1316 474 1316 474 1255.5 436 c 128,-1,39
 1195 398 1195 398 1126 398 c 0,40,41
 1018 398 1018 398 942.5 478 c 128,-1,42
 867 558 867 558 867 674 c 0,43,44
 868 790 868 790 948 867 c 0,0,1
1288 673 m 256,45,46
 1288 734 1288 734 1249 778.5 c 128,-1,47
 1210 823 1210 823 1142 823 c 256,48,49
 1074 823 1074 823 1033.5 778.5 c 128,-1,50
 993 734 993 734 993 674 c 256,51,52
 993 614 993 614 1035 567 c 0,53,54
 1078 520 1078 520 1144 520 c 256,55,56
 1210 520 1210 520 1249 566 c 128,-1,57
 1288 612 1288 612 1288 673 c 256,45,46
601 673 m 256,58,59
 601 734 601 734 562.5 778.5 c 128,-1,60
 524 823 524 823 456 823 c 256,61,62
 388 823 388 823 346.5 778.5 c 128,-1,63
 305 734 305 734 305 674 c 256,64,65
 305 614 305 614 347 567 c 128,-1,66
 389 520 389 520 455 520 c 256,67,68
 521 520 521 520 561 566 c 128,-1,69
 601 612 601 612 601 673 c 256,58,59
1283 -73 m 0,70,71
 1283 103 1283 103 804 103 c 256,72,73
 325 103 325 103 325 -73 c 0,74,75
 325 -258 325 -258 797 -258 c 0,76,77
 1283 -258 1283 -258 1283 -73 c 0,70,71
EndSplineSet
Validated: 1
EndChar

StartChar: ml_l
Encoding: 105 3340 108
Width: 1784
GlyphClass: 2
Flags: MW
LayerCount: 2
Fore
SplineSet
1785 390 m 0,0,1
 1785 218 1785 218 1699 98.5 c 128,-1,2
 1613 -21 1613 -21 1443 -21 c 0,3,4
 1308 -21 1308 -21 1224 57.5 c 128,-1,5
 1140 136 1140 136 1140 268 c 256,6,7
 1140 400 1140 400 1221.5 490.5 c 128,-1,8
 1303 581 1303 581 1426 581 c 0,9,10
 1497 581 1497 581 1566 548 c 128,-1,11
 1635 515 1635 515 1656 456 c 1,12,13
 1647 604 1647 604 1543.5 713.5 c 128,-1,14
 1440 823 1440 823 1283 823 c 0,15,16
 1178 823 1178 823 1105 759 c 128,-1,17
 1032 695 1032 695 1032 590 c 2,18,-1
 1032 -4 l 1,19,-1
 898 -4 l 1,20,-1
 898 590 l 2,21,22
 898 695 898 695 826 759 c 128,-1,23
 754 823 754 823 649 823 c 0,24,25
 492 823 492 823 387.5 713.5 c 128,-1,26
 283 604 283 604 273 456 c 1,27,28
 295 515 295 515 364 548 c 128,-1,29
 433 581 433 581 504 581 c 0,30,31
 627 581 627 581 708.5 490.5 c 128,-1,32
 790 400 790 400 790 268 c 256,33,34
 790 136 790 136 706 57.5 c 128,-1,35
 622 -21 622 -21 487 -21 c 0,36,37
 320 -21 320 -21 232.5 96.5 c 128,-1,38
 145 214 145 214 145 390 c 0,39,40
 145 614 145 614 279 778.5 c 128,-1,41
 413 943 413 943 635 943 c 256,42,43
 857 943 857 943 964 804 c 1,44,45
 1074 943 1074 943 1295 943 c 0,46,47
 1517 943 1517 943 1651 778.5 c 128,-1,48
 1785 614 1785 614 1785 390 c 0,0,1
1623 268 m 0,49,50
 1623 340 1623 340 1570 392 c 128,-1,51
 1517 444 1517 444 1447 444 c 0,52,53
 1379 444 1379 444 1330 391 c 128,-1,54
 1281 338 1281 338 1281 266 c 0,55,56
 1281 195 1281 195 1329 147 c 128,-1,57
 1377 99 1377 99 1447 99 c 0,58,59
 1519 99 1519 99 1571 148 c 128,-1,60
 1623 197 1623 197 1623 268 c 0,49,50
649 266 m 0,61,62
 649 338 649 338 600 391 c 128,-1,63
 551 444 551 444 483 444 c 0,64,65
 413 444 413 444 360 392 c 128,-1,66
 307 340 307 340 307 268 c 0,67,68
 307 197 307 197 359 148 c 128,-1,69
 411 99 411 99 483 99 c 0,70,71
 553 99 553 99 601 147 c 128,-1,72
 649 195 649 195 649 266 c 0,61,62
EndSplineSet
EndChar

StartChar: ml_e
Encoding: 106 3342 109
Width: 2151
GlyphClass: 2
Flags: MW
LayerCount: 2
Fore
SplineSet
296.221 25.3779 m 128,-1,1
 282.893 2.40881 282.893 2.40881 256.624 -4.57101 c 0,2,3
 203.824 -18.6006 203.824 -18.6006 112.485 72.4449 c 0,4,5
 3.30984 181.27 3.30984 181.27 60.6996 318.117 c 0,6,7
 100.847 413.85 100.847 413.85 193.831 479.972 c 0,8,9
 327.365 574.93 327.365 574.93 448.375 510.966 c 0,10,11
 496.516 485.52 496.516 485.52 532.248 432.806 c 1,12,13
 653.836 284.842 653.836 284.842 662.688 194.863 c 0,14,15
 667.702 143.89 667.702 143.89 642.978 99 c 1,16,-1
 962.498 99 l 1,17,18
 943.75 516.57 943.75 516.57 1224.44 824.766 c 0,19,20
 1310.36 919.105 1310.36 919.105 1424.71 968.613 c 128,-1,21
 1539.06 1018.12 1539.06 1018.12 1640.82 987.405 c 0,22,23
 1832.34 929.595 1832.34 929.595 1955.52 750.886 c 0,24,25
 2072.72 580.843 2072.72 580.843 2075 353.657 c 0,26,27
 2077.38 115.907 2077.38 115.907 1925.07 -99.5265 c 0,28,29
 1909.74 -121.21 1909.74 -121.21 1882.95 -125.809 c 128,-1,30
 1856.16 -130.407 1856.16 -130.407 1834.47 -115.073 c 128,-1,31
 1812.79 -99.7382 1812.79 -99.7382 1808.19 -72.9458 c 128,-1,32
 1803.6 -46.1533 1803.6 -46.1533 1818.93 -24.4735 c 0,33,34
 2004.81 238.439 2004.81 238.439 1918.7 527.444 c 0,35,36
 1870.33 689.817 1870.33 689.817 1741.16 792.03 c 0,37,38
 1600.73 903.161 1600.73 903.161 1471.83 847.351 c 0,39,40
 1318.43 780.936 1318.43 780.936 1194.02 561.899 c 0,41,42
 1140.11 466.975 1140.11 466.975 1120.27 383.479 c 0,43,44
 1085.59 237.475 1085.59 237.475 1092.65 99 c 1,45,-1
 1598.8 99 l 1,46,47
 1593.44 127.364 1593.44 127.364 1574.39 236.869 c 128,-1,48
 1555.34 346.374 1555.34 346.374 1554.66 493.333 c 128,-1,49
 1553.98 640.293 1553.98 640.293 1567.61 738.905 c 0,50,51
 1571.25 765.21 1571.25 765.21 1592.92 781.618 c 128,-1,52
 1614.59 798.027 1614.59 798.027 1640.9 794.387 c 128,-1,53
 1667.22 790.748 1667.22 790.748 1683.62 769.075 c 128,-1,54
 1700.02 747.402 1700.02 747.402 1696.39 721.095 c 0,55,56
 1663.49 483.184 1663.49 483.184 1710.16 214.923 c 128,-1,57
 1756.83 -53.339 1756.83 -53.339 1739.04 -132.322 c 0,58,59
 1706.25 -277.902 1706.25 -277.902 1572.43 -366.666 c 0,60,61
 1459.4 -441.641 1459.4 -441.641 1342.52 -438.983 c 0,62,63
 1338.55 -438.893 1338.55 -438.893 1334.62 -438.32 c 0,64,65
 1219.9 -421.589 1219.9 -421.589 1138.19 -351.202 c 128,-1,66
 1056.47 -280.815 1056.47 -280.815 1023.28 -197.088 c 128,-1,67
 990.095 -113.361 990.095 -113.361 976.07 -31 c 1,68,-1
 480 -31 l 2,69,70
 460.32 -31 460.32 -31 441.085 -18.1771 c 128,-1,71
 421.85 -5.35412 421.85 -5.35412 416.519 21.3038 c 0,72,73
 407.073 68.534 407.073 68.534 474.365 118.271 c 0,74,75
 498.783 136.32 498.783 136.32 511.686 144.809 c 0,76,77
 535.446 160.441 535.446 160.441 533.528 179.939 c 0,78,79
 528.258 233.521 528.258 233.521 429.887 352.603 c 0,80,81
 427.648 355.314 427.648 355.314 417.766 370.319 c 128,-1,82
 407.885 385.325 407.885 385.325 388.1 395.783 c 0,83,84
 337.426 422.568 337.426 422.568 269.169 374.028 c 0,85,86
 205.411 328.688 205.411 328.688 184.177 283.428 c 128,-1,87
 162.942 238.168 162.942 238.168 170.126 214.775 c 0,88,89
 185.477 164.787 185.477 164.787 272.622 114.221 c 0,90,91
 295.596 100.89 295.596 100.89 302.573 74.6169 c 128,-1,0
 309.55 48.3436 309.55 48.3436 296.221 25.3779 c 128,-1,1
1108.28 -31 m 1,92,93
 1119.64 -87.3824 1119.64 -87.3824 1142.58 -145.281 c 128,-1,94
 1165.53 -203.18 1165.53 -203.18 1220.07 -250.158 c 128,-1,95
 1274.61 -297.135 1274.61 -297.135 1349.34 -309.064 c 1,96,97
 1424.06 -309.083 1424.06 -309.083 1483.08 -269.936 c 128,-1,98
 1542.09 -230.789 1542.09 -230.789 1571.42 -192.747 c 0,99,100
 1619.81 -129.97 1619.81 -129.97 1621.95 -31 c 1,101,-1
 1108.28 -31 l 1,92,93
EndSplineSet
EndChar

StartChar: ml_ee
Encoding: 107 3343 110
Width: 2076
GlyphClass: 2
Flags: MW
LayerCount: 2
Fore
SplineSet
296.221 25.3779 m 128,-1,1
 282.893 2.40881 282.893 2.40881 256.624 -4.57101 c 0,2,3
 203.824 -18.6006 203.824 -18.6006 112.485 72.4449 c 0,4,5
 3.30984 181.27 3.30984 181.27 60.6996 318.117 c 0,6,7
 100.847 413.85 100.847 413.85 193.831 479.972 c 0,8,9
 327.365 574.93 327.365 574.93 448.375 510.966 c 0,10,11
 496.516 485.52 496.516 485.52 532.248 432.806 c 1,12,13
 653.836 284.842 653.836 284.842 662.688 194.863 c 0,14,15
 667.702 143.89 667.702 143.89 642.978 99 c 1,16,-1
 962.498 99 l 1,17,18
 945.751 472.013 945.751 472.013 1161.71 749.43 c 0,19,20
 1304.56 932.932 1304.56 932.932 1463.25 980.737 c 0,21,22
 1727.27 1060.27 1727.27 1060.27 2001.68 750.067 c 0,23,24
 2116.91 619.818 2116.91 619.818 2100.1 469.761 c 0,25,26
 2088.67 367.745 2088.67 367.745 1987.71 279.271 c 1,27,28
 2160.16 195.603 2160.16 195.603 2128.15 -0.497978 c 0,29,30
 2102.87 -156.769 2102.87 -156.769 2017.16 -224.111 c 0,31,32
 1967.97 -262.757 1967.97 -262.757 1882.82 -295.983 c 1,33,34
 1678.5 -384.808 1678.5 -384.808 1762.28 -217.386 c 0,35,36
 1773.89 -194.171 1773.89 -194.171 1840.26 -173.101 c 0,37,38
 1975.45 -130.184 1975.45 -130.184 1998.69 12.8773 c 0,39,40
 2014.74 111.66 2014.74 111.66 1956.67 147.699 c 128,-1,41
 1898.61 183.739 1898.61 183.739 1846.46 184.032 c 128,-1,42
 1794.3 184.326 1794.3 184.326 1778.45 202.903 c 0,43,44
 1731.28 258.174 1731.28 258.174 1782.51 300.148 c 0,45,46
 1790.53 306.91 1790.53 306.91 1799.85 310.593 c 0,47,48
 1883.94 352.957 1883.94 352.957 1925.32 399.804 c 128,-1,49
 1966.69 446.65 1966.69 446.65 1971.21 486.955 c 0,50,51
 1985.43 613.873 1985.43 613.873 1807.92 754.599 c 128,-1,52
 1630.42 895.325 1630.42 895.325 1506.06 857.863 c 128,-1,53
 1381.71 820.402 1381.71 820.402 1267.89 674.201 c 128,-1,54
 1154.08 528 1154.08 528 1119.83 382.79 c 128,-1,55
 1085.58 237.58 1085.58 237.58 1092.65 99 c 1,56,-1
 1598.8 99 l 1,57,58
 1529.7 464.705 1529.7 464.705 1567.61 738.905 c 0,59,60
 1571.25 765.21 1571.25 765.21 1592.92 781.618 c 128,-1,61
 1614.59 798.027 1614.59 798.027 1640.9 794.387 c 128,-1,62
 1667.22 790.748 1667.22 790.748 1683.62 769.075 c 128,-1,63
 1700.02 747.402 1700.02 747.402 1696.39 721.095 c 0,64,65
 1658.24 445.202 1658.24 445.202 1731.6 97.5301 c 1,66,67
 1741.37 85.166 1741.37 85.166 1744.12 68.6859 c 0,68,69
 1761.21 -33.8709 1761.21 -33.8709 1741.23 -122.587 c 0,70,71
 1706.25 -277.902 1706.25 -277.902 1582.83 -359.772 c 128,-1,72
 1459.4 -441.641 1459.4 -441.641 1342.52 -438.983 c 0,73,74
 1338.55 -438.893 1338.55 -438.893 1334.62 -438.32 c 0,75,76
 1219.9 -421.589 1219.9 -421.589 1138.19 -351.202 c 128,-1,77
 1056.47 -280.815 1056.47 -280.815 1023.28 -197.088 c 128,-1,78
 990.095 -113.361 990.095 -113.361 976.07 -31 c 1,79,-1
 480 -31 l 2,80,81
 460.32 -31 460.32 -31 441.085 -18.1771 c 128,-1,82
 421.85 -5.35412 421.85 -5.35412 416.519 21.3038 c 0,83,84
 405.757 75.1171 405.757 75.1171 511.686 144.809 c 0,85,86
 535.446 160.441 535.446 160.441 533.528 179.939 c 0,87,88
 528.258 233.521 528.258 233.521 429.887 352.603 c 0,89,90
 427.648 355.314 427.648 355.314 417.766 370.319 c 128,-1,91
 407.885 385.325 407.885 385.325 388.1 395.783 c 0,92,93
 337.426 422.568 337.426 422.568 271.419 375.628 c 128,-1,94
 205.411 328.688 205.411 328.688 184.177 283.428 c 128,-1,95
 162.942 238.168 162.942 238.168 170.126 214.775 c 0,96,97
 185.477 164.787 185.477 164.787 272.622 114.221 c 0,98,99
 295.596 100.89 295.596 100.89 302.573 74.6169 c 128,-1,0
 309.55 48.3436 309.55 48.3436 296.221 25.3779 c 128,-1,1
1108.28 -31 m 1,100,101
 1119.64 -87.3824 1119.64 -87.3824 1142.58 -145.281 c 128,-1,102
 1165.53 -203.18 1165.53 -203.18 1220.07 -250.158 c 128,-1,103
 1274.61 -297.135 1274.61 -297.135 1349.34 -309.064 c 1,104,105
 1424.06 -309.083 1424.06 -309.083 1483.08 -269.936 c 128,-1,106
 1542.09 -230.789 1542.09 -230.789 1580.95 -180.38 c 128,-1,107
 1619.81 -129.97 1619.81 -129.97 1621.95 -31 c 1,108,-1
 1108.28 -31 l 1,100,101
EndSplineSet
EndChar

StartChar: ml_o
Encoding: 109 3346 112
Width: 1447
GlyphClass: 2
Flags: MW
LayerCount: 2
Fore
SplineSet
215.892 405.659 m 132,-1,1
 197.758 425.056 197.758 425.056 198.673 452.225 c 132,-1,2
 199.588 479.393 199.588 479.393 218.992 497.53 c 4,3,4
 374.756 643.125 374.756 643.125 541.21 559.109 c 5,5,6
 646.503 501.959 646.503 501.959 703.429 367.631 c 132,-1,7
 760.355 233.303 760.355 233.303 731.282 122.354 c 4,8,9
 714.178 57.0791 714.178 57.0791 665.708 18.1172 c 4,10,11
 597.263 -36.9019 597.263 -36.9019 491.74 -17.6973 c 4,12,13
 186.39 37.874 186.39 37.874 84.1758 230.858 c 4,14,15
 -0.882812 391.453 -0.882812 391.453 75.9707 573.022 c 132,-1,16
 152.824 754.592 152.824 754.592 323.675 875.163 c 4,17,18
 533.015 1022.9 533.015 1022.9 789.869 1023.52 c 5,19,20
 1121.76 1038.16 1121.76 1038.16 1256.87 865.374 c 4,21,22
 1349.45 746.961 1349.45 746.961 1285.78 616.482 c 4,23,24
 1242.54 527.903 1242.54 527.903 1142.88 471.617 c 5,25,26
 1228.35 443.928 1228.35 443.928 1288.39 401.665 c 4,27,28
 1394.65 326.872 1394.65 326.872 1419.59 244.559 c 4,29,30
 1421.41 238.537 1421.41 238.537 1422.05 232.278 c 4,31,32
 1429.25 161.313 1429.25 161.313 1380.39 108.763 c 4,33,34
 1298.17 20.3177 1298.17 20.3177 1118.75 -5.95703 c 4,35,36
 947.293 -31.0652 947.293 -31.0652 811.857 32.2314 c 4,37,38
 787.8 43.4746 787.8 43.4746 778.523 69.0234 c 132,-1,39
 769.247 94.5713 769.247 94.5713 780.492 118.639 c 132,-1,40
 791.738 142.702 791.738 142.702 817.291 151.976 c 132,-1,41
 842.844 161.249 842.844 161.249 877.964 144.834 c 132,-1,42
 913.085 128.419 913.085 128.419 976.385 121.135 c 4,43,44
 1096.24 107.344 1096.24 107.344 1213.52 150.998 c 4,45,46
 1257.31 167.296 1257.31 167.296 1274.4 185.678 c 132,-1,47
 1291.49 204.06 1291.49 204.06 1292.69 213.699 c 5,48,49
 1263.15 283.012 1263.15 283.012 1134.83 336.232 c 4,50,51
 1017.13 385.045 1017.13 385.045 839.378 385.045 c 4,52,53
 814.846 385.045 814.846 385.045 796.099 401.859 c 132,-1,54
 777.352 418.674 777.352 418.674 774.642 444.12 c 132,-1,55
 771.932 469.566 771.932 469.566 789.012 490.717 c 132,-1,56
 806.092 511.867 806.092 511.867 832.496 514.679 c 4,57,58
 1105.63 543.767 1105.63 543.767 1168.94 673.494 c 4,59,60
 1196.97 730.925 1196.97 730.925 1154.46 785.299 c 4,61,62
 1098.67 856.647 1098.67 856.647 965.011 882.824 c 4,63,64
 887.935 897.92 887.935 897.92 840.408 895.722 c 132,-1,65
 792.881 893.523 792.881 893.523 791.378 893.523 c 4,66,67
 575.156 893.523 575.156 893.523 398.631 768.947 c 4,68,69
 258.083 669.762 258.083 669.762 200.533 533.796 c 132,-1,70
 142.923 397.688 142.923 397.688 199.057 291.705 c 4,71,72
 271.74 154.476 271.74 154.476 515.016 110.202 c 4,73,74
 566.037 100.917 566.037 100.917 582.023 113.762 c 132,-1,75
 598.008 126.606 598.008 126.606 605.528 155.308 c 4,76,77
 623.367 223.384 623.367 223.384 583.955 316.384 c 132,-1,78
 544.543 409.384 544.543 409.384 479.193 444.855 c 5,79,80
 403.809 492.334 403.809 492.334 307.764 402.559 c 4,81,82
 288.355 384.421 288.355 384.421 261.19 385.34 c 132,-1,0
 234.025 386.259 234.025 386.259 215.892 405.659 c 132,-1,1
EndSplineSet
EndChar

StartChar: k1
Encoding: 112 3349 115
Width: 1526
GlyphClass: 2
Flags: MW
AnchorPoint: "chandrakkala" 1352.34 1.40039 basechar 0
AnchorPoint: "dotreph" 759.838 1126 basechar 0
LayerCount: 2
Fore
SplineSet
406.633 603.521 m 1,0,1
 438.342 747.324 438.342 747.324 487.638 846.444 c 0,2,3
 541.724 955.194 541.724 955.194 607.302 999.76 c 0,4,5
 673.456 1044.72 673.456 1044.72 745.134 1049.36 c 0,6,7
 824.507 1054.51 824.507 1054.51 891.767 999.996 c 0,8,9
 947.685 954.675 947.685 954.675 989.431 887.993 c 0,10,11
 1031.62 820.604 1031.62 820.604 1051.49 724.682 c 0,12,13
 1063.51 666.668 1063.51 666.668 1064.73 606.209 c 1,14,15
 1080.92 604.774 1080.92 604.774 1095.73 603.078 c 0,16,17
 1189.67 592.328 1189.67 592.328 1255.57 560.55 c 0,18,19
 1325.64 526.763 1325.64 526.763 1363.59 476.83 c 0,20,21
 1399.75 429.255 1399.75 429.255 1415.57 371.045 c 128,-1,22
 1431.36 312.922 1431.36 312.922 1424.4 253.445 c 0,23,24
 1418.07 199.384 1418.07 199.384 1399.73 146.646 c 0,25,26
 1381.22 93.417 1381.22 93.417 1353.09 49.4619 c 0,27,28
 1287.08 -53.6768 1287.08 -53.6768 1207.2 -76.499 c 0,29,30
 1181.66 -83.7949 1181.66 -83.7949 1157.9 -70.5957 c 128,-1,31
 1134.14 -57.3965 1134.14 -57.3965 1126.84 -31.8564 c 128,-1,32
 1119.54 -6.31836 1119.54 -6.31836 1132.75 17.4434 c 128,-1,33
 1145.95 41.2041 1145.95 41.2041 1171.48 48.499 c 0,34,35
 1204.09 57.8145 1204.09 57.8145 1243.59 119.538 c 0,36,37
 1263.47 150.591 1263.47 150.591 1276.95 189.354 c 0,38,39
 1290.61 228.637 1290.61 228.637 1295.28 268.555 c 0,40,41
 1299.32 303.077 1299.32 303.077 1290.11 336.955 c 128,-1,42
 1280.93 370.743 1280.93 370.743 1260.09 398.17 c 0,43,44
 1241.04 423.233 1241.04 423.233 1199.11 443.45 c 0,45,46
 1153.02 465.674 1153.02 465.674 1080.95 473.922 c 0,47,48
 1069.34 475.25 1069.34 475.25 1056.7 476.406 c 1,49,50
 1048.29 396.568 1048.29 396.568 1038.15 332.875 c 128,-1,51
 1028.01 269.181 1028.01 269.181 1012.91 206.104 c 128,-1,52
 997.812 143.027 997.812 143.027 977.267 97.5801 c 128,-1,53
 956.721 52.1328 956.721 52.1328 929.885 16.8447 c 128,-1,54
 903.049 -18.4434 903.049 -18.4434 866.891 -35.1533 c 128,-1,55
 830.732 -51.8633 830.732 -51.8633 786.793 -49.4102 c 0,56,57
 725.728 -46.002 725.728 -46.002 671.748 -4.32031 c 128,-1,58
 617.769 37.3613 617.769 37.3613 562.336 112.198 c 1,59,60
 548.163 55.1904 548.163 55.1904 524.283 10.0869 c 0,61,62
 517.966 -1.84766 517.966 -1.84766 512.695 -9.85352 c 128,-1,63
 507.428 -17.8594 507.428 -17.8594 497.767 -28.8867 c 128,-1,64
 488.105 -39.9131 488.105 -39.9131 474.612 -46.9707 c 128,-1,65
 461.121 -54.0283 461.121 -54.0283 444.475 -56.6289 c 0,66,67
 427.488 -59.2832 427.488 -59.2832 409.341 -54.7168 c 1,68,69
 284.389 -48.7998 284.389 -48.7998 195.479 74.625 c 0,70,71
 110.727 192.277 110.727 192.277 101.049 332.654 c 0,72,73
 90.1387 490.916 90.1387 490.916 192.75 563.759 c 0,74,75
 247.714 602.777 247.714 602.777 344.822 602.902 c 0,76,77
 369.887 602.935 369.887 602.935 406.633 603.521 c 1,0,1
435.746 322.482 m 0,78,79
 424.86 346.804 424.86 346.804 434.522 372.367 c 128,-1,80
 444.183 397.931 444.183 397.931 468.408 408.749 c 128,-1,81
 492.64 419.613 492.64 419.613 517.955 410.065 c 128,-1,82
 543.271 400.517 543.271 400.517 554.08 376.312 c 0,83,84
 565.893 349.861 565.893 349.861 597.233 296.714 c 0,85,86
 602.615 287.592 602.615 287.592 608.463 277.865 c 0,87,88
 668.365 178.225 668.365 178.225 718.752 130.001 c 128,-1,89
 769.138 81.7773 769.138 81.7773 794.039 80.3877 c 0,90,91
 801.706 79.959 801.706 79.959 812.777 89.3066 c 128,-1,92
 823.85 98.6553 823.85 98.6553 839.788 126.512 c 128,-1,93
 855.727 154.369 855.727 154.369 870.783 196.792 c 128,-1,94
 885.842 239.214 885.842 239.214 901.16 313.925 c 128,-1,95
 916.479 388.635 916.479 388.635 926.631 482.7 c 1,96,97
 906.649 483 906.649 483 885.838 483 c 0,98,99
 767.351 483 767.351 483 595.721 478.027 c 0,100,101
 524.562 475.966 524.562 475.966 469.65 474.731 c 0,102,103
 390.674 472.961 390.674 472.961 344.989 472.902 c 0,104,105
 289.238 472.831 289.238 472.831 268.004 457.755 c 0,106,107
 224.846 427.116 224.846 427.116 230.74 341.595 c 0,108,109
 237.868 238.191 237.868 238.191 300.96 150.609 c 0,110,111
 351.644 80.251 351.644 80.251 411.696 75.377 c 1,112,113
 445.624 142.812 445.624 142.812 451.239 253.262 c 0,114,115
 452.016 268.51 452.016 268.51 452.247 284.826 c 1,116,117
 442.977 306.294 442.977 306.294 435.746 322.482 c 0,78,79
540.764 606.54 m 1,118,119
 565.817 607.215 565.817 607.215 591.955 607.973 c 0,120,121
 765.285 613 765.285 613 885.838 613 c 0,122,123
 910.689 613 910.689 613 934.502 612.59 c 1,124,125
 932.883 656.34 932.883 656.34 924.188 698.318 c 0,126,127
 909.053 771.395 909.053 771.395 879.244 819.007 c 0,128,129
 848.994 867.325 848.994 867.325 809.908 899.004 c 0,130,131
 782.164 921.492 782.164 921.492 753.542 919.636 c 0,132,133
 717.223 917.281 717.223 917.281 680.374 892.24 c 0,134,135
 642.959 866.812 642.959 866.812 604.038 788.556 c 0,136,137
 567.025 714.135 567.025 714.135 540.764 606.54 c 1,118,119
EndSplineSet
EndChar

StartChar: k2
Encoding: 113 3350 116
Width: 1697
GlyphClass: 2
Flags: MW
AnchorPoint: "chandrakkala" 1532 0 basechar 0
AnchorPoint: "dotreph" 874.5 1082 basechar 0
LayerCount: 2
Fore
SplineSet
1603.33 984.058 m 128,-1,1
 1628.69 976.16 1628.69 976.16 1641.32 952.092 c 128,-1,2
 1653.96 928.025 1653.96 928.025 1640.23 883.95 c 128,-1,3
 1626.49 839.875 1626.49 839.875 1619.67 748.857 c 0,4,5
 1610.64 628.233 1610.64 628.233 1625.03 460.666 c 128,-1,6
 1639.42 293.098 1639.42 293.098 1648.79 224.369 c 128,-1,7
 1658.15 155.64 1658.15 155.64 1658.41 127.967 c 128,-1,8
 1658.68 100.293 1658.68 100.293 1660.59 86.712 c 128,-1,9
 1662.51 73.1306 1662.51 73.1306 1661.72 61.7423 c 128,-1,10
 1660.93 50.3541 1660.93 50.3541 1656.98 35.0218 c 0,11,12
 1641.83 -23.8285 1641.83 -23.8285 1499.56 -25.5705 c 0,13,14
 1467.84 -25.9588 1467.84 -25.9588 1426.37 -25.8129 c 128,-1,15
 1384.89 -25.6669 1384.89 -25.6669 1276.34 -25.6669 c 128,-1,16
 1167.79 -25.6669 1167.79 -25.6669 979.857 -20.9132 c 2,17,-1
 792.786 -16.1804 l 2,18,19
 766.241 -15.5088 766.241 -15.5088 747.51 4.19435 c 128,-1,20
 728.779 23.8975 728.779 23.8975 729.357 46.7554 c 0,21,22
 730.52 92.7418 730.52 92.7418 769.633 108.883 c 0,23,24
 922.378 171.92 922.378 171.92 1012.06 307.95 c 0,25,26
 1095.52 434.547 1095.52 434.547 1089.92 570.656 c 0,27,28
 1084.75 696.284 1084.75 696.284 977.305 779.081 c 0,29,30
 857.79 871.18 857.79 871.18 612.368 857.107 c 0,31,32
 513.315 851.426 513.315 851.426 394.111 743.237 c 128,-1,33
 274.907 635.047 274.907 635.047 215.746 489.01 c 128,-1,34
 156.586 342.972 156.586 342.972 213.715 252.29 c 128,-1,35
 270.845 161.609 270.845 161.609 433.638 134.197 c 0,36,37
 463.95 129.436 463.95 129.436 485.588 166.624 c 0,38,39
 528.318 240.058 528.318 240.058 527.251 285.44 c 128,-1,40
 526.184 330.822 526.184 330.822 517.939 346.46 c 0,41,42
 496.841 386.479 496.841 386.479 458.276 401.195 c 0,43,44
 396.39 424.809 396.39 424.809 377.956 408.419 c 128,-1,45
 359.522 392.029 359.522 392.029 351.803 362.745 c 128,-1,46
 344.084 333.461 344.084 333.461 320.601 319.773 c 128,-1,47
 297.117 306.085 297.117 306.085 271.432 312.855 c 128,-1,48
 245.748 319.625 245.748 319.625 232.063 343.111 c 128,-1,49
 218.378 366.597 218.378 366.597 225.147 392.276 c 0,50,51
 243.817 463.107 243.817 463.107 290.22 504.365 c 0,52,53
 368.994 574.406 368.994 574.406 490.663 527.979 c 0,54,55
 588.979 490.464 588.979 490.464 633.499 406.021 c 128,-1,56
 678.111 321.401 678.111 321.401 642.311 201.769 c 0,57,58
 605.26 77.9504 605.26 77.9504 525.981 29.0392 c 0,59,60
 472.346 -4.05095 472.346 -4.05095 412.177 5.98187 c 0,61,62
 192.128 42.6727 192.128 42.6727 101.606 186.356 c 128,-1,63
 11.0835 330.04 11.0835 330.04 98.1668 545.001 c 0,64,65
 165.563 711.366 165.563 711.366 312.773 844.974 c 128,-1,66
 459.983 978.581 459.983 978.581 604.568 986.873 c 128,-1,67
 749.153 995.164 749.153 995.164 865.808 967.195 c 0,68,69
 1082.59 915.22 1082.59 915.22 1173.3 745.537 c 0,70,71
 1253.64 595.255 1253.64 595.255 1197.63 402.348 c 0,72,73
 1148.58 233.37 1148.58 233.37 1009.1 108.413 c 1,74,75
 1183.23 104.333 1183.23 104.333 1329.15 104.333 c 128,-1,76
 1475.07 104.333 1475.07 104.333 1528.55 107.231 c 1,77,78
 1527.52 151.489 1527.52 151.489 1518.84 215.122 c 0,79,80
 1450.94 713.473 1450.94 713.473 1521.94 941.334 c 0,81,82
 1529.84 966.693 1529.84 966.693 1553.91 979.325 c 128,-1,0
 1577.98 991.957 1577.98 991.957 1603.33 984.058 c 128,-1,1
EndSplineSet
EndChar

StartChar: k3
Encoding: 114 3351 117
Width: 1623
GlyphClass: 2
Flags: MW
AnchorPoint: "dotreph" 841.5 1180.6 basechar 0
AnchorPoint: "chandrakkala" 1415.5 -0.599998 basechar 0
LayerCount: 2
Fore
SplineSet
367.35 943.793 m 128,-1,1
 383.936 923.057 383.936 923.057 380.931 896.04 c 128,-1,2
 377.926 869.023 377.926 869.023 357.182 852.434 c 0,3,4
 285.727 795.289 285.727 795.289 241.828 713.021 c 0,5,6
 160.674 560.935 160.674 560.935 186.846 376.534 c 0,7,8
 210.679 208.601 210.679 208.601 306.595 134.279 c 0,9,10
 374.407 81.7327 374.407 81.7327 507.223 119.813 c 0,11,12
 631.104 155.333 631.104 155.333 685.418 276.906 c 0,13,14
 718.367 350.655 718.367 350.655 732.926 431.353 c 0,15,16
 767.585 623.454 767.585 623.454 784.174 691.272 c 0,17,18
 816.004 821.396 816.004 821.396 926.167 912.029 c 128,-1,19
 1036.33 1002.66 1036.33 1002.66 1164.31 1022.77 c 0,20,21
 1169.46 1023.58 1169.46 1023.58 1174.67 1023.56 c 0,22,23
 1458.45 1022.38 1458.45 1022.38 1527.32 778.215 c 0,24,25
 1559.41 664.467 1559.41 664.467 1526.43 486.521 c 0,26,27
 1502.2 355.824 1502.2 355.824 1453.99 247.269 c 0,28,29
 1376.62 73.0663 1376.62 73.0663 1314.42 -2.20801 c 0,30,31
 1297.5 -22.6787 1297.5 -22.6787 1270.45 -25.2529 c 128,-1,32
 1243.39 -27.8281 1243.39 -27.8281 1222.91 -10.9082 c 128,-1,33
 1202.43 6.01172 1202.43 6.01172 1199.86 33.0732 c 128,-1,34
 1197.29 60.1348 1197.29 60.1348 1217.12 84.1328 c 0,35,36
 1294.71 178.019 1294.71 178.019 1364.5 380.803 c 0,37,38
 1407.88 506.821 1407.88 506.821 1411.89 600.602 c 128,-1,39
 1415.9 694.383 1415.9 694.383 1402.45 742.049 c 0,40,41
 1374.96 839.495 1374.96 839.495 1295.5 872.598 c 0,42,43
 1247.99 892.395 1247.99 892.395 1179.41 893.508 c 1,44,45
 1089.13 877.762 1089.13 877.762 1010.57 813.125 c 128,-1,46
 932.003 748.488 932.003 748.488 910.452 660.386 c 0,47,48
 894.833 596.535 894.833 596.535 876.499 494.93 c 0,49,50
 843.495 312.033 843.495 312.033 813.289 244.42 c 0,51,52
 750.649 104.21 750.649 104.21 659.187 45.2988 c 0,53,54
 552.973 -23.1162 552.973 -23.1162 393.494 -25.793 c 0,55,56
 302.894 -27.3135 302.894 -27.3135 230.184 29.0273 c 0,57,58
 89.3777 138.135 89.3777 138.135 58.1348 358.267 c 0,59,60
 26.0012 584.687 26.0012 584.687 127.556 775.011 c 0,61,62
 183.632 880.102 183.632 880.102 275.989 953.961 c 0,63,64
 296.737 970.551 296.737 970.551 323.751 967.542 c 128,-1,0
 350.765 964.533 350.765 964.533 367.35 943.793 c 128,-1,1
EndSplineSet
EndChar

StartChar: k4
Encoding: 115 3352 118
Width: 2236
GlyphClass: 2
Flags: MW
LayerCount: 2
Fore
SplineSet
1077.72 -291.313 m 1,0,1
 1055.86 -298.135 1055.86 -298.135 1033.75 -290.269 c 128,-1,2
 1011.64 -282.404 1011.64 -282.404 1000.26 -263.442 c 0,3,4
 926.177 -139.974 926.177 -139.974 903.377 -12.2874 c 1,5,-1
 480.417 -14.9987 l 2,6,7
 460.509 -15.1263 460.509 -15.1263 441.18 -2.2402 c 128,-1,8
 421.85 10.6459 421.85 10.6459 416.519 37.3038 c 0,9,10
 407.073 84.534 407.073 84.534 474.365 134.271 c 0,11,12
 498.783 152.32 498.783 152.32 511.687 160.809 c 0,13,14
 535.446 176.442 535.446 176.442 533.528 195.939 c 0,15,16
 528.258 249.521 528.258 249.521 429.887 368.603 c 0,17,18
 427.648 371.314 427.648 371.314 417.766 386.319 c 128,-1,19
 407.885 401.325 407.885 401.325 388.1 411.783 c 0,20,21
 337.426 438.568 337.426 438.568 269.169 390.028 c 0,22,23
 205.411 344.688 205.411 344.688 184.177 299.428 c 128,-1,24
 162.942 254.168 162.942 254.168 170.126 230.775 c 0,25,26
 185.477 180.787 185.477 180.787 272.622 130.221 c 0,27,28
 295.596 116.89 295.596 116.89 302.573 90.6169 c 128,-1,29
 309.55 64.3436 309.55 64.3436 296.221 41.3779 c 128,-1,30
 282.893 18.4088 282.893 18.4088 256.624 11.429 c 0,31,32
 203.824 -2.60065 203.824 -2.60065 112.485 88.4449 c 0,33,34
 3.3098 197.27 3.3098 197.27 60.6996 334.117 c 0,35,36
 100.847 429.849 100.847 429.849 193.831 495.972 c 0,37,38
 327.361 590.928 327.361 590.928 448.375 526.966 c 0,39,40
 496.515 501.522 496.515 501.522 532.248 448.806 c 1,41,42
 653.836 300.842 653.836 300.842 662.688 210.863 c 0,43,44
 667.674 160.171 667.674 160.171 643.565 116.05 c 1,45,-1
 893.521 117.653 l 1,46,47
 899.676 348.213 899.676 348.213 1051.51 520.241 c 0,48,49
 1172.98 657.872 1172.98 657.872 1329.05 691.407 c 0,50,51
 1511.85 730.688 1511.85 730.688 1639.44 606.231 c 0,52,53
 1807.14 442.647 1807.14 442.647 1792.96 55.6187 c 0,54,55
 1792.05 30.8585 1792.05 30.8585 1773.25 12.0134 c 128,-1,56
 1754.45 -6.83183 1754.45 -6.83183 1728.42 -6.99866 c 2,57,-1
 1035.76 -11.4388 l 1,58,59
 1051.5 -81.8175 1051.5 -81.8175 1086.85 -151.6 c 1,60,61
 1261.87 -104.8 1261.87 -104.8 1544.48 -128.732 c 0,62,63
 1901.68 -158.979 1901.68 -158.979 1984.45 -162.857 c 1,64,65
 1912.36 240.566 1912.36 240.566 1944.71 645.676 c 0,66,67
 1959.67 833.073 1959.67 833.073 2001.25 986.959 c 0,68,69
 2008.18 1012.6 2008.18 1012.6 2031.75 1026.14 c 128,-1,70
 2055.32 1039.68 2055.32 1039.68 2080.96 1032.75 c 128,-1,71
 2106.6 1025.82 2106.6 1025.82 2120.14 1002.25 c 128,-1,72
 2133.68 978.675 2133.68 978.675 2126.75 953.041 c 0,73,74
 2088.31 810.848 2088.31 810.848 2074.21 634.257 c 0,75,76
 2051.62 351.312 2051.62 351.312 2087.55 46.0947 c 0,77,78
 2108.22 -129.391 2108.22 -129.391 2118.61 -176.127 c 128,-1,79
 2129 -222.863 2129 -222.863 2129 -239.931 c 128,-1,80
 2129 -257 2129 -257 2110 -276 c 128,-1,81
 2091 -295 2091 -295 2064 -295 c 0,82,83
 1967.3 -295 1967.3 -295 1533.52 -258.268 c 0,84,85
 1413.9 -248.139 1413.9 -248.139 1283.46 -254.756 c 128,-1,86
 1153.03 -261.372 1153.03 -261.372 1077.72 -291.313 c 1,0,1
1023.6 118.486 m 1,87,-1
 1664.06 122.591 l 1,88,89
 1662.49 402.142 1662.49 402.142 1548.67 513.168 c 0,90,91
 1471.66 588.286 1471.66 588.286 1356.9 564.025 c 128,-1,92
 1242.13 539.763 1242.13 539.763 1139.46 423.439 c 0,93,94
 1029.89 299.295 1029.89 299.295 1023.6 118.486 c 1,87,-1
EndSplineSet
EndChar

StartChar: ng
Encoding: 116 3353 119
Width: 1691
GlyphClass: 2
Flags: MW
AnchorPoint: "chandrakkala" 1691 0 basechar 0
AnchorPoint: "dotreph" 962.5 1082 basechar 0
LayerCount: 2
Fore
SplineSet
866.904 758.527 m 1,0,1
 878.343 781.316 878.343 781.316 905.585 825.89 c 0,2,3
 968.861 929.424 968.861 929.424 1096.77 972.417 c 128,-1,4
 1224.67 1015.41 1224.67 1015.41 1326.67 994.229 c 0,5,6
 1500.53 958.13 1500.53 958.13 1589.73 789.412 c 0,7,8
 1658.72 658.933 1658.72 658.933 1576.53 546.599 c 0,9,10
 1551.16 511.921 1551.16 511.921 1513.37 485.561 c 1,11,12
 1606.13 444.078 1606.13 444.078 1644.67 367.395 c 128,-1,13
 1683.21 290.711 1683.21 290.711 1639.85 208.905 c 0,14,15
 1468.35 -114.614 1468.35 -114.614 1252.82 52.211 c 0,16,17
 1221.02 76.8184 1221.02 76.8184 1179.67 120.404 c 128,-1,18
 1138.31 163.99 1138.31 163.99 1123.17 177.773 c 128,-1,19
 1108.04 191.557 1108.04 191.557 1106.77 218.707 c 128,-1,20
 1105.5 245.857 1105.5 245.857 1123.39 265.498 c 128,-1,21
 1141.28 285.135 1141.28 285.135 1168.43 286.399 c 128,-1,22
 1195.59 287.664 1195.59 287.664 1212.47 272.287 c 128,-1,23
 1229.34 256.91 1229.34 256.91 1281.07 202.41 c 0,24,25
 1371.29 107.358 1371.29 107.358 1418.63 133.599 c 128,-1,26
 1465.97 159.839 1465.97 159.839 1516.9 252.29 c 1,27,28
 1537.16 291.82 1537.16 291.82 1524.42 317.179 c 128,-1,29
 1511.67 342.537 1511.67 342.537 1445.81 373.911 c 128,-1,30
 1379.94 405.285 1379.94 405.285 1270.8 404.842 c 1,31,32
 1244.68 402.163 1244.68 402.163 1218.18 401.359 c 128,-1,33
 1191.64 400.554 1191.64 400.554 1171.84 419.184 c 128,-1,34
 1152.04 437.815 1152.04 437.815 1151.26 463.571 c 128,-1,35
 1150.47 489.327 1150.47 489.327 1167.34 508.551 c 128,-1,36
 1184.21 527.775 1184.21 527.775 1209.31 530.976 c 128,-1,37
 1234.41 534.178 1234.41 534.178 1291.46 538.23 c 128,-1,38
 1348.51 542.282 1348.51 542.282 1400.95 570.365 c 128,-1,39
 1453.39 598.449 1453.39 598.449 1470.68 622.078 c 0,40,41
 1529.55 702.555 1529.55 702.555 1395.85 826.295 c 0,42,43
 1366.88 853.108 1366.88 853.108 1299.8 867.037 c 128,-1,44
 1232.72 880.966 1232.72 880.966 1124.07 844.446 c 0,45,46
 1088.78 832.584 1088.78 832.584 1079.33 824.534 c 0,47,48
 980.354 740.153 980.354 740.153 951.241 608.978 c 0,49,50
 941.914 566.957 941.914 566.957 936.635 511.363 c 1,51,52
 961.3 341.985 961.3 341.985 940.749 154.369 c 0,53,54
 939.693 144.726 939.693 144.726 937.968 124.206 c 128,-1,55
 936.242 103.685 936.242 103.685 935.064 96.1487 c 0,56,57
 926.278 39.9255 926.278 39.9255 880.555 20.5136 c 0,58,59
 854.098 9.28141 854.098 9.28141 831.659 23.4368 c 0,60,61
 772.702 60.6285 772.702 60.6285 787.533 90.8193 c 128,-1,62
 802.363 121.01 802.363 121.01 801.443 283.103 c 128,-1,63
 800.523 445.195 800.523 445.195 805.751 507.311 c 1,64,65
 776.063 692.888 776.063 692.888 703.597 775.985 c 0,66,67
 651.789 835.394 651.789 835.394 561.643 853.387 c 0,68,69
 376.726 890.295 376.726 890.295 274.12 765.469 c 128,-1,70
 171.513 640.642 171.513 640.642 195.817 399.1 c 1,71,72
 287.02 476.201 287.02 476.201 404.697 486.817 c 128,-1,73
 522.374 497.433 522.374 497.433 568.442 407.656 c 0,74,75
 604.74 336.919 604.74 336.919 557.751 232.304 c 128,-1,76
 510.763 127.689 510.763 127.689 453.448 66.9894 c 128,-1,77
 396.133 6.28946 396.133 6.28946 318.919 6.34476 c 0,78,79
 204.823 6.42653 204.823 6.42653 133.039 149.955 c 128,-1,80
 61.2553 293.484 61.2553 293.484 62.4109 503.764 c 128,-1,81
 63.5665 714.044 63.5665 714.044 177.392 852.518 c 0,82,83
 325.339 1032.5 325.339 1032.5 602.353 978.499 c 1,84,85
 778.334 942.278 778.334 942.278 866.904 758.527 c 1,0,1
219.851 280.078 m 1,86,87
 231.454 243.805 231.454 243.805 247.434 211.855 c 0,88,89
 294.638 117.472 294.638 117.472 341.789 145.612 c 128,-1,90
 388.94 173.752 388.94 173.752 440.762 289.126 c 0,91,92
 460.546 333.172 460.546 333.172 453.642 346.627 c 128,-1,93
 446.739 360.082 446.739 360.082 391.66 355.113 c 128,-1,94
 336.582 350.144 336.582 350.144 274.543 295.321 c 0,95,96
 251.19 274.685 251.19 274.685 219.851 280.078 c 1,86,87
EndSplineSet
EndChar

StartChar: ch1
Encoding: 117 3354 120
Width: 1634
GlyphClass: 2
Flags: MW
AnchorPoint: "chandrakkala" 1454 68 basechar 0
AnchorPoint: "dotreph" 874.5 1150 basechar 0
LayerCount: 2
Fore
SplineSet
325.207 264.703 m 128,-1,1
 303.437 249.501 303.437 249.501 276.672 254.257 c 128,-1,2
 249.907 259.013 249.907 259.013 234.703 280.792 c 0,3,4
 182.686 355.305 182.686 355.305 193.573 423.744 c 128,-1,5
 204.462 492.184 204.462 492.184 253.214 535.441 c 0,6,7
 351.893 623 351.893 623 480 623 c 0,8,9
 584.459 623 584.459 623 675.414 541.376 c 0,10,11
 773.226 453.6 773.226 453.6 719.293 288.336 c 0,12,13
 684.381 181.354 684.381 181.354 584.752 119 c 1,14,-1
 1411.85 119 l 1,15,16
 1366.71 457.443 1366.71 457.443 1386.65 747.948 c 0,17,18
 1396.56 892.234 1396.56 892.234 1424.94 1005.76 c 0,19,20
 1431.38 1031.53 1431.38 1031.53 1454.69 1045.51 c 0,21,22
 1510.21 1078.83 1510.21 1078.83 1543.52 1023.31 c 0,23,24
 1557.5 999.998 1557.5 999.998 1551.06 974.235 c 0,25,26
 1484.77 709.085 1484.77 709.085 1525.71 277.137 c 0,27,28
 1539.01 136.827 1539.01 136.827 1546 98.3438 c 128,-1,29
 1553 59.8594 1553 59.8594 1553 54 c 0,30,31
 1553 -11 1553 -11 1488 -11 c 2,32,-1
 96 -11 l 2,33,34
 73.626 -11 73.626 -11 55.7383 3.16992 c 128,-1,35
 37.8506 17.3398 37.8506 17.3398 32.248 41.1504 c 128,-1,36
 26.6465 64.96 26.6465 64.96 40.9551 88.0752 c 128,-1,37
 55.2646 111.19 55.2646 111.19 85.9863 118.419 c 0,38,39
 158.028 135.37 158.028 135.37 233.337 146.623 c 0,40,41
 493.548 185.504 493.548 185.504 565.761 271.345 c 0,42,43
 608.57 322.233 608.57 322.233 607.013 412.705 c 0,44,45
 606.656 428.408 606.656 428.408 582.924 449.705 c 128,-1,46
 559.192 471.002 559.192 471.002 528.029 482.001 c 128,-1,47
 496.866 493 496.866 493 470.771 493 c 128,-1,48
 444.675 493 444.675 493 407.354 479.15 c 0,49,50
 329.421 450.228 329.421 450.228 322.192 404.787 c 0,51,52
 319.314 386.696 319.314 386.696 337.908 360.061 c 128,-1,53
 356.501 333.425 356.501 333.425 351.742 306.664 c 128,-1,0
 346.982 279.904 346.982 279.904 325.207 264.703 c 128,-1,1
1411 114 m 128,-1,93
EndSplineSet
EndChar

StartChar: ch2
Encoding: 118 3355 121
Width: 2261
GlyphClass: 2
Flags: MW
AnchorPoint: "chandrakkala" 2143.02 35.9858 basechar 0
AnchorPoint: "dotreph" 855.521 1117.99 basechar 0
LayerCount: 2
Fore
SplineSet
1813.5 814 m 1,0,1
 1713.15 854.525 1713.15 854.525 1570.88 845.232 c 1,2,3
 1501.5 837.162 1501.5 837.162 1437.49 808.621 c 0,4,5
 1371.46 779.175 1371.46 779.175 1320.21 737.198 c 0,6,7
 1269.72 695.853 1269.72 695.853 1234.1 642.431 c 128,-1,8
 1198.62 589.196 1198.62 589.196 1182.41 533.749 c 0,9,10
 1167.37 482.273 1167.37 482.273 1175.36 426.743 c 0,11,12
 1183.47 370.391 1183.47 370.391 1214.56 319.254 c 128,-1,13
 1245.68 268.078 1245.68 268.078 1314.4 218.812 c 0,14,15
 1386.2 167.331 1386.2 167.331 1490.23 131.43 c 0,16,17
 1509.67 124.72 1509.67 124.72 1521.84 107.651 c 128,-1,18
 1534.02 90.584 1534.02 90.584 1534.02 69.9863 c 0,19,20
 1534.02 42.9863 1534.02 42.9863 1515.02 23.9863 c 128,-1,21
 1496.02 4.98633 1496.02 4.98633 1469.02 4.98633 c 2,22,-1
 77.0215 4.98633 l 2,23,24
 54.6475 4.98633 54.6475 4.98633 36.7598 19.1562 c 128,-1,25
 18.8721 33.3262 18.8721 33.3262 13.749 55.0986 c 0,26,27
 7.66699 80.9463 7.66699 80.9463 21.9766 104.062 c 128,-1,28
 36.2861 127.176 36.2861 127.176 62.1338 133.258 c 0,29,30
 97.7266 141.633 97.7266 141.633 151.34 151.428 c 0,31,32
 204.378 161.117 204.378 161.117 248.915 167.772 c 0,33,34
 289.662 173.86 289.662 173.86 339.466 185.718 c 0,35,36
 388.602 197.417 388.602 197.417 426.349 210.767 c 0,37,38
 460.793 222.947 460.793 222.947 495.379 244.297 c 0,39,40
 527 263.815 527 263.815 546.781 287.33 c 0,41,42
 565.146 309.161 565.146 309.161 576.728 344.65 c 0,43,44
 588.842 381.77 588.842 381.77 588.034 428.69 c 0,45,46
 587.678 444.394 587.678 444.394 569.607 460.61 c 0,47,48
 540.213 486.988 540.213 486.988 509.888 497.691 c 0,49,50
 477.888 508.986 477.888 508.986 461.021 508.986 c 0,51,52
 425.696 508.986 425.696 508.986 388.138 495.047 c 0,53,54
 351.056 481.286 351.056 481.286 324.662 457.866 c 0,55,56
 306.56 441.804 306.56 441.804 303.214 420.773 c 0,57,58
 300.336 402.682 300.336 402.682 322.318 371.193 c 0,59,60
 337.522 349.41 337.522 349.41 332.763 322.65 c 128,-1,61
 328.003 295.89 328.003 295.89 306.229 280.688 c 128,-1,62
 284.458 265.486 284.458 265.486 257.693 270.243 c 128,-1,63
 230.929 274.999 230.929 274.999 215.724 296.778 c 0,64,65
 163.706 371.29 163.706 371.29 174.828 441.198 c 0,66,67
 185.483 508.169 185.483 508.169 238.38 555.105 c 0,68,69
 282.987 594.686 282.987 594.686 342.905 616.925 c 0,70,71
 402.347 638.986 402.347 638.986 461.021 638.986 c 0,72,73
 500.156 638.986 500.156 638.986 553.154 620.28 c 0,74,75
 607.826 600.984 607.826 600.984 656.436 557.361 c 0,76,77
 716.366 503.579 716.366 503.579 718.009 431.281 c 0,78,79
 719.198 362.186 719.198 362.186 700.314 304.321 c 0,80,81
 680.893 244.81 680.893 244.81 646.261 203.642 c 0,82,83
 613.782 165.033 613.782 165.033 565.773 134.986 c 1,84,-1
 1209.81 134.986 l 1,85,86
 1140.71 190.486 1140.71 190.486 1103.48 251.718 c 0,87,88
 1058.58 325.563 1058.58 325.563 1046.68 408.229 c 0,89,90
 1034.67 491.67 1034.67 491.67 1057.63 570.223 c 0,91,92
 1079.42 644.757 1079.42 644.757 1125.94 714.541 c 0,93,94
 1172.33 784.123 1172.33 784.123 1237.84 837.773 c 0,95,96
 1302.59 890.802 1302.59 890.802 1384.55 927.351 c 0,97,98
 1467.74 964.45 1467.74 964.45 1559.19 974.739 c 1,99,100
 1857.42 994.955 1857.42 994.955 2022.28 828.522 c 0,101,102
 2034.73 815.95 2034.73 815.95 2046.4 802.318 c 0,103,104
 2167.2 661.037 2167.2 661.037 2167.1 456.636 c 0,105,106
 2167.01 277.709 2167.01 277.709 2076.32 147.577 c 0,107,108
 1983.49 14.3711 1983.49 14.3711 1841.24 5.12305 c 0,109,110
 1838.18 4.92383 1838.18 4.92383 1834.56 5.03027 c 0,111,112
 1754.62 7.58887 1754.62 7.58887 1682.62 37.4424 c 0,113,114
 1610.11 67.5127 1610.11 67.5127 1557.94 116.685 c 0,115,116
 1508.99 162.822 1508.99 162.822 1470.36 221.051 c 0,117,118
 1429.91 282.021 1429.91 282.021 1412.67 347.416 c 0,119,120
 1396.71 407.961 1396.71 407.961 1391.74 468.137 c 0,121,122
 1386.23 534.946 1386.23 534.946 1407.14 594.026 c 1,123,124
 1433.19 682.427 1433.19 682.427 1512.69 740.481 c 0,125,126
 1587.87 795.376 1587.87 795.376 1679.23 811.497 c 0,127,128
 1745.08 823.117 1745.08 823.117 1813.5 814 c 1,0,1
2010.57 612.093 m 1,129,130
 1991.96 602.605 1991.96 602.605 1970.89 605.933 c 128,-1,131
 1949.82 609.26 1949.82 609.26 1935.06 624.023 c 0,132,133
 1896 663.075 1896 663.075 1832.81 678.291 c 0,134,135
 1764.98 694.621 1764.98 694.621 1701.82 683.475 c 0,136,137
 1640.17 672.597 1640.17 672.597 1589.35 635.49 c 0,138,139
 1544.56 602.783 1544.56 602.783 1531.62 556.494 c 0,140,141
 1530.91 553.938 1530.91 553.938 1529.99 551.453 c 0,142,143
 1517.99 518.976 1517.99 518.976 1521.3 478.835 c 0,144,145
 1525.33 430.045 1525.33 430.045 1538.37 380.556 c 0,146,147
 1550.13 335.961 1550.13 335.961 1578.68 292.921 c 0,148,149
 1609.04 247.16 1609.04 247.16 1647.1 211.287 c 0,150,151
 1681.92 178.467 1681.92 178.467 1732.42 157.529 c 0,152,153
 1781.36 137.233 1781.36 137.233 1835.77 135.066 c 1,154,155
 1913.75 141.662 1913.75 141.662 1969.66 221.9 c 0,156,157
 2037.03 318.588 2037.03 318.588 2037.1 456.714 c 0,158,159
 2037.14 542.403 2037.14 542.403 2010.57 612.093 c 1,129,130
EndSplineSet
EndChar

StartChar: ch3
Encoding: 119 3356 122
Width: 1834
GlyphClass: 2
Flags: MWO
LayerCount: 2
Fore
SplineSet
1143.47 -53.1465 m 1,0,1
 1047.93 -61.1963 1047.93 -61.1963 913.904 -52.0869 c 0,2,3
 629.474 -32.7539 629.474 -32.7539 472.161 -65.7764 c 1,4,5
 371.516 -99.7236 371.516 -99.7236 318.715 -138.645 c 128,-1,6
 265.914 -177.566 265.914 -177.566 255.154 -212.992 c 1,7,8
 237.414 -253.792 237.414 -253.792 299.099 -309.424 c 0,9,10
 507.535 -497.41 507.535 -497.41 747.198 -301.555 c 1,11,12
 905.604 -144.016 905.604 -144.016 1143.47 -53.1465 c 1,0,1
992.589 658.9 m 1,13,14
 993.915 253.982 993.915 253.982 1001.05 74.8223 c 1,15,16
 1034.38 73.9414 1034.38 73.9414 1095.79 73.6123 c 128,-1,17
 1157.2 73.2842 1157.2 73.2842 1249.4 95.3555 c 128,-1,18
 1341.61 117.428 1341.61 117.428 1426.54 166.572 c 1,19,20
 1589.47 294.22 1589.47 294.22 1599.48 476.978 c 0,21,22
 1607.02 614.68 1607.02 614.68 1529.86 722.244 c 128,-1,23
 1452.7 829.81 1452.7 829.81 1338.41 853.992 c 0,24,25
 1184.75 886.509 1184.75 886.509 1024.05 755.604 c 0,26,27
 1002.63 738.159 1002.63 738.159 992.589 658.9 c 1,13,14
1284.71 -144.289 m 1,28,29
 1287.23 -152.521 1287.23 -152.521 1287.79 -159.594 c 0,30,31
 1296.41 -267.48 1296.41 -267.48 1328.97 -312.305 c 0,32,33
 1382.06 -385.367 1382.06 -385.367 1471.87 -375.015 c 0,34,35
 1526.6 -368.707 1526.6 -368.707 1562.82 -331.28 c 128,-1,36
 1599.04 -293.854 1599.04 -293.854 1605.16 -275.408 c 128,-1,37
 1611.28 -256.962 1611.28 -256.962 1606.21 -237.877 c 0,38,39
 1589.33 -174.281 1589.33 -174.281 1444.48 -134.636 c 1,40,41
 1390.69 -117.368 1390.69 -117.368 1284.71 -144.289 c 1,28,29
910.507 821.828 m 1,42,43
 924.467 842.157 924.467 842.157 941.948 856.396 c 0,44,45
 1150.84 1026.56 1150.84 1026.56 1365.33 981.176 c 0,46,47
 1528.94 946.555 1528.94 946.555 1634.13 799.911 c 128,-1,48
 1739.33 653.268 1739.33 653.268 1729.28 469.86 c 0,49,50
 1715.89 225.394 1715.89 225.394 1502.67 61.1035 c 0,51,52
 1470 35.9336 1470 35.9336 1384.58 1.99219 c 1,53,54
 1438.67 3.32812 1438.67 3.32812 1481.46 -9.97656 c 1,55,56
 1695.9 -69.0557 1695.9 -69.0557 1731.86 -204.527 c 0,57,58
 1760.82 -313.62 1760.82 -313.62 1674.25 -403.074 c 128,-1,59
 1587.67 -492.528 1587.67 -492.528 1473.39 -505.7 c 0,60,61
 1321.51 -523.206 1321.51 -523.206 1232.46 -400.627 c 0,62,63
 1173.66 -319.701 1173.66 -319.701 1159.73 -186.658 c 1,64,65
 963.226 -269.174 963.226 -269.174 836.671 -395.93 c 0,66,67
 829.427 -403.005 829.427 -403.005 810.374 -417.062 c 0,68,69
 657.751 -529.66 657.751 -529.66 459.98 -507.173 c 0,70,71
 304.674 -489.514 304.674 -489.514 198.95 -394.163 c 128,-1,72
 93.2266 -298.812 93.2266 -298.812 130.766 -175.213 c 0,73,74
 159.766 -79.7285 159.766 -79.7285 277.226 -10.2178 c 1,75,76
 156.59 37.2803 156.59 37.2803 101.752 146.36 c 0,77,78
 25.9111 297.222 25.9111 297.222 94.165 493.151 c 128,-1,79
 162.419 689.08 162.419 689.08 309.951 832.249 c 128,-1,80
 457.482 975.417 457.482 975.417 625.027 974.681 c 128,-1,81
 792.572 973.944 792.572 973.944 910.507 821.828 c 1,42,43
870.093 81.166 m 1,82,83
 870.618 123.609 870.618 123.609 872.081 161.038 c 0,84,85
 891.242 651.369 891.242 651.369 790.895 762.288 c 0,86,87
 715.973 844.28 715.973 844.28 612.961 844.732 c 128,-1,88
 509.95 845.186 509.95 845.186 392.5 731.207 c 128,-1,89
 275.051 617.229 275.051 617.229 220.917 461.831 c 0,90,91
 201.945 407.371 201.945 407.371 195.901 359.509 c 1,92,93
 201.053 383.005 201.053 383.005 230.479 400.008 c 0,94,95
 375.073 483.558 375.073 483.558 447.638 498.089 c 0,96,97
 563.278 521.246 563.278 521.246 640.882 450.27 c 0,98,99
 668.028 425.441 668.028 425.441 710.819 365.031 c 0,100,101
 798.354 241.452 798.354 241.452 685.686 85.46 c 1,102,103
 785.013 86.4932 785.013 86.4932 870.093 81.166 c 1,82,83
194.812 349.909 m 1,104,105
 186.507 267.2 186.507 267.2 217.901 204.751 c 0,106,107
 279.373 82.4736 279.373 82.4736 497.982 85.0703 c 1,108,109
 538.412 102.736 538.412 102.736 572.635 150.783 c 0,110,111
 637.966 242.507 637.966 242.507 595.989 301.768 c 128,-1,112
 554.013 361.028 554.013 361.028 521.864 373.113 c 0,113,114
 474.554 390.898 474.554 390.898 295.521 287.449 c 0,115,116
 272.519 274.16 272.519 274.16 246.263 281.188 c 128,-1,117
 220.007 288.215 220.007 288.215 206.721 311.208 c 0,118,119
 194.58 332.214 194.58 332.214 194.812 349.909 c 1,104,105
EndSplineSet
EndChar

StartChar: ch4
Encoding: 120 3357 123
Width: 2588
GlyphClass: 2
Flags: MW
AnchorPoint: "chandrakkala" 2588 0 basechar 0
AnchorPoint: "dotreph" 1462.5 1094 basechar 0
LayerCount: 2
Fore
SplineSet
2591 455 m 0,0,1
 2591 256 2591 256 2492.5 118.5 c 128,-1,2
 2394 -19 2394 -19 2209 -19 c 0,3,4
 2062 -19 2062 -19 1981 108 c 1,5,6
 1949 52 1949 52 1883 15.5 c 128,-1,7
 1817 -21 1817 -21 1745 -21 c 0,8,9
 1583 -21 1583 -21 1466 74 c 128,-1,10
 1349 169 1349 169 1349 319 c 2,11,-1
 1349 511 l 2,12,13
 1349 642 1349 642 1253 732.5 c 128,-1,14
 1157 823 1157 823 1028 823 c 0,15,16
 982 823 982 823 922 804 c 1,17,18
 1016 722 1016 722 1067 599.5 c 128,-1,19
 1118 477 1118 477 1118 378 c 0,20,21
 1118 232 1118 232 1028 105.5 c 128,-1,22
 938 -21 938 -21 804 -21 c 256,23,24
 670 -21 670 -21 581 96.5 c 128,-1,25
 492 214 492 214 492 378 c 0,26,27
 492 636 492 636 698 799 c 1,28,29
 631 823 631 823 586 823 c 0,30,31
 450 823 450 823 362.5 708 c 128,-1,32
 275 593 275 593 275 438 c 0,33,34
 275 192 275 192 452 61 c 1,35,-1
 368 -24 l 1,36,37
 145 131 145 131 145 450 c 0,38,39
 145 635 145 635 268 789 c 128,-1,40
 391 943 391 943 629 943 c 0,41,42
 730 943 730 943 811 880 c 1,43,44
 895 943 895 943 1063 943 c 256,45,46
 1231 943 1231 943 1354 839 c 128,-1,47
 1477 735 1477 735 1477 570 c 2,48,-1
 1477 369 l 2,49,50
 1477 256 1477 256 1551 178.5 c 128,-1,51
 1625 101 1625 101 1742 101 c 0,52,53
 1821 101 1821 101 1864 171 c 128,-1,54
 1907 241 1907 241 1907 335 c 2,55,-1
 1907 920 l 1,56,-1
 2042 920 l 1,57,-1
 2042 335 l 2,58,59
 2042 249 2042 249 2085 175 c 128,-1,60
 2128 101 2128 101 2200 101 c 0,61,62
 2465 101 2465 101 2465 448 c 0,63,64
 2465 739 2465 739 2251 858 c 1,65,-1
 2338 943 l 1,66,67
 2591 788 2591 788 2591 455 c 0,0,1
971 378 m 0,68,69
 971 585 971 585 804 739 c 1,70,71
 626 610 626 610 626 378 c 0,72,73
 626 258 626 258 674 176 c 128,-1,74
 722 94 722 94 804 94 c 0,75,76
 884 94 884 94 927.5 182 c 128,-1,77
 971 270 971 270 971 378 c 0,68,69
EndSplineSet
EndChar

StartChar: nj
Encoding: 121 3358 124
Width: 2260
GlyphClass: 2
Flags: MW
AnchorPoint: "chandrakkala" 2260 0 basechar 0
LayerCount: 2
Fore
SplineSet
1210 358 m 0,0,1
 1210 630 1210 630 1417 799 c 1,2,3
 1355 823 1355 823 1306 823 c 0,4,5
 1207 823 1207 823 1129 772.5 c 128,-1,6
 1051 722 1051 722 1051 619 c 2,7,-1
 1051 0 l 1,8,-1
 898 0 l 1,9,-1
 898 619 l 2,10,11
 898 713 898 713 810.5 768 c 128,-1,12
 723 823 723 823 620 823 c 0,13,14
 467 823 467 823 371 704 c 128,-1,15
 275 585 275 585 266 441 c 1,16,17
 310 558 310 558 472 558 c 0,18,19
 596 558 596 558 671 477.5 c 128,-1,20
 746 397 746 397 746 274 c 256,21,22
 746 151 746 151 666 65 c 128,-1,23
 586 -21 586 -21 458 -21 c 0,24,25
 298 -21 298 -21 220.5 107 c 128,-1,26
 143 235 143 235 143 396 c 0,27,28
 143 627 143 627 272 785 c 128,-1,29
 401 943 401 943 628 943 c 0,30,31
 856 943 856 943 976 811 c 1,32,33
 1089 943 1089 943 1330 943 c 0,34,35
 1429 943 1429 943 1534 880 c 1,36,37
 1647 943 1647 943 1792 943 c 0,38,39
 2011 943 2011 943 2137.5 791 c 128,-1,40
 2264 639 2264 639 2264 453 c 0,41,42
 2264 131 2264 131 2029 -23 c 1,43,-1
 1952 55 l 1,44,45
 2134 181 2134 181 2134 441 c 0,46,47
 2134 593 2134 593 2027.5 708 c 128,-1,48
 1921 823 1921 823 1771 823 c 0,49,50
 1712 823 1712 823 1657 804 c 1,51,52
 1753 727 1753 727 1808 603 c 128,-1,53
 1863 479 1863 479 1863 381 c 0,54,55
 1863 224 1863 224 1778.5 101.5 c 128,-1,56
 1694 -21 1694 -21 1538 -21 c 256,57,58
 1382 -21 1382 -21 1296 90.5 c 128,-1,59
 1210 202 1210 202 1210 358 c 0,0,1
1724 381 m 0,60,61
 1724 575 1724 575 1534 742 c 1,62,63
 1337 603 1337 603 1337 381 c 0,64,65
 1337 259 1337 259 1390 176.5 c 128,-1,66
 1443 94 1443 94 1534 94 c 0,67,68
 1623 94 1623 94 1673.5 184 c 128,-1,69
 1724 274 1724 274 1724 381 c 0,60,61
610 271 m 0,70,71
 610 343 610 343 568 395.5 c 128,-1,72
 526 448 526 448 453 448 c 0,73,74
 379 448 379 448 336 396.5 c 128,-1,75
 293 345 293 345 293 273 c 0,76,77
 293 202 293 202 336.5 149.5 c 128,-1,78
 380 97 380 97 452 97 c 256,79,80
 524 97 524 97 567 148.5 c 128,-1,81
 610 200 610 200 610 271 c 0,70,71
EndSplineSet
EndChar

StartChar: t1
Encoding: 122 3359 125
Width: 1126
GlyphClass: 2
Flags: MW
LayerCount: 2
Fore
SplineSet
987.375 748.94 m 132,-1,1
 972.96 726.638 972.96 726.638 946.386 720.928 c 132,-1,2
 919.812 715.217 919.812 715.217 897.501 729.635 c 4,3,4
 772.997 810.11 772.997 810.11 635.221 844.345 c 4,5,6
 421.731 897.392 421.731 897.392 322.056 804.547 c 4,7,8
 286.137 771.089 286.137 771.089 274.842 722.533 c 132,-1,9
 263.546 673.979 263.546 673.979 292.947 624.401 c 4,10,11
 346.226 534.562 346.226 534.562 486.905 541.861 c 4,12,13
 507.382 542.924 507.382 542.924 606.762 556.166 c 132,-1,14
 706.141 569.408 706.141 569.408 783.297 561.23 c 132,-1,15
 860.454 553.052 860.454 553.052 917.296 508.716 c 4,16,17
 1028.83 421.725 1028.83 421.725 1026 285.017 c 4,18,19
 1023.43 161.122 1023.43 161.122 927.493 69.9717 c 132,-1,20
 831.552 -21.1787 831.552 -21.1787 698.753 -27.1689 c 132,-1,21
 565.954 -33.1582 565.954 -33.1582 413.616 22.6016 c 132,-1,22
 261.279 78.3623 261.279 78.3623 123.091 193.909 c 4,23,24
 102.719 210.944 102.719 210.944 100.301 238.017 c 132,-1,25
 97.8828 265.089 97.8828 265.089 114.921 285.47 c 132,-1,26
 131.959 305.847 131.959 305.847 159.035 308.261 c 132,-1,27
 186.112 310.674 186.112 310.674 206.48 293.64 c 4,28,29
 327.271 192.642 327.271 192.642 456.711 145.264 c 4,30,31
 717.521 49.7998 717.521 49.7998 840.016 166.178 c 4,32,33
 894.584 218.022 894.584 218.022 896.026 287.704 c 4,34,35
 897.508 359.284 897.508 359.284 853.654 393.488 c 132,-1,36
 809.801 427.692 809.801 427.692 758.85 433.093 c 132,-1,37
 707.899 438.493 707.899 438.493 613.623 425.931 c 132,-1,38
 519.346 413.368 519.346 413.368 461.179 410.351 c 132,-1,39
 403.012 407.333 403.012 407.333 334.646 432.1 c 4,40,41
 234.285 468.461 234.285 468.461 179.69 560.52 c 132,-1,42
 125.097 652.578 125.097 652.578 146.801 745.877 c 132,-1,43
 168.504 839.177 168.504 839.177 229.506 895.999 c 4,44,45
 384.689 1040.55 384.689 1040.55 660.459 972.026 c 4,46,47
 825.371 931.05 825.371 931.05 968.07 838.814 c 4,48,49
 990.378 824.396 990.378 824.396 996.085 797.817 c 132,-1,0
 1001.79 771.239 1001.79 771.239 987.375 748.94 c 132,-1,1
EndSplineSet
EndChar

StartChar: t2
Encoding: 123 3360 126
Width: 1119
GlyphClass: 2
Flags: MW
AnchorPoint: "chandrakkala" 1119 0 basechar 0
AnchorPoint: "dotreph" 630.5 1020 basechar 0
LayerCount: 2
Fore
SplineSet
977.5 803.5 m 128,-1,1
 1120 664 1120 664 1120 464 c 256,2,3
 1120 264 1120 264 977.5 121.5 c 128,-1,4
 835 -21 835 -21 632 -21 c 256,5,6
 429 -21 429 -21 287 121.5 c 128,-1,7
 145 264 145 264 145 464 c 256,8,9
 145 664 145 664 287 803.5 c 128,-1,10
 429 943 429 943 632 943 c 256,11,0
 835 943 835 943 977.5 803.5 c 128,-1,1
889 209 m 1,12,13
 995 316 995 316 995 464 c 256,14,15
 995 612 995 612 888.5 717.5 c 128,-1,16
 782 823 782 823 632 823 c 256,17,18
 482 823 482 823 375.5 717.5 c 128,-1,19
 269 612 269 612 269 464 c 256,20,21
 269 316 269 316 375.5 209.5 c 128,-1,22
 482 103 482 103 632 103 c 256,23,24
 782 103 782 103 889 209 c 1,12,13
EndSplineSet
EndChar

StartChar: t4
Encoding: 125 3362 128
Width: 2237
GlyphClass: 2
Flags: MW
AnchorPoint: "chandrakkala" 2237 0 basechar 0
LayerCount: 2
Fore
SplineSet
2246 532 m 0,0,1
 2246 310 2246 310 2114 143.5 c 128,-1,2
 1982 -23 1982 -23 1748 -23 c 256,3,4
 1514 -23 1514 -23 1395 117 c 1,5,6
 1290 -20 1290 -20 1113 -20 c 256,7,8
 936 -20 936 -20 843 84.5 c 128,-1,9
 750 189 750 189 750 365 c 0,10,11
 750 595 750 595 734 660 c 0,12,13
 695 823 695 823 543 823 c 0,14,15
 392 823 392 823 327.5 708.5 c 128,-1,16
 263 594 263 594 263 447 c 0,17,18
 263 191 263 191 476 77 c 1,19,-1
 417 -20 l 1,20,21
 145 124 145 124 145 449 c 0,22,23
 145 659 145 659 240.5 801 c 128,-1,24
 336 943 336 943 543 943 c 0,25,26
 780 943 780 943 843 749 c 0,27,28
 875 651 875 651 875 360 c 0,29,30
 875 252 875 252 936.5 178.5 c 128,-1,31
 998 105 998 105 1099 105 c 256,32,33
 1200 105 1200 105 1263.5 180 c 128,-1,34
 1327 255 1327 255 1327 351 c 2,35,-1
 1327 920 l 1,36,-1
 1463 920 l 1,37,-1
 1463 321 l 2,38,39
 1463 214 1463 214 1558.5 157 c 128,-1,40
 1654 100 1654 100 1770 100 c 0,41,42
 1925 100 1925 100 2012 211.5 c 128,-1,43
 2099 323 2099 323 2111 485 c 1,44,45
 2087 429 2087 429 2025 394.5 c 128,-1,46
 1963 360 1963 360 1897 360 c 0,47,48
 1777 360 1777 360 1702 445 c 128,-1,49
 1627 530 1627 530 1627 654 c 256,50,51
 1627 778 1627 778 1710.5 860.5 c 128,-1,52
 1794 943 1794 943 1920 943 c 0,53,54
 2083 943 2083 943 2164.5 821.5 c 128,-1,55
 2246 700 2246 700 2246 532 c 0,0,1
2084 653 m 0,56,57
 2084 724 2084 724 2036 773.5 c 128,-1,58
 1988 823 1988 823 1918 823 c 256,59,60
 1848 823 1848 823 1803.5 774.5 c 128,-1,61
 1759 726 1759 726 1759 655 c 0,62,63
 1759 585 1759 585 1803 531.5 c 128,-1,64
 1847 478 1847 478 1916 478 c 0,65,66
 1986 478 1986 478 2035 529.5 c 128,-1,67
 2084 581 2084 581 2084 653 c 0,56,57
EndSplineSet
EndChar

StartChar: nh
Encoding: 126 3363 129
Width: 2107
GlyphClass: 2
Flags: MW
LayerCount: 2
Fore
SplineSet
813.513 902.008 m 1,0,1
 900.447 1109.15 900.447 1109.15 1044.35 1113.09 c 1,2,3
 1170.58 1114.98 1170.58 1114.98 1265.46 960.24 c 0,4,5
 1303.98 897.42 1303.98 897.42 1331.87 819.002 c 1,6,7
 1397.11 999.173 1397.11 999.173 1508.72 1078.41 c 0,8,9
 1577.51 1127.24 1577.51 1127.24 1660.97 1129.22 c 0,10,11
 1801.55 1132.55 1801.55 1132.55 1918.47 1002.45 c 128,-1,12
 2035.39 872.353 2035.39 872.353 2059.92 668.846 c 0,13,14
 2101.68 322.272 2101.68 322.272 1842.85 11.3389 c 0,15,16
 1825.86 -9.07129 1825.86 -9.07129 1798.79 -11.5479 c 128,-1,17
 1771.72 -14.0254 1771.72 -14.0254 1751.31 2.96777 c 128,-1,18
 1730.89 19.9619 1730.89 19.9619 1728.42 47.0332 c 128,-1,19
 1725.95 74.1035 1725.95 74.1035 1742.94 94.5098 c 0,20,21
 1965.9 362.366 1965.9 362.366 1930.85 653.292 c 0,22,23
 1911.24 816.012 1911.24 816.012 1828.04 908.591 c 128,-1,24
 1744.84 1001.17 1744.84 1001.17 1658.2 999.116 c 128,-1,25
 1571.56 997.064 1571.56 997.064 1501.25 877.094 c 0,26,27
 1422.18 742.186 1422.18 742.186 1395.95 504.037 c 1,28,29
 1415.01 293.259 1415.01 293.259 1387.35 60.5791 c 0,30,31
 1384.22 34.2109 1384.22 34.2109 1362.86 17.3906 c 128,-1,32
 1341.51 0.569336 1341.51 0.569336 1316.61 3.52734 c 128,-1,33
 1291.72 6.48535 1291.72 6.48535 1275.37 24.2715 c 128,-1,34
 1259.03 42.0576 1259.03 42.0576 1257.89 65.0176 c 0,35,36
 1245.55 313.047 1245.55 313.047 1265.3 504.839 c 1,37,38
 1241.04 751.366 1241.04 751.366 1154.64 892.281 c 0,39,40
 1038.34 1081.95 1038.34 1081.95 941.261 869.703 c 0,41,42
 897.525 774.087 897.525 774.087 873.358 628.678 c 1,43,44
 882.26 488.736 882.26 488.736 869.121 353.129 c 0,45,46
 847.718 132.213 847.718 132.213 847.521 85.3301 c 128,-1,47
 847.323 38.4482 847.323 38.4482 828.02 19.3057 c 128,-1,48
 808.715 0.164062 808.715 0.164062 782.264 0.275391 c 128,-1,49
 755.812 0.386719 755.812 0.386719 737.044 19.6787 c 128,-1,50
 718.274 38.9707 718.274 38.9707 717.471 63.1133 c 0,51,52
 706.222 401.118 706.222 401.118 742.63 634.533 c 1,53,54
 725.772 853.901 725.772 853.901 631.444 934.867 c 0,55,56
 566.154 990.909 566.154 990.909 446.468 988.41 c 1,57,58
 414.135 983.077 414.135 983.077 375.684 939.468 c 0,59,60
 301.243 855.042 301.243 855.042 249.322 635.548 c 0,61,62
 202.868 439.164 202.868 439.164 205.551 249.272 c 1,63,64
 222.126 170.236 222.126 170.236 258.182 153.496 c 0,65,66
 298.709 134.68 298.709 134.68 335.587 146.263 c 0,67,68
 414.195 170.952 414.195 170.952 444.384 201.889 c 1,69,70
 458.002 232.312 458.002 232.312 430.193 261.378 c 0,71,72
 369.256 325.068 369.256 325.068 316.729 328.916 c 1,73,74
 295.054 317.833 295.054 317.833 271.006 323.481 c 128,-1,75
 246.958 329.13 246.958 329.13 232.372 350.092 c 128,-1,76
 217.786 371.053 217.786 371.053 222.585 397.811 c 0,77,78
 230.301 440.83 230.301 440.83 281.687 454.747 c 0,79,80
 350.971 473.512 350.971 473.512 441.801 418.541 c 0,81,82
 554.042 350.614 554.042 350.614 575.071 256.426 c 0,83,84
 603.713 128.137 603.713 128.137 454.762 53.6504 c 0,85,86
 315.029 -16.2256 315.029 -16.2256 203.437 35.585 c 0,87,88
 105.469 81.0703 105.469 81.0703 76.8281 230.021 c 0,89,90
 67.6074 277.975 67.6074 277.975 82.2266 416.832 c 0,91,92
 128.421 855.606 128.421 855.606 283.279 1031.23 c 0,93,94
 357.942 1115.91 357.942 1115.91 441.492 1118.33 c 0,95,96
 706.627 1126.01 706.627 1126.01 813.513 902.008 c 1,0,1
EndSplineSet
EndChar

StartChar: th1
Encoding: 127 3364 130
Width: 1676
GlyphClass: 2
Flags: MW
LayerCount: 2
Fore
SplineSet
866.856 993.988 m 1,0,1
 974.508 1064.32 974.508 1064.32 1079.91 1074.25 c 0,2,3
 1277.73 1092.87 1277.73 1092.87 1423.27 991.502 c 0,4,5
 1589.57 875.671 1589.57 875.671 1624.86 661.31 c 0,6,7
 1643.84 546.079 1643.84 546.079 1623.82 429.701 c 128,-1,8
 1603.81 313.323 1603.81 313.323 1544.95 196.749 c 128,-1,9
 1486.1 80.1756 1486.1 80.1756 1395.55 -11.6583 c 0,10,11
 1376.9 -30.5677 1376.9 -30.5677 1349.72 -30.7627 c 128,-1,12
 1322.54 -30.9577 1322.54 -30.9577 1303.62 -12.3082 c 128,-1,13
 1284.71 6.34122 1284.71 6.34122 1284.52 33.5239 c 128,-1,14
 1284.33 60.7065 1284.33 60.7065 1302.97 79.6134 c 0,15,16
 1460.72 239.588 1460.72 239.588 1495.95 462.494 c 1,17,18
 1511.93 547.053 1511.93 547.053 1496.83 638.739 c 0,19,20
 1470.21 800.375 1470.21 800.375 1348.97 884.825 c 0,21,22
 1242.5 958.98 1242.5 958.98 1111.37 946.632 c 0,23,24
 1043.68 940.258 1043.68 940.258 982.629 910.555 c 1,25,26
 1154.77 751.773 1154.77 751.773 1202.4 498.159 c 0,27,28
 1241.96 287.541 1241.96 287.541 1160.11 141.359 c 0,29,30
 1118.66 67.3231 1118.66 67.3231 1049.12 19.7489 c 128,-1,31
 979.575 -27.8254 979.575 -27.8254 885.71 -31.3263 c 128,-1,32
 791.845 -34.8271 791.845 -34.8271 709.394 26.2818 c 0,33,34
 545.278 147.918 545.278 147.918 552.06 383.242 c 0,35,36
 554.566 470.196 554.566 470.196 591.477 598.579 c 0,37,38
 641.732 773.38 641.732 773.38 758.782 901.533 c 1,39,40
 613.808 959.951 613.808 959.951 455.213 911.024 c 0,41,42
 314.066 867.479 314.066 867.479 246.396 766.339 c 128,-1,43
 178.726 665.199 178.726 665.199 184.632 529.448 c 128,-1,44
 190.538 393.698 190.538 393.698 258.314 276.24 c 128,-1,45
 326.091 158.779 326.091 158.779 435.871 88.7854 c 0,46,47
 458.268 74.5057 458.268 74.5057 464.14 47.9637 c 128,-1,48
 470.012 21.4217 470.012 21.4217 455.735 -0.966637 c 128,-1,49
 441.458 -23.3585 441.458 -23.3585 414.921 -29.2339 c 128,-1,50
 388.383 -35.1093 388.383 -35.1093 365.983 -20.8304 c 0,51,52
 229.387 66.2597 229.387 66.2597 145.714 211.268 c 128,-1,53
 62.0427 356.274 62.0427 356.274 54.52 529.184 c 128,-1,54
 46.9973 702.094 46.9973 702.094 136.163 835.362 c 0,55,56
 231.668 978.104 231.668 978.104 415.838 1034.92 c 0,57,58
 655.664 1108.91 655.664 1108.91 866.856 993.988 c 1,0,1
873.542 833.216 m 1,59,60
 763.201 725.39 763.201 725.39 709.261 537.773 c 0,61,62
 656.202 353.222 656.202 353.222 706.711 233.087 c 0,63,64
 732.975 170.618 732.975 170.618 782.785 133.701 c 128,-1,65
 832.595 96.7828 832.595 96.7828 884.888 98.7332 c 0,66,67
 989.442 102.633 989.442 102.633 1047.46 206.265 c 128,-1,68
 1105.48 309.898 1105.48 309.898 1074.48 474.985 c 0,69,70
 1031.56 703.534 1031.56 703.534 873.542 833.216 c 1,59,60
EndSplineSet
EndChar

StartChar: th2
Encoding: 128 3365 131
Width: 1387
GlyphClass: 2
Flags: MW
AnchorPoint: "chandrakkala" 1387 0 basechar 0
AnchorPoint: "dotreph" 610 1020 basechar 0
LayerCount: 2
Fore
SplineSet
1387 0 m 1,0,-1
 143 0 l 1,1,-1
 143 920 l 1,2,-1
 279 920 l 1,3,-1
 279 113 l 1,4,-1
 568 113 l 1,5,-1
 568 542 l 2,6,7
 568 708 568 708 687.5 825.5 c 128,-1,8
 807 943 807 943 978 943 c 256,9,10
 1149 943 1149 943 1268 830.5 c 128,-1,11
 1387 718 1387 718 1387 554 c 2,12,-1
 1387 0 l 1,0,-1
1252 113 m 1,13,-1
 1252 546 l 2,14,15
 1252 659 1252 659 1170.5 741 c 128,-1,16
 1089 823 1089 823 976 823 c 256,17,18
 863 823 863 823 784.5 740 c 128,-1,19
 706 657 706 657 706 544 c 2,20,-1
 706 113 l 1,21,-1
 1252 113 l 1,13,-1
EndSplineSet
EndChar

StartChar: th3
Encoding: 129 3366 132
Width: 1036
GlyphClass: 2
Flags: MW
AnchorPoint: "chandrakkala" 1036 0 basechar 0
LayerCount: 2
Fore
SplineSet
1038 249 m 0,0,1
 1038 128 1038 128 949.5 53.5 c 128,-1,2
 861 -21 861 -21 732 -21 c 256,3,4
 603 -21 603 -21 547 3 c 1,5,-1
 547 125 l 1,6,7
 587 99 587 99 726 99 c 0,8,9
 800 99 800 99 853 139.5 c 128,-1,10
 906 180 906 180 906 256 c 0,11,12
 906 405 906 405 716 405 c 2,13,-1
 564 405 l 1,14,-1
 564 529 l 1,15,-1
 714 529 l 2,16,17
 906 529 906 529 906 663 c 0,18,19
 906 741 906 741 827 782 c 128,-1,20
 748 823 748 823 662 823 c 0,21,22
 476 823 476 823 371 702.5 c 128,-1,23
 266 582 266 582 266 403 c 256,24,25
 266 224 266 224 362 15 c 1,26,-1
 244 -21 l 1,27,28
 144 195 144 195 144 422 c 0,29,30
 144 648 144 648 279 795.5 c 128,-1,31
 414 943 414 943 660 943 c 0,32,33
 807 943 807 943 922.5 872.5 c 128,-1,34
 1038 802 1038 802 1038 667 c 0,35,36
 1038 604 1038 604 1000 543.5 c 128,-1,37
 962 483 962 483 908 466 c 1,38,39
 1038 412 1038 412 1038 249 c 0,0,1
EndSplineSet
EndChar

StartChar: n1
Encoding: 131 3368 134
Width: 1583
GlyphClass: 2
Flags: MW
AnchorPoint: "dotreph" 845.787 1238 basechar 0
AnchorPoint: "chandrakkala" 1449.79 2 basechar 0
LayerCount: 2
Fore
SplineSet
493.089 -36.2064 m 128,-1,1
 484.016 -61.1644 484.016 -61.1644 459.387 -72.664 c 128,-1,2
 434.757 -84.1636 434.757 -84.1636 409.794 -75.089 c 0,3,4
 295.431 -33.5167 295.431 -33.5167 225.271 69.4909 c 128,-1,5
 155.11 172.499 155.11 172.499 140.09 312.002 c 128,-1,6
 125.069 451.505 125.069 451.505 167.637 609.019 c 128,-1,7
 210.154 766.347 210.154 766.347 304.178 895.456 c 0,8,9
 359.151 969.759 359.151 969.759 436.748 1016.18 c 128,-1,10
 514.345 1062.6 514.345 1062.6 605.013 1049.71 c 1,11,12
 757.756 1038.98 757.756 1038.98 854.296 882.86 c 1,13,14
 855.005 883.936 855.005 883.936 855.418 884.865 c 0,15,16
 942.885 1041.19 942.885 1041.19 1156.55 1061.02 c 0,17,18
 1269.7 1071.52 1269.7 1071.52 1327.03 1049.67 c 0,19,20
 1423.1 1013.05 1423.1 1013.05 1484.09 926.476 c 128,-1,21
 1545.08 839.904 1545.08 839.904 1550.61 737.571 c 1,22,23
 1576.93 440.102 1576.93 440.102 1460.1 220.462 c 1,24,25
 1377.29 61.0786 1377.29 61.0786 1238.84 -42.1168 c 0,26,27
 1217.55 -57.9874 1217.55 -57.9874 1190.66 -54.0639 c 128,-1,28
 1163.76 -50.1404 1163.76 -50.1404 1147.88 -28.8438 c 128,-1,29
 1132.01 -7.54298 1132.01 -7.54298 1135.94 19.3518 c 128,-1,30
 1139.86 46.2466 1139.86 46.2466 1161.16 62.1167 c 0,31,32
 1276.06 147.763 1276.06 147.763 1345.03 280.955 c 1,33,34
 1444.46 467.317 1444.46 467.317 1420.89 728.635 c 1,35,36
 1417.74 794.927 1417.74 794.927 1379.17 849.677 c 128,-1,37
 1340.6 904.426 1340.6 904.426 1283.52 927.112 c 1,38,39
 1240.26 938.228 1240.26 938.228 1168.55 931.578 c 0,40,41
 992.731 915.272 992.731 915.272 920.993 720.848 c 1,42,43
 927.787 258 927.787 258 929.312 -12.3699 c 0,44,45
 928.904 -32.6675 928.904 -32.6675 898.411 -44.5056 c 0,46,47
 847.565 -64.2449 847.565 -64.2449 818.638 -25.2843 c 0,48,49
 806.089 -8.38356 806.089 -8.38356 805.859 2.34233 c 0,50,51
 795.787 472 795.787 472 784.529 722.691 c 1,52,53
 752.209 820.004 752.209 820.004 701.748 868.425 c 128,-1,54
 651.286 916.846 651.286 916.846 594.378 920.123 c 0,55,56
 591.195 920.306 591.195 920.306 588.046 920.8 c 0,57,58
 495.771 935.269 495.771 935.269 412.516 822.026 c 128,-1,59
 329.261 708.783 329.261 708.783 293.098 574.968 c 128,-1,60
 256.935 441.153 256.935 441.153 268.907 329.967 c 128,-1,61
 280.878 218.782 280.878 218.782 330.07 146.557 c 128,-1,62
 379.261 74.3325 379.261 74.3325 454.206 47.089 c 0,63,64
 479.17 38.0144 479.17 38.0144 490.666 13.383 c 128,-1,0
 502.162 -11.2485 502.162 -11.2485 493.089 -36.2064 c 128,-1,1
EndSplineSet
EndChar

StartChar: p1
Encoding: 133 3370 135
Width: 1655
GlyphClass: 2
Flags: MW
AnchorPoint: "chandrakkala" 1478.48 26.7993 basechar 0
AnchorPoint: "dotreph" 872.978 1127.8 basechar 0
LayerCount: 2
Fore
SplineSet
269.699 36.1768 m 128,-1,1
 256.371 13.208 256.371 13.208 230.103 6.22852 c 0,2,3
 177.303 -7.80216 177.303 -7.80216 85.9639 83.2441 c 0,4,5
 -23.2135 192.069 -23.2135 192.069 34.1777 328.916 c 0,6,7
 74.3227 424.645 74.3227 424.645 167.309 490.771 c 0,8,9
 300.845 585.728 300.845 585.728 421.853 521.766 c 0,10,11
 469.994 496.318 469.994 496.318 505.726 443.605 c 1,12,13
 627.314 295.641 627.314 295.641 636.166 205.662 c 0,14,15
 641.18 154.701 641.18 154.701 616.456 109.799 c 1,16,-1
 1403.07 109.799 l 1,17,18
 1324.51 688.972 1324.51 688.972 1366.09 989.704 c 0,19,20
 1369.73 1016.01 1369.73 1016.01 1391.4 1032.42 c 128,-1,21
 1413.07 1048.83 1413.07 1048.83 1439.38 1045.19 c 128,-1,22
 1465.69 1041.55 1465.69 1041.55 1482.1 1019.87 c 128,-1,23
 1498.5 998.201 1498.5 998.201 1494.87 971.895 c 0,24,25
 1454.18 677.609 1454.18 677.609 1532.84 120.386 c 0,26,27
 1538.72 78.6895 1538.72 78.6895 1541.1 64.438 c 128,-1,28
 1543.48 50.1865 1543.48 50.1865 1543.48 33.9927 c 128,-1,29
 1543.48 17.7988 1543.48 17.7988 1524.48 -1.20117 c 128,-1,30
 1505.48 -20.2012 1505.48 -20.2012 1478.48 -20.2012 c 2,31,-1
 453.478 -20.2012 l 2,32,33
 433.798 -20.2012 433.798 -20.2012 414.563 -7.37793 c 128,-1,34
 395.328 5.44531 395.328 5.44531 389.997 32.1035 c 0,35,36
 380.552 79.3343 380.552 79.3343 447.843 129.07 c 0,37,38
 472.264 147.121 472.264 147.121 485.166 155.609 c 0,39,40
 508.924 171.241 508.924 171.241 507.006 190.738 c 0,41,42
 501.734 244.322 501.734 244.322 403.365 363.402 c 0,43,44
 401.126 366.113 401.126 366.113 391.244 381.119 c 128,-1,45
 381.362 396.124 381.362 396.124 361.578 406.582 c 0,46,47
 310.904 433.367 310.904 433.367 242.647 384.827 c 0,48,49
 178.89 339.49 178.89 339.49 157.655 294.229 c 128,-1,50
 136.42 248.968 136.42 248.968 143.604 225.574 c 0,51,52
 158.954 175.587 158.954 175.587 246.1 125.021 c 0,53,54
 269.074 111.689 269.074 111.689 276.051 85.416 c 128,-1,0
 283.027 59.1426 283.027 59.1426 269.699 36.1768 c 128,-1,1
1430.48 12.7988 m 128,-1,94
1384.48 123.799 m 128,-1,96
EndSplineSet
EndChar

StartChar: p2
Encoding: 134 3371 136
Width: 1924
GlyphClass: 2
Flags: MW
AnchorPoint: "chandrakkala" 1924 0 basechar 0
AnchorPoint: "dotreph" 901.5 1061 basechar 0
LayerCount: 2
Fore
SplineSet
1927 0 m 1,0,-1
 622 0 l 1,1,-1
 622 73 l 1,2,3
 750 140 750 140 750 288 c 0,4,5
 750 383 750 383 679 449.5 c 128,-1,6
 608 516 608 516 508 516 c 256,7,8
 408 516 408 516 335.5 452.5 c 128,-1,9
 263 389 263 389 263 289 c 0,10,11
 263 149 263 149 389 89 c 1,12,-1
 333 -5 l 1,13,14
 145 89 145 89 145 293 c 0,15,16
 145 437 145 437 253.5 535 c 128,-1,17
 362 633 362 633 514 633 c 256,18,19
 666 633 666 633 768 536.5 c 128,-1,20
 870 440 870 440 870 304 c 256,21,22
 870 168 870 168 821 113 c 1,23,-1
 1128 113 l 1,24,-1
 1128 537 l 2,25,26
 1128 710 1128 710 1239 826.5 c 128,-1,27
 1350 943 1350 943 1524 943 c 256,28,29
 1698 943 1698 943 1812.5 828 c 128,-1,30
 1927 713 1927 713 1927 548 c 2,31,-1
 1927 0 l 1,0,-1
1801 113 m 1,32,-1
 1801 541 l 2,33,34
 1801 659 1801 659 1723 741.5 c 128,-1,35
 1645 824 1645 824 1532 824 c 256,36,37
 1419 824 1419 824 1341.5 739 c 128,-1,38
 1264 654 1264 654 1264 541 c 2,39,-1
 1264 113 l 1,40,-1
 1801 113 l 1,32,-1
EndSplineSet
EndChar

StartChar: p3
Encoding: 135 3372 137
Width: 2023
GlyphClass: 2
Flags: MW
AnchorPoint: "chandrakkala" 2023 0 basechar 0
AnchorPoint: "dotreph" 991.5 1071 basechar 0
LayerCount: 2
Fore
SplineSet
2028 0 m 1,0,-1
 1311 0 l 1,1,-1
 1311 82 l 1,2,3
 1407 150 1407 150 1461 261.5 c 128,-1,4
 1515 373 1515 373 1515 496 c 256,5,6
 1515 619 1515 619 1443 721 c 128,-1,7
 1371 823 1371 823 1241 823 c 0,8,9
 1151 823 1151 823 1099.5 762 c 128,-1,10
 1048 701 1048 701 1048 607 c 2,11,-1
 1048 0 l 1,12,-1
 907 0 l 1,13,-1
 907 619 l 2,14,15
 907 718 907 718 819.5 770.5 c 128,-1,16
 732 823 732 823 619 823 c 0,17,18
 465 823 465 823 374 712.5 c 128,-1,19
 283 602 283 602 261 440 c 1,20,21
 303 558 303 558 462 558 c 0,22,23
 586 558 586 558 655.5 476 c 128,-1,24
 725 394 725 394 725 270 c 256,25,26
 725 146 725 146 645 62.5 c 128,-1,27
 565 -21 565 -21 438 -21 c 0,28,29
 143 -21 143 -21 143 378 c 0,30,31
 143 619 143 619 275.5 781 c 128,-1,32
 408 943 408 943 636 943 c 256,33,34
 864 943 864 943 973 821 c 1,35,36
 1089 943 1089 943 1227 943 c 0,37,38
 1445 943 1445 943 1547 804 c 128,-1,39
 1649 665 1649 665 1649 462 c 0,40,41
 1649 258 1649 258 1529 113 c 1,42,-1
 1893 113 l 1,43,-1
 1893 920 l 1,44,-1
 2028 920 l 1,45,-1
 2028 0 l 1,0,-1
552 148.5 m 128,-1,47
 593 196 593 196 593 268 c 256,48,49
 593 340 593 340 553.5 391.5 c 128,-1,50
 514 443 514 443 443 443 c 0,51,52
 371 443 371 443 329.5 392.5 c 128,-1,53
 288 342 288 342 288 270 c 256,54,55
 288 198 288 198 328.5 149.5 c 128,-1,56
 369 101 369 101 441 101 c 0,57,46
 511 101 511 101 552 148.5 c 128,-1,47
EndSplineSet
EndChar

StartChar: p4
Encoding: 136 3373 138
Width: 1082
GlyphClass: 2
Flags: MW
AnchorPoint: "chandrakkala" 1081 -0.800003 basechar 0
AnchorPoint: "dotreph" 685.5 1059 basechar 0
LayerCount: 2
Fore
SplineSet
660 633 m 1,0,-1
 861 630 l 1,1,2
 937 636 937 636 937 689 c 0,3,4
 937 768 937 768 849.5 795.5 c 128,-1,5
 762 823 762 823 668 823 c 0,6,7
 478 823 478 823 373.5 704.5 c 128,-1,8
 269 586 269 586 269 389 c 0,9,10
 269 243 269 243 350 9 c 1,11,-1
 230 -33 l 1,12,13
 144 189 144 189 144 428 c 256,14,15
 144 667 144 667 286 805 c 128,-1,16
 428 943 428 943 679 943 c 0,17,18
 1080 943 1080 943 1080 690 c 0,19,20
 1080 613 1080 613 1016 555 c 128,-1,21
 952 497 952 497 874 497 c 1,22,-1
 690 506 l 1,23,24
 608 506 608 506 608 439 c 0,25,26
 608 371 608 371 692 371 c 1,27,28
 872 377 872 377 876 377 c 0,29,30
 970 377 970 377 1026 324.5 c 128,-1,31
 1082 272 1082 272 1082 185 c 0,32,33
 1082 41 1082 41 991.5 9 c 128,-1,34
 901 -23 901 -23 735 -23 c 256,35,36
 569 -23 569 -23 470 13 c 1,37,-1
 458 149 l 1,38,39
 561 97 561 97 758 97 c 0,40,41
 852 97 852 97 894.5 107 c 128,-1,42
 937 117 937 117 937 173 c 0,43,44
 937 250 937 250 812 250 c 2,45,-1
 657 250 l 2,46,47
 575 250 575 250 520 302.5 c 128,-1,48
 465 355 465 355 465 441 c 0,49,50
 465 528 465 528 521 580.5 c 128,-1,51
 577 633 577 633 660 633 c 1,0,-1
EndSplineSet
EndChar

StartChar: m1
Encoding: 137 3374 139
Width: 1166
GlyphClass: 2
Flags: MW
AnchorPoint: "chandrakkala" 1056 62 basechar 0
AnchorPoint: "dotreph" 608.5 1208 basechar 0
LayerCount: 2
Fore
SplineSet
320.562 241.954 m 1,0,1
 66.7705 351.53 66.7705 351.53 74.1846 578.719 c 0,2,3
 78.6514 715.586 78.6514 715.586 189.354 841.587 c 0,4,5
 294.503 961.264 294.503 961.264 453.123 1016.08 c 0,6,7
 533.433 1043.84 533.433 1043.84 617.572 1048.74 c 1,8,9
 693.784 1059.21 693.784 1059.21 768.781 1034.23 c 0,10,11
 909.689 987.306 909.689 987.306 1000.91 852.075 c 0,12,13
 1099.42 706.028 1099.42 706.028 1068.08 567.784 c 1,14,15
 1079.93 538.271 1079.93 538.271 1058.47 500.096 c 128,-1,16
 1037 461.92 1037 461.92 1037 358.905 c 1,17,-1
 1072.99 96.1777 l 1,18,19
 1073.54 69.6299 1073.54 69.6299 1054.72 50.0088 c 128,-1,20
 1035.91 30.3877 1035.91 30.3877 1009.36 29.833 c 2,21,-1
 782.693 25.0898 l 2,22,23
 555.379 20.335 555.379 20.335 441.701 20.334 c 128,-1,24
 328.024 20.334 328.024 20.334 298.063 17.5029 c 128,-1,25
 268.103 14.6719 268.103 14.6719 241.133 12.373 c 128,-1,26
 214.163 10.0752 214.163 10.0752 181.53 12.2471 c 128,-1,27
 148.896 14.4189 148.896 14.4189 126.096 22.0918 c 0,28,29
 62.7451 43.4102 62.7451 43.4102 79.3701 111.459 c 0,30,31
 85.0986 134.904 85.0986 134.904 95.043 141.305 c 128,-1,32
 104.987 147.704 104.987 147.704 106.558 148.633 c 128,-1,33
 108.129 149.562 108.129 149.562 109.933 150.43 c 128,-1,34
 111.737 151.298 111.737 151.298 141.478 169.593 c 0,35,36
 190.376 199.673 190.376 199.673 320.562 241.954 c 1,0,1
448.406 278.08 m 1,37,38
 709.308 350.444 709.308 350.444 814.913 434.552 c 0,39,40
 869.5 478.025 869.5 478.025 904.853 534.691 c 0,41,42
 908.675 540.818 908.675 540.818 922.854 555.176 c 128,-1,43
 937.031 569.533 937.031 569.533 943.314 607.196 c 0,44,45
 956.393 685.592 956.393 685.592 893.13 779.38 c 0,46,47
 826.647 877.941 826.647 877.941 728.435 910.65 c 0,48,49
 680.342 926.667 680.342 926.667 655.426 922.96 c 128,-1,50
 630.51 919.253 630.51 919.253 595.35 917.398 c 128,-1,51
 560.19 915.544 560.19 915.544 495.258 893.103 c 0,52,53
 369.47 849.628 369.47 849.628 287.017 755.783 c 0,54,55
 165.302 617.254 165.302 617.254 219.634 490.383 c 0,56,57
 236.054 452.04 236.054 452.04 282.711 413.671 c 128,-1,58
 329.369 375.302 329.369 375.302 405.782 348.122 c 0,59,60
 427.037 340.562 427.037 340.562 439.134 320.632 c 128,-1,61
 451.23 300.702 451.23 300.702 448.406 278.08 c 1,37,38
907.161 342.067 m 1,62,63
 833.412 280.296 833.412 280.296 756.858 247.353 c 0,64,65
 631.319 193.329 631.319 193.329 475.875 150.806 c 1,66,67
 625.551 151.83 625.551 151.83 779.974 155.062 c 2,68,-1
 927.437 158.147 l 1,69,70
 908.893 255.063 908.893 255.063 907.161 342.067 c 1,62,63
1057 127 m 128,-1,119
EndSplineSet
EndChar

StartChar: y1
Encoding: 138 3375 140
Width: 1752
GlyphClass: 2
Flags: MW
LayerCount: 2
Fore
SplineSet
1129.68 215.279 m 1,0,1
 1236.83 147.078 1236.83 147.078 1306.53 116.938 c 0,2,3
 1375.17 87.2627 1375.17 87.2627 1419.97 83.416 c 128,-1,4
 1464.77 79.5693 1464.77 79.5693 1487.2 94.8936 c 128,-1,5
 1509.64 110.219 1509.64 110.219 1525.31 144.447 c 0,6,7
 1549.4 197.079 1549.4 197.079 1554.16 297.996 c 128,-1,8
 1558.92 398.914 1558.92 398.914 1540.74 557.489 c 128,-1,9
 1522.56 716.063 1522.56 716.063 1480.45 913.237 c 0,10,11
 1474.9 939.208 1474.9 939.208 1489.68 962.019 c 128,-1,12
 1504.46 984.83 1504.46 984.83 1530.44 990.378 c 128,-1,13
 1556.41 995.926 1556.41 995.926 1579.22 981.141 c 128,-1,14
 1602.03 966.355 1602.03 966.355 1607.58 940.386 c 0,15,16
 1652.75 728.889 1652.75 728.889 1672.5 572 c 128,-1,17
 1692.25 415.111 1692.25 415.111 1685.93 292.15 c 128,-1,18
 1679.61 169.189 1679.61 169.189 1643.51 90.3311 c 0,19,20
 1610.25 17.6914 1610.25 17.6914 1549.1 -15.5967 c 128,-1,21
 1487.94 -48.8857 1487.94 -48.8857 1413.91 -43.9971 c 128,-1,22
 1339.88 -39.1084 1339.88 -39.1084 1254.95 -2.3877 c 0,23,24
 1175.72 31.8662 1175.72 31.8662 1059.9 105.594 c 1,25,26
 997.871 34.5479 997.871 34.5479 904.234 -13.1191 c 0,27,28
 728.709 -102.473 728.709 -102.473 520.394 -79.3438 c 0,29,30
 307.783 -55.7373 307.783 -55.7373 177.913 81.1602 c 0,31,32
 47.6484 218.474 47.6484 218.474 39.043 421.561 c 0,33,34
 38.1543 442.549 38.1543 442.549 38.2051 462.069 c 0,35,36
 38.3613 521.858 38.3613 521.858 49.4092 572.012 c 128,-1,37
 60.458 622.165 60.458 622.165 83.2461 662.733 c 128,-1,38
 106.034 703.301 106.034 703.301 145.346 726.13 c 128,-1,39
 184.656 748.959 184.656 748.959 237.095 748.796 c 0,40,41
 309.736 748.57 309.736 748.57 401.998 705.032 c 128,-1,42
 494.26 661.494 494.26 661.494 624.275 572.703 c 0,43,44
 663.909 545.636 663.909 545.636 923.451 357.031 c 0,45,46
 973.176 320.896 973.176 320.896 1019.28 288.93 c 1,47,48
 1020.65 292.71 1020.65 292.71 1021.92 296.501 c 0,49,50
 1086.55 488.703 1086.55 488.703 909.331 753.624 c 0,51,52
 877.442 801.293 877.442 801.293 787.629 839.025 c 0,53,54
 697.521 876.882 697.521 876.882 592.105 858.065 c 0,55,56
 539.383 848.654 539.383 848.654 510.166 837.869 c 0,57,58
 508.376 837.026 508.376 837.026 502.713 832.106 c 128,-1,59
 497.05 827.188 497.05 827.188 485.363 813.894 c 128,-1,60
 473.677 800.6 473.677 800.6 462.315 783.838 c 0,61,62
 447.411 761.852 447.411 761.852 420.714 756.729 c 128,-1,63
 394.017 751.607 394.017 751.607 372.039 766.509 c 128,-1,64
 350.058 781.41 350.058 781.41 344.933 808.103 c 128,-1,65
 339.807 834.795 339.807 834.795 354.71 856.785 c 0,66,67
 382.415 897.654 382.415 897.654 407.41 922.639 c 128,-1,68
 432.405 947.625 432.405 947.625 464.638 959.636 c 0,69,70
 504.464 974.477 504.464 974.477 569.266 986.044 c 0,71,72
 712.476 1011.61 712.476 1011.61 837.98 958.879 c 0,73,74
 963.787 906.023 963.787 906.023 1017.38 825.909 c 0,75,76
 1230.15 507.856 1230.15 507.856 1145.14 255.062 c 0,77,78
 1138.4 235.021 1138.4 235.021 1129.68 215.279 c 1,0,1
950.418 178.489 m 1,79,80
 901.262 212.454 901.262 212.454 847.029 251.865 c 0,81,82
 589.024 439.354 589.024 439.354 550.959 465.35 c 0,83,84
 440.012 541.119 440.012 541.119 357.019 579.899 c 128,-1,85
 274.024 618.681 274.024 618.681 236.694 618.797 c 0,86,87
 222.109 618.842 222.109 618.842 211.822 613.99 c 128,-1,88
 201.535 609.138 201.535 609.138 190.667 594.367 c 128,-1,89
 179.799 579.597 179.799 579.597 174.068 546.209 c 128,-1,90
 168.338 512.821 168.338 512.821 168.205 461.729 c 0,91,92
 168.161 445.134 168.161 445.134 168.927 427.064 c 0,93,94
 175.452 273.069 175.452 273.069 272.22 170.636 c 0,95,96
 369.553 68.4697 369.553 68.4697 534.699 49.8662 c 0,97,98
 704.785 31.2236 704.785 31.2236 845.258 102.733 c 0,99,100
 908.015 134.681 908.015 134.681 950.418 178.489 c 1,79,80
EndSplineSet
EndChar

StartChar: r3
Encoding: 139 3376 141
Width: 1484
GlyphClass: 2
Flags: MW
LayerCount: 2
Fore
SplineSet
1038.81 776.61 m 1,0,1
 1021.73 755.872 1021.73 755.872 996.402 752.489 c 0,2,3
 892.697 738.639 892.697 738.639 814.938 668.638 c 128,-1,4
 737.176 598.635 737.176 598.635 712.539 496.952 c 128,-1,5
 687.901 395.266 687.901 395.266 724.996 297.438 c 128,-1,6
 762.093 199.608 762.093 199.608 847.954 139.825 c 0,7,8
 923.607 87.1504 923.607 87.1504 1007.68 85.3662 c 0,9,10
 1095.88 83.4941 1095.88 83.4941 1158.25 136.148 c 0,11,12
 1213.15 182.504 1213.15 182.504 1234.64 262.807 c 0,13,14
 1253.89 334.732 1253.89 334.732 1241.92 425.842 c 0,15,16
 1228.49 528.053 1228.49 528.053 1179.36 618.537 c 0,17,18
 1131.18 707.274 1131.18 707.274 1054.77 765.082 c 0,19,20
 1046.92 771.021 1046.92 771.021 1038.81 776.61 c 1,0,1
860.79 849.761 m 1,21,22
 770.04 867.675 770.04 867.675 676.819 856.71 c 0,23,24
 538.577 840.449 538.577 840.449 432.409 771.113 c 0,25,26
 319.018 697.059 319.018 697.059 268.592 582.109 c 0,27,28
 238.811 514.224 238.811 514.224 236.201 438.113 c 128,-1,29
 233.591 361.995 233.591 361.995 258.647 292.236 c 128,-1,30
 283.703 222.473 283.703 222.473 334.146 165.415 c 128,-1,31
 384.589 108.358 384.589 108.358 450.755 74.9355 c 0,32,33
 474.463 62.959 474.463 62.959 482.952 37.1348 c 128,-1,34
 491.44 11.3105 491.44 11.3105 479.466 -12.3896 c 128,-1,35
 467.493 -36.0928 467.493 -36.0928 441.673 -44.585 c 128,-1,36
 415.854 -53.0762 415.854 -53.0762 392.142 -41.1016 c 0,37,38
 303.715 3.56543 303.715 3.56543 236.75 79.3105 c 128,-1,39
 169.789 155.052 169.789 155.052 136.3 248.293 c 128,-1,40
 102.812 341.531 102.812 341.531 106.277 442.57 c 128,-1,41
 109.744 543.61 109.744 543.61 149.543 634.334 c 0,42,43
 215.521 784.734 215.521 784.734 361.326 879.958 c 0,44,45
 493.061 965.991 493.061 965.991 661.631 985.819 c 0,46,47
 787.851 1000.67 787.851 1000.67 910.388 972.033 c 0,48,49
 959.083 960.654 959.083 960.654 1003.77 942.394 c 0,50,51
 1073.56 913.878 1073.56 913.878 1133.21 868.753 c 0,52,53
 1232.02 793.997 1232.02 793.997 1293.61 680.572 c 0,54,55
 1354.25 568.895 1354.25 568.895 1370.81 442.775 c 0,56,57
 1386.15 326.062 1386.15 326.062 1360.22 229.191 c 0,58,59
 1328.18 109.489 1328.18 109.489 1242.11 36.8164 c 0,60,61
 1142.23 -47.5176 1142.23 -47.5176 1004.92 -44.6045 c 0,62,63
 881.569 -41.9873 881.569 -41.9873 773.67 33.1396 c 0,64,65
 654.8 115.905 654.8 115.905 603.44 251.349 c 128,-1,66
 552.085 386.784 552.085 386.784 586.194 527.565 c 128,-1,67
 620.303 668.34 620.303 668.34 727.961 765.256 c 0,68,69
 788.396 819.66 788.396 819.66 860.79 849.761 c 1,21,22
EndSplineSet
EndChar

StartChar: rh
Encoding: 140 3377 142
Width: 1106
GlyphClass: 2
Flags: MW
LayerCount: 2
Fore
SplineSet
315.596 -5.24316 m 128,-1,1
 292.592 -18.5059 292.592 -18.5059 266.339 -11.4551 c 128,-1,2
 240.086 -4.40332 240.086 -4.40332 226.82 18.6094 c 0,3,4
 8.84473 396.742 8.84473 396.742 89.4268 667.896 c 0,5,6
 143.823 850.938 143.823 850.938 316.698 937.759 c 0,7,8
 475.108 1016.46 475.108 1016.46 655.47 980.872 c 0,9,10
 841.228 944.216 841.228 944.216 948.441 804.683 c 0,11,12
 1093.58 615.799 1093.58 615.799 1020.07 328.737 c 0,13,14
 981.768 180.612 981.768 180.612 885.122 17.8789 c 0,15,16
 871.562 -4.95312 871.562 -4.95312 845.224 -11.666 c 128,-1,17
 818.885 -18.3779 818.885 -18.3779 796.044 -4.81543 c 128,-1,18
 773.206 8.74805 773.206 8.74805 766.497 35.0908 c 128,-1,19
 759.788 61.4336 759.788 61.4336 773.35 84.2627 c 0,20,21
 860.542 231.08 860.542 231.08 894.184 361.17 c 0,22,23
 951.948 586.769 951.948 586.769 845.359 725.473 c 0,24,25
 767.984 826.162 767.984 826.162 630.301 853.332 c 0,26,27
 493.338 880.36 493.338 880.36 374.793 821.462 c 0,28,29
 252.416 760.001 252.416 760.001 214.041 630.865 c 0,30,31
 149.376 413.259 149.376 413.259 339.448 83.5322 c 0,32,33
 352.713 60.5166 352.713 60.5166 345.657 34.2676 c 128,-1,0
 338.603 8.01953 338.603 8.01953 315.596 -5.24316 c 128,-1,1
EndSplineSet
EndChar

StartChar: l3
Encoding: 141 3378 143
Width: 1438
GlyphClass: 2
Flags: MW
AnchorPoint: "chandrakkala" 1438 0 basechar 0
AnchorPoint: "dotreph" 589.5 1069 basechar 0
LayerCount: 2
Fore
SplineSet
1440 0 m 1,0,-1
 145 0 l 1,1,-1
 145 561 l 2,2,3
 145 723 145 723 271.5 833 c 128,-1,4
 398 943 398 943 580 943 c 256,5,6
 762 943 762 943 879 836.5 c 128,-1,7
 996 730 996 730 996 561 c 2,8,-1
 996 298 l 1,9,-1
 283 298 l 1,10,-1
 283 115 l 1,11,-1
 1306 115 l 1,12,-1
 1306 920 l 1,13,-1
 1440 920 l 1,14,-1
 1440 0 l 1,0,-1
858 413 m 1,15,-1
 858 523 l 2,16,17
 858 652 858 652 783 737.5 c 128,-1,18
 708 823 708 823 578 823 c 256,19,20
 448 823 448 823 367 742 c 128,-1,21
 286 661 286 661 286 523 c 2,22,-1
 286 413 l 1,23,-1
 858 413 l 1,15,-1
EndSplineSet
EndChar

StartChar: lh
Encoding: 142 3379 144
Width: 1196
GlyphClass: 2
Flags: MW
AnchorPoint: "chandrakkala" 1196 0 basechar 0
AnchorPoint: "dotreph" 680.5 1097 basechar 0
LayerCount: 2
Fore
SplineSet
1203 253 m 0,0,1
 1203 155 1203 155 1123.5 77.5 c 128,-1,2
 1044 0 1044 0 906 0 c 2,3,-1
 461 0 l 2,4,5
 400 0 400 0 350.5 -31.5 c 128,-1,6
 301 -63 301 -63 301 -119 c 256,7,8
 301 -175 301 -175 350 -206 c 128,-1,9
 399 -237 399 -237 461 -237 c 2,10,-1
 1176 -237 l 1,11,-1
 1176 -352 l 1,12,-1
 439 -352 l 2,13,14
 325 -352 325 -352 249 -292 c 128,-1,15
 173 -232 173 -232 173 -123 c 0,16,17
 173 112 173 112 444 112 c 2,18,-1
 876 112 l 2,19,20
 1063 112 1063 112 1063 254 c 0,21,22
 1063 395 1063 395 911 395 c 2,23,-1
 842 395 l 1,24,-1
 842 520 l 1,25,-1
 911 520 l 2,26,27
 1058 520 1058 520 1058 641 c 0,28,29
 1058 739 1058 739 925.5 781 c 128,-1,30
 793 823 793 823 656 823 c 256,31,32
 519 823 519 823 403 753.5 c 128,-1,33
 287 684 287 684 259 553 c 1,34,35
 333 646 333 646 439 646 c 256,36,37
 545 646 545 646 618.5 576 c 128,-1,38
 692 506 692 506 692 399 c 256,39,40
 692 292 692 292 616 228 c 128,-1,41
 540 164 540 164 414 164 c 256,42,43
 288 164 288 164 214.5 257.5 c 128,-1,44
 141 351 141 351 141 494 c 0,45,46
 141 716 141 716 298 829.5 c 128,-1,47
 455 943 455 943 668 943 c 256,48,49
 881 943 881 943 1039 873 c 128,-1,50
 1197 803 1197 803 1197 641 c 0,51,52
 1197 508 1197 508 1080 454 c 1,53,54
 1203 405 1203 405 1203 253 c 0,0,1
514.5 311.5 m 128,-1,56
 549 346 549 346 549 400 c 256,57,58
 549 454 549 454 513 489.5 c 128,-1,59
 477 525 477 525 422 525 c 256,60,61
 367 525 367 525 329 492 c 128,-1,62
 291 459 291 459 291 404 c 256,63,64
 291 349 291 349 329.5 313 c 128,-1,65
 368 277 368 277 424 277 c 256,66,55
 480 277 480 277 514.5 311.5 c 128,-1,56
EndSplineSet
EndChar

StartChar: zh
Encoding: 143 3380 145
Width: 1260
GlyphClass: 2
Flags: MW
AnchorPoint: "dotreph" 600 1242 basechar 0
AnchorPoint: "chandrakkala" 1118 18 basechar 0
LayerCount: 2
Fore
SplineSet
924.899 430.489 m 1,0,1
 955.314 402.265 955.314 402.265 976.827 364.985 c 0,2,3
 1027.67 276.888 1027.67 276.888 1004.82 183.522 c 0,4,5
 977.785 73.0303 977.785 73.0303 838.635 30.3867 c 0,6,7
 733.087 -1.95996 733.087 -1.95996 610.427 24.8164 c 0,8,9
 501.658 48.5635 501.658 48.5635 448.757 102.495 c 0,10,11
 390.751 161.631 390.751 161.631 382.942 229.183 c 0,12,13
 379.892 255.562 379.892 255.562 396.776 276.865 c 128,-1,14
 413.662 298.167 413.662 298.167 440.048 301.218 c 128,-1,15
 466.434 304.268 466.434 304.268 487.732 287.38 c 128,-1,16
 509.032 270.492 509.032 270.492 512.985 244.562 c 0,17,18
 523.213 177.482 523.213 177.482 636.677 152.15 c 1,19,20
 790.521 126.549 790.521 126.549 862.875 187.933 c 1,21,22
 905.5 225.945 905.5 225.945 862.476 304.196 c 1,23,24
 838.744 343.013 838.744 343.013 765.207 384.553 c 1,25,26
 622.816 357.508 622.816 357.508 476.85 371.303 c 1,27,28
 213.047 400.453 213.047 400.453 114.687 566.386 c 1,29,30
 77.9785 630.539 77.9785 630.539 84.5137 699.595 c 0,31,32
 91.5635 774.09 91.5635 774.09 112.676 826.072 c 128,-1,33
 133.788 878.056 133.788 878.056 150.608 914.044 c 128,-1,34
 167.428 950.032 167.428 950.032 174.731 966.23 c 128,-1,35
 182.035 982.429 182.035 982.429 207.46 992.049 c 128,-1,36
 232.884 1001.67 232.884 1001.67 257.09 990.751 c 128,-1,37
 281.298 979.835 281.298 979.835 290.921 954.415 c 128,-1,38
 300.543 928.995 300.543 928.995 293.057 912.392 c 128,-1,39
 285.57 895.789 285.57 895.789 269.271 860.91 c 0,40,41
 223.143 762.203 223.143 762.203 219.75 737.574 c 0,42,43
 211.297 676.214 211.297 676.214 215.272 660.895 c 128,-1,44
 219.248 645.576 219.248 645.576 227.031 631.807 c 0,45,46
 302.228 505.817 302.228 505.817 543.387 497.187 c 1,47,48
 464.252 547.887 464.252 547.887 425.297 604.712 c 0,49,50
 422.59 608.662 422.59 608.662 420.49 612.966 c 0,51,52
 356.795 743.521 356.795 743.521 423.086 862.113 c 0,53,54
 474.012 953.217 474.012 953.217 608.695 1011.17 c 0,55,56
 717.266 1057.89 717.266 1057.89 855.674 1059.77 c 0,57,58
 1003.12 1061.76 1003.12 1061.76 1085.15 1011.4 c 128,-1,59
 1167.18 961.03 1167.18 961.03 1192.48 883.901 c 0,60,61
 1240.21 738.38 1240.21 738.38 1137.86 588.192 c 0,62,63
 1084.25 509.516 1084.25 509.516 1028.75 479.531 c 128,-1,64
 973.242 449.547 973.242 449.547 924.899 430.489 c 1,0,1
783.045 521.473 m 1,65,66
 873.874 544.016 873.874 544.016 954.721 587.305 c 1,67,68
 999.197 615.557 999.197 615.557 1031.12 662.41 c 0,69,70
 1096.73 758.688 1096.73 758.688 1069.89 840.521 c 0,71,72
 1058.8 874.342 1058.8 874.342 1027.51 894.262 c 1,73,74
 923.51 950.247 923.51 950.247 754 919.5 c 0,75,76
 656.273 901.773 656.273 901.773 581.478 847.443 c 0,77,78
 523.691 805.467 523.691 805.467 519.66 739.812 c 0,79,80
 517.941 711.814 517.941 711.814 535.211 674.411 c 1,81,82
 576.182 618.563 576.182 618.563 681.314 569.253 c 0,83,84
 697.779 561.53 697.779 561.53 722.918 549.703 c 128,-1,85
 748.056 537.875 748.056 537.875 783.045 521.473 c 1,65,66
EndSplineSet
EndChar

StartChar: v1
Encoding: 144 3381 146
Width: 1754
GlyphClass: 2
Flags: MW
AnchorPoint: "chandrakkala" 1529 59 basechar 0
AnchorPoint: "dotreph" 680.5 1204 basechar 0
LayerCount: 2
Fore
SplineSet
432.962 23.0381 m 128,-1,1
 414.185 4.25977 414.185 4.25977 387.004 4.25781 c 128,-1,2
 359.823 4.25586 359.823 4.25586 341.038 23.0381 c 0,3,4
 118.794 245.287 118.794 245.287 63.1733 444.098 c 128,-1,5
 7.55273 642.909 7.55273 642.909 82.8467 787.518 c 0,6,7
 230.95 1071.97 230.95 1071.97 613.749 1096.46 c 0,8,9
 724.31 1103.54 724.31 1103.54 845.519 1071.84 c 128,-1,10
 966.729 1040.15 966.729 1040.15 1042.55 975.987 c 0,11,12
 1199.94 842.811 1199.94 842.811 1208.27 642.77 c 128,-1,13
 1216.61 442.729 1216.61 442.729 1107.55 263.248 c 0,14,15
 1055.02 176.794 1055.02 176.794 976.023 104.137 c 1,16,17
 1408.58 92.9922 1408.58 92.9922 1532.82 102.041 c 1,18,19
 1532.59 108.191 1532.59 108.191 1494.75 538.811 c 0,20,21
 1483.89 662.461 1483.89 662.461 1489.63 804.494 c 128,-1,22
 1495.37 946.527 1495.37 946.527 1524.58 1047.12 c 0,23,24
 1531.98 1072.62 1531.98 1072.62 1555.8 1085.73 c 128,-1,25
 1579.61 1098.83 1579.61 1098.83 1605.12 1091.42 c 128,-1,26
 1630.63 1084.02 1630.63 1084.02 1643.73 1060.2 c 128,-1,27
 1656.83 1036.38 1656.83 1036.38 1649.42 1010.88 c 0,28,29
 1599.02 837.285 1599.02 837.285 1624.43 548.107 c 0,30,31
 1634.75 430.678 1634.75 430.678 1645.3 310.079 c 128,-1,32
 1655.85 189.479 1655.85 189.479 1659.89 144.774 c 128,-1,33
 1663.92 100.068 1663.92 100.068 1664.7 68.855 c 128,-1,34
 1665.48 37.6416 1665.48 37.6416 1646.85 15.2925 c 128,-1,35
 1628.23 -7.05664 1628.23 -7.05664 1616.07 -13.1377 c 0,36,37
 1544.09 -49.129 1544.09 -49.129 1038.2 -29.8037 c 0,38,39
 833.514 -21.9854 833.514 -21.9854 781.036 -20.3452 c 128,-1,40
 728.558 -18.7051 728.558 -18.7051 714.698 11.7852 c 128,-1,41
 700.838 42.2764 700.838 42.2764 710.384 67.7314 c 128,-1,42
 719.93 93.1855 719.93 93.1855 744.103 104.174 c 0,43,44
 902.534 176.189 902.534 176.189 993.809 326.405 c 128,-1,45
 1085.08 476.621 1085.08 476.621 1078.76 628.517 c 128,-1,46
 1072.43 780.413 1072.43 780.413 959.014 876.38 c 0,47,48
 905.285 921.843 905.285 921.843 808.502 947.151 c 128,-1,49
 711.719 972.46 711.719 972.46 619.272 966.536 c 0,50,51
 312.381 946.87 312.381 946.87 198.153 727.482 c 0,52,53
 146.59 628.446 146.59 628.446 190.7 470.782 c 128,-1,54
 234.81 313.118 234.81 313.118 432.962 114.962 c 0,55,56
 451.744 96.1758 451.744 96.1758 451.742 68.9961 c 128,-1,0
 451.739 41.8164 451.739 41.8164 432.962 23.0381 c 128,-1,1
EndSplineSet
EndChar

StartChar: z1
Encoding: 145 3382 147
Width: 1699
GlyphClass: 2
Flags: MW
AnchorPoint: "chandrakkala" 1699 0 basechar 0
AnchorPoint: "dotreph" 1165.5 1095 basechar 0
LayerCount: 2
Fore
SplineSet
1701 384 m 0,0,1
 1701 219 1701 219 1601 99 c 128,-1,2
 1501 -21 1501 -21 1342 -21 c 256,3,4
 1183 -21 1183 -21 1100.5 86.5 c 128,-1,5
 1018 194 1018 194 1018 346 c 256,6,7
 1018 498 1018 498 1121 603.5 c 128,-1,8
 1224 709 1224 709 1369 709 c 0,9,10
 1426 709 1426 709 1475 697 c 1,11,12
 1368 823 1368 823 1182 823 c 0,13,14
 1072 823 1072 823 987.5 734 c 128,-1,15
 903 645 903 645 903 524 c 2,16,-1
 903 330 l 2,17,18
 903 177 903 177 810.5 78 c 128,-1,19
 718 -21 718 -21 538.5 -21 c 128,-1,20
 359 -21 359 -21 252 119 c 128,-1,21
 145 259 145 259 145 453 c 0,22,23
 145 795 145 795 420 943 c 1,24,-1
 490 842 l 1,25,26
 281 723 281 723 281 472 c 0,27,28
 281 339 281 339 354 221.5 c 128,-1,29
 427 104 427 104 553.5 104 c 128,-1,30
 680 104 680 104 720 184 c 128,-1,31
 760 264 760 264 760 394 c 2,32,-1
 760 556 l 2,33,34
 760 718 760 718 883 830.5 c 128,-1,35
 1006 943 1006 943 1166 943 c 0,36,37
 1421 943 1421 943 1561 786.5 c 128,-1,38
 1701 630 1701 630 1701 384 c 0,0,1
1342 104 m 0,39,40
 1440 104 1440 104 1502 180.5 c 128,-1,41
 1564 257 1564 257 1564 410 c 0,42,43
 1564 497 1564 497 1536 554 c 1,44,45
 1499 578 1499 578 1392 578 c 256,46,47
 1285 578 1285 578 1219 513 c 128,-1,48
 1153 448 1153 448 1153 357 c 0,49,50
 1153 104 1153 104 1342 104 c 0,39,40
EndSplineSet
EndChar

StartChar: sh
Encoding: 146 3383 148
Width: 1850
GlyphClass: 2
Flags: MW
AnchorPoint: "chandrakkala" 1850 0 basechar 0
AnchorPoint: "dotreph" 1131.5 1065 basechar 0
LayerCount: 2
Fore
SplineSet
1850 0 m 1,0,-1
 621 0 l 1,1,-1
 621 73 l 1,2,3
 750 140 750 140 750 288 c 0,4,5
 750 383 750 383 679 449.5 c 128,-1,6
 608 516 608 516 508 516 c 256,7,8
 408 516 408 516 335 452.5 c 128,-1,9
 262 389 262 389 262 293 c 0,10,11
 262 152 262 152 386 93 c 1,12,-1
 324 -5 l 1,13,14
 145 91 145 91 145 293 c 0,15,16
 145 437 145 437 253 535 c 128,-1,17
 361 633 361 633 508 633 c 0,18,19
 656 633 656 633 765 533.5 c 128,-1,20
 874 434 874 434 874 305 c 256,21,22
 874 176 874 176 820 113 c 1,23,-1
 1245 113 l 1,24,-1
 1245 331 l 1,25,26
 1090 354 1090 354 978.5 438.5 c 128,-1,27
 867 523 867 523 867 653 c 128,-1,28
 867 783 867 783 943.5 863 c 128,-1,29
 1020 943 1020 943 1128 943 c 0,30,31
 1388 943 1388 943 1388 666 c 2,32,-1
 1388 455 l 1,33,34
 1705 475 1705 475 1774 920 c 1,35,-1
 1850 920 l 1,36,-1
 1850 0 l 1,0,-1
1725 113 m 1,37,-1
 1725 504 l 1,38,39
 1693 447 1693 447 1586 389 c 128,-1,40
 1479 331 1479 331 1388 331 c 1,41,-1
 1388 113 l 1,42,-1
 1725 113 l 1,37,-1
1245 692 m 2,43,44
 1245 750 1245 750 1203.5 787 c 128,-1,45
 1162 824 1162 824 1113 824 c 256,46,47
 1064 824 1064 824 1027 779 c 128,-1,48
 990 734 990 734 990 661.5 c 128,-1,49
 990 589 990 589 1062.5 528 c 128,-1,50
 1135 467 1135 467 1245 457 c 1,51,-1
 1245 692 l 2,43,44
EndSplineSet
EndChar

StartChar: s1
Encoding: 147 3384 149
Width: 2062
GlyphClass: 2
Flags: MW
LayerCount: 2
Fore
SplineSet
959.181 503.456 m 1,0,1
 967.302 453.248 967.302 453.248 967.624 407.041 c 128,-1,2
 967.945 360.835 967.945 360.835 978.007 269.392 c 128,-1,3
 988.07 177.949 988.07 177.949 988.07 139.084 c 128,-1,4
 988.07 100.219 988.07 100.219 987.042 88.5312 c 128,-1,5
 986.015 76.8438 986.015 76.8438 981.385 56.7891 c 0,6,7
 972.131 16.6992 972.131 16.6992 939.585 1.13086 c 128,-1,8
 907.04 -14.4365 907.04 -14.4365 881.404 -5.39062 c 0,9,10
 845.388 7.31836 845.388 7.31836 837.448 52.8936 c 0,11,12
 800.6 264.398 800.6 264.398 827.783 499.799 c 1,13,14
 798.326 650.102 798.326 650.102 692.967 747.424 c 128,-1,15
 587.608 844.746 587.608 844.746 473.895 856.049 c 128,-1,16
 360.182 867.352 360.182 867.352 296.692 798.938 c 0,17,18
 200.87 695.685 200.87 695.685 242.51 456.668 c 0,19,20
 276.312 262.637 276.312 262.637 355.353 149.542 c 0,21,22
 367.057 132.796 367.057 132.796 386.734 106.65 c 128,-1,23
 406.411 80.5039 406.411 80.5039 412.921 71.1621 c 1,24,-1
 306.263 -3.16211 l 1,25,26
 301.111 4.23145 301.111 4.23145 281.46 30.3428 c 0,27,28
 210.276 124.93 210.276 124.93 184.672 189.009 c 0,29,30
 135.93 310.998 135.93 310.998 114.439 434.356 c 0,31,32
 61.7354 736.873 61.7354 736.873 201.402 887.368 c 0,33,34
 308.662 1002.94 308.662 1002.94 476.304 986.312 c 128,-1,35
 643.946 969.681 643.946 969.681 775.646 848.026 c 0,36,37
 834.019 794.106 834.019 794.106 875.324 728.903 c 1,38,39
 981.865 1024.76 981.865 1024.76 1229.87 986.23 c 0,40,41
 1320.52 972.134 1320.52 972.134 1384.42 921.284 c 128,-1,42
 1448.31 870.435 1448.31 870.435 1465.56 806.442 c 0,43,44
 1494.57 698.826 1494.57 698.826 1460.96 541.101 c 0,45,46
 1423.25 364.084 1423.25 364.084 1422.8 310.589 c 128,-1,47
 1422.36 257.095 1422.36 257.095 1434.22 222.839 c 0,48,49
 1460.08 148.184 1460.08 148.184 1588.37 120.737 c 1,50,51
 1729.26 124.524 1729.26 124.524 1795.52 291.389 c 0,52,53
 1838.03 398.464 1838.03 398.464 1832.15 541.207 c 0,54,55
 1826.47 679.124 1826.47 679.124 1774.08 788.841 c 0,56,57
 1748.84 841.698 1748.84 841.698 1715.44 877.964 c 1,58,-1
 1811.06 966.036 l 1,59,60
 1951.03 814.077 1951.03 814.077 1962.04 546.555 c 0,61,62
 1973.01 280.066 1973.01 280.066 1845.23 117.487 c 0,63,64
 1745.55 -9.3418 1745.55 -9.3418 1582.13 -9.3418 c 0,65,66
 1575.72 -9.3418 1575.72 -9.3418 1569.43 -8.08789 c 0,67,68
 1362.33 33.1875 1362.33 33.1875 1312.91 175.885 c 0,69,70
 1275.44 284.076 1275.44 284.076 1307.4 441.306 c 0,71,72
 1320.31 504.799 1320.31 504.799 1333.26 565.58 c 0,73,74
 1360.89 695.26 1360.89 695.26 1341.46 767.329 c 0,75,76
 1323.47 834.084 1323.47 834.084 1208.48 857.99 c 1,77,78
 1115.96 871.689 1115.96 871.689 1063.13 805.875 c 0,79,80
 985.437 709.107 985.437 709.107 959.181 503.456 c 1,0,1
EndSplineSet
EndChar

StartChar: h1
Encoding: 148 3385 150
Width: 1933
GlyphClass: 2
Flags: MW
AnchorPoint: "chandrakkala" 1933 0 basechar 0
AnchorPoint: "dotreph" 1475.5 1081 basechar 0
LayerCount: 2
Fore
SplineSet
1934 454 m 0,0,1
 1934 115 1934 115 1629 -12 c 1,2,-1
 1573 93 l 1,3,4
 1794 196 1794 196 1794 454 c 0,5,6
 1794 607 1794 607 1704.5 715 c 128,-1,7
 1615 823 1615 823 1471 823 c 256,8,9
 1327 823 1327 823 1231 723.5 c 128,-1,10
 1135 624 1135 624 1135 469 c 0,11,12
 1135 358 1135 358 1184 239 c 128,-1,13
 1233 120 1233 120 1327 84 c 1,14,-1
 1327 0 l 1,15,-1
 619 0 l 1,16,-1
 619 73 l 1,17,18
 740 127 740 127 740 285 c 0,19,20
 740 380 740 380 671 445.5 c 128,-1,21
 602 511 602 511 505 511 c 256,22,23
 408 511 408 511 337.5 449.5 c 128,-1,24
 267 388 267 388 267 292 c 0,25,26
 267 150 267 150 386 86 c 1,27,-1
 330 -15 l 1,28,29
 145 79 145 79 145 292 c 0,30,31
 145 434 145 434 253.5 536 c 128,-1,32
 362 638 362 638 514 638 c 256,33,34
 666 638 666 638 765.5 539 c 128,-1,35
 865 440 865 440 865 304 c 256,36,37
 865 168 865 168 816 112 c 1,38,-1
 1109 112 l 1,39,40
 998 250 998 250 998 464 c 256,41,42
 998 678 998 678 1135.5 810.5 c 128,-1,43
 1273 943 1273 943 1470 943 c 256,44,45
 1667 943 1667 943 1800.5 800.5 c 128,-1,46
 1934 658 1934 658 1934 454 c 0,0,1
EndSplineSet
EndChar

StartChar: avagraha
Encoding: 150 3389 151
Width: 1195
GlyphClass: 2
Flags: MW
LayerCount: 2
Fore
SplineSet
1250 1093 m 1,0,-1
 1130 1042 l 1,1,2
 1116 1154 1116 1154 1005 1154 c 0,3,4
 886 1154 886 1154 865 1014 c 1,5,-1
 773 467 l 1,6,-1
 933 476 l 1,7,-1
 933 346 l 1,8,-1
 752 336 l 1,9,-1
 641 -384 l 5,10,11
 604 -635 604 -635 377 -635 c 4,12,13
 179 -635 179 -635 124 -445 c 5,14,-1
 245 -394 l 5,15,16
 257 -506 257 -506 366 -506 c 4,17,18
 488 -506 488 -506 511 -367 c 5,19,-1
 619 329 l 1,20,-1
 489 322 l 1,21,-1
 489 451 l 1,22,-1
 641 458 l 1,23,-1
 734 1032 l 1,24,25
 773 1282 773 1282 997 1282 c 0,26,27
 1196 1282 1196 1282 1250 1093 c 1,0,-1
EndSplineSet
Validated: 1
EndChar

StartChar: a2
Encoding: 151 3390 152
Width: 672
GlyphClass: 2
Flags: MW
LayerCount: 2
Fore
SplineSet
146 679.708 m 128,-1,1
 119.444 679.708 119.444 679.708 100.222 698.927 c 128,-1,2
 81 718.146 81 718.146 81 744.708 c 0,3,4
 81 823.043 81 823.043 120.506 885.271 c 128,-1,5
 160.011 947.499 160.011 947.499 223.555 975.053 c 128,-1,6
 287.099 1002.61 287.099 1002.61 348.167 987.448 c 0,7,8
 674.535 906.439 674.535 906.439 545.817 238.632 c 0,9,10
 516.043 85.499 516.043 85.499 409.797 39.9961 c 0,11,12
 308.709 -3.29688 308.709 -3.29688 209.506 58.2217 c 0,13,14
 113.365 117.841 113.365 117.841 83.0801 234.664 c 0,15,16
 76.416 260.37 76.416 260.37 90.1963 283.8 c 128,-1,17
 103.977 307.229 103.977 307.229 129.688 313.896 c 128,-1,18
 155.399 320.562 155.399 320.562 178.828 306.777 c 128,-1,19
 202.256 292.993 202.256 292.993 209.853 263.689 c 0,20,21
 226.137 200.876 226.137 200.876 278.019 168.702 c 0,22,23
 346.716 126.102 346.716 126.102 390.178 189.515 c 0,24,25
 429.882 247.442 429.882 247.442 446.415 466.69 c 0,26,27
 473.243 822.458 473.243 822.458 322.34 859.915 c 0,28,29
 267.099 873.626 267.099 873.626 229.969 815.142 c 0,30,31
 211 785.264 211 785.264 211 751.705 c 128,-1,32
 211 718.146 211 718.146 191.778 698.927 c 128,-1,0
 172.556 679.708 172.556 679.708 146 679.708 c 128,-1,1
EndSplineSet
EndChar

StartChar: i1
Encoding: 152 3391 153
Width: 323
GlyphClass: 2
Flags: MW
LayerCount: 2
Fore
SplineSet
-306.201 1073.45 m 132,-1,1
 -329.258 1086.62 -329.258 1086.62 -336.411 1112.85 c 132,-1,2
 -343.564 1139.07 -343.564 1139.07 -325.762 1170.23 c 4,3,4
 -282.619 1245.74 -282.619 1245.74 -215.466 1312.05 c 4,5,6
 -77.2051 1448.59 -77.2051 1448.59 16.2549 1435.51 c 132,-1,7
 109.714 1422.44 109.714 1422.44 178.237 1356.97 c 132,-1,8
 246.761 1291.51 246.761 1291.51 282.904 1205.23 c 132,-1,9
 319.048 1118.95 319.048 1118.95 319.048 1042.23 c 4,10,11
 319.048 931.417 319.048 931.417 269.209 669.309 c 4,12,13
 175.048 174.097 175.048 174.097 175.048 -166.115 c 4,14,15
 175.048 -193.115 175.048 -193.115 156.048 -212.115 c 132,-1,16
 137.048 -231.115 137.048 -231.115 110.048 -231.115 c 132,-1,17
 83.0479 -231.115 83.0479 -231.115 64.0479 -212.115 c 132,-1,18
 45.0479 -193.115 45.0479 -193.115 45.0479 -166.115 c 4,19,20
 45.0479 186.329 45.0479 186.329 118.192 571.026 c 4,21,22
 189.048 943.689 189.048 943.689 189.048 1018.25 c 4,23,24
 189.048 1166.85 189.048 1166.85 91.1475 1260.39 c 4,25,26
 23.3525 1325.15 23.3525 1325.15 -33.3301 1293.6 c 4,27,28
 -97.1543 1258.06 -97.1543 1258.06 -170.514 1165.51 c 4,29,30
 -199.965 1128.35 -199.965 1128.35 -215.33 1101.46 c 132,-1,31
 -230.694 1074.57 -230.694 1074.57 -256.921 1067.42 c 132,-1,0
 -283.147 1060.27 -283.147 1060.27 -306.201 1073.45 c 132,-1,1
EndSplineSet
EndChar

StartChar: i2
Encoding: 153 3392 154
Width: 324
GlyphClass: 2
Flags: MW
LayerCount: 2
Fore
SplineSet
-28.6875 1295.72 m 5,0,1
 34.2144 1273.41 34.2144 1273.41 62.2776 1225.64 c 132,-1,2
 90.3408 1177.87 90.3408 1177.87 89.9023 1137.72 c 132,-1,3
 89.4639 1097.57 89.4639 1097.57 73.2036 1067.86 c 132,-1,4
 56.9434 1038.14 56.9434 1038.14 7.03809 1015.96 c 132,-1,5
 -42.8672 993.785 -42.8672 993.785 -106.172 993.785 c 132,-1,6
 -169.478 993.785 -169.478 993.785 -235.318 1018.56 c 132,-1,7
 -301.159 1043.34 -301.159 1043.34 -323.636 1103.27 c 4,8,9
 -368.47 1226.57 -368.47 1226.57 -215.54 1343.85 c 4,10,11
 -175.846 1374.29 -175.846 1374.29 -105.234 1407.05 c 132,-1,12
 -34.623 1439.82 -34.623 1439.82 43.1919 1429.08 c 132,-1,13
 121.007 1418.34 121.007 1418.34 189.53 1352.88 c 132,-1,14
 258.053 1287.41 258.053 1287.41 294.197 1201.13 c 132,-1,15
 330.341 1114.85 330.341 1114.85 330.341 1038.13 c 4,16,17
 330.341 927.31 330.341 927.31 280.499 665.186 c 4,18,19
 186.341 170.005 186.341 170.005 186.341 -170.215 c 4,20,21
 186.341 -196.777 186.341 -196.777 167.118 -215.996 c 132,-1,22
 147.896 -235.215 147.896 -235.215 121.341 -235.215 c 132,-1,23
 94.7842 -235.215 94.7842 -235.215 75.5625 -215.996 c 132,-1,24
 56.3408 -196.777 56.3408 -196.777 56.3408 -170.215 c 4,25,26
 56.3408 182.245 56.3408 182.245 129.484 566.928 c 4,27,28
 200.341 939.577 200.341 939.577 200.341 1014.15 c 4,29,30
 200.341 1162.76 200.341 1162.76 102.439 1256.29 c 4,31,32
 61.6787 1295.23 61.6787 1295.23 30.4648 1299.52 c 132,-1,33
 -0.749023 1303.8 -0.749023 1303.8 -28.6875 1295.72 c 5,0,1
-201.277 1166.77 m 5,34,35
 -204.51 1157.01 -204.51 1157.01 -201.861 1148.82 c 5,36,37
 -197.368 1143.18 -197.368 1143.18 -171.598 1133.48 c 132,-1,38
 -145.828 1123.79 -145.828 1123.79 -108.141 1123.79 c 4,39,40
 -68.4892 1123.79 -68.4892 1123.79 -40.3525 1137.21 c 5,41,42
 -43.3348 1159.45 -43.3348 1159.45 -68.9975 1172.28 c 132,-1,43
 -94.6602 1185.12 -94.6602 1185.12 -132.289 1166.3 c 132,-1,44
 -169.917 1147.48 -169.917 1147.48 -201.277 1166.77 c 5,34,35
EndSplineSet
EndChar

StartChar: u1
Encoding: 154 3393 155
Width: 639
GlyphClass: 2
Flags: MW
LayerCount: 2
Fore
SplineSet
445 -3 m 1,0,1
 532 -20 532 -20 580 -89.5 c 128,-1,2
 628 -159 628 -159 628 -261 c 256,3,4
 628 -363 628 -363 557.5 -433 c 128,-1,5
 487 -503 487 -503 378 -503 c 256,6,7
 269 -503 269 -503 195.5 -435.5 c 128,-1,8
 122 -368 122 -368 122 -256 c 256,9,10
 122 -144 122 -144 186 -71.5 c 128,-1,11
 250 1 250 1 326 1 c 1,12,13
 397 229 397 229 397 443 c 0,14,15
 397 824 397 824 152 825 c 1,16,-1
 169 943 l 1,17,18
 339 919 339 919 427 807 c 128,-1,19
 515 695 515 695 515 500 c 0,20,21
 515 193 515 193 445 -3 c 1,0,1
513 -248 m 0,22,23
 513 -189 513 -189 473.5 -143 c 128,-1,24
 434 -97 434 -97 370 -97 c 0,25,26
 307 -97 307 -97 266 -142.5 c 128,-1,27
 225 -188 225 -188 225 -248 c 0,28,29
 225 -397 225 -397 371 -397 c 0,30,31
 513 -397 513 -397 513 -248 c 0,22,23
EndSplineSet
EndChar

StartChar: u2
Encoding: 155 3394 156
Width: 639
GlyphClass: 2
Flags: MW
LayerCount: 2
Fore
SplineSet
445 -3 m 1,0,1
 530 -20 530 -20 579 -89.5 c 128,-1,2
 628 -159 628 -159 628 -261 c 256,3,4
 628 -363 628 -363 555.5 -433 c 128,-1,5
 483 -503 483 -503 376 -503 c 256,6,7
 269 -503 269 -503 195.5 -435.5 c 128,-1,8
 122 -368 122 -368 122 -256 c 256,9,10
 122 -144 122 -144 187.5 -71.5 c 128,-1,11
 253 1 253 1 326 1 c 1,12,13
 389 188 389 188 389 463 c 0,14,15
 389 817 389 817 147 824 c 1,16,-1
 161 943 l 1,17,18
 337 928 337 928 424 815 c 128,-1,19
 511 702 511 702 511 506 c 0,20,21
 511 191 511 191 445 -3 c 1,0,1
501 -186 m 1,22,23
 459 -95 459 -95 364 -95 c 256,24,25
 269 -95 269 -95 236 -193 c 1,26,27
 276 -235 276 -235 366 -235 c 0,28,29
 454 -235 454 -235 501 -186 c 1,22,23
515 -240 m 1,30,31
 445 -293 445 -293 372 -293 c 0,32,33
 298 -293 298 -293 223 -255 c 1,34,35
 223 -309 223 -309 262.5 -353 c 128,-1,36
 302 -397 302 -397 370 -397 c 256,37,38
 438 -397 438 -397 476.5 -352.5 c 128,-1,39
 515 -308 515 -308 515 -240 c 1,30,31
EndSplineSet
Validated: 1
EndChar

StartChar: r1
Encoding: 156 3395 157
Width: 777
GlyphClass: 2
Flags: MW
LayerCount: 2
Fore
SplineSet
769 -180 m 4,0,1
 769 -354 769 -354 646 -437.5 c 132,-1,2
 523 -521 523 -521 379 -521 c 260,3,4
 235 -521 235 -521 158 -441.5 c 132,-1,5
 81 -362 81 -362 81 -249 c 260,6,7
 81 -136 81 -136 150.5 -67 c 132,-1,8
 220 2 220 2 326 2 c 260,9,10
 432 2 432 2 496.5 -73 c 132,-1,11
 561 -148 561 -148 561 -255 c 260,12,13
 561 -362 561 -362 481 -413 c 5,14,15
 659 -362 659 -362 659 -183 c 4,16,17
 659 -71 659 -71 465.5 132 c 132,-1,18
 272 335 272 335 272 757 c 4,19,20
 272 894 272 894 280 920 c 5,21,-1
 408 920 l 5,22,23
 406 800 406 800 406 751 c 4,24,25
 406 532 406 532 442.5 414.5 c 132,-1,26
 479 297 479 297 587 170.5 c 132,-1,27
 695 44 695 44 732 -25 c 132,-1,28
 769 -94 769 -94 769 -180 c 4,0,1
445 -251 m 4,29,30
 445 -185 445 -185 410.5 -139.5 c 132,-1,31
 376 -94 376 -94 317 -94 c 4,32,33
 192 -94 192 -94 192 -251 c 4,34,35
 192 -315 192 -315 230 -361.5 c 132,-1,36
 268 -408 268 -408 319 -408 c 4,37,38
 445 -408 445 -408 445 -251 c 4,29,30
EndSplineSet
Validated: 1
EndChar

StartChar: e1
Encoding: 158 3398 158
Width: 1042
GlyphClass: 2
Flags: MW
LayerCount: 2
Fore
SplineSet
199.717 713.871 m 1,0,1
 249.391 713.177 249.391 713.177 298.342 677.198 c 0,2,3
 381.508 616.071 381.508 616.071 431.882 495.467 c 128,-1,4
 482.255 374.863 482.255 374.863 482.255 305.635 c 0,5,6
 482.255 167.105 482.255 167.105 387.391 54.3179 c 0,7,8
 337.538 -4.95533 337.538 -4.95533 263.89 -21.7624 c 128,-1,9
 190.243 -38.5695 190.243 -38.5695 116.584 33.2253 c 1,10,11
 22.0285 129.915 22.0285 129.915 16.3555 370.196 c 0,12,13
 10.5449 616.303 10.5449 616.303 88.1591 782.733 c 0,14,15
 135.573 884.406 135.573 884.406 218.324 945.195 c 128,-1,16
 301.074 1005.98 301.074 1005.98 401.293 1017.29 c 128,-1,17
 501.513 1028.59 501.513 1028.59 601.26 981.203 c 0,18,19
 746.835 911.083 746.835 911.083 847.575 734.797 c 128,-1,20
 948.315 558.512 948.315 558.512 943.441 363.348 c 0,21,22
 936.298 77.2958 936.298 77.2958 702.588 -47.3529 c 0,23,24
 679.16 -59.851 679.16 -59.851 653.153 -51.938 c 128,-1,25
 627.146 -44.025 627.146 -44.025 614.647 -20.5882 c 128,-1,26
 602.148 2.85247 602.148 2.85247 610.064 28.8541 c 128,-1,27
 617.98 54.8556 617.98 54.8556 643.391 68.4087 c 0,28,29
 808.231 156.327 808.231 156.327 813.481 366.591 c 0,30,31
 817.449 525.501 817.449 525.501 735.732 668.499 c 128,-1,32
 654.014 811.497 654.014 811.497 544.849 864.08 c 0,33,34
 414.619 928.09 414.619 928.09 285.907 833.535 c 0,35,36
 235.637 796.605 235.637 796.605 199.717 713.871 c 1,0,1
153.719 533.114 m 1,37,38
 131.705 342.912 131.705 342.912 168.318 211.377 c 0,39,40
 185.649 149.112 185.649 149.112 208.17 126.558 c 128,-1,41
 230.691 104.003 230.691 104.003 248.401 108.045 c 128,-1,42
 266.111 112.087 266.111 112.087 291.534 142.313 c 128,-1,43
 316.957 172.54 316.957 172.54 334.606 216.923 c 128,-1,44
 352.255 261.306 352.255 261.306 352.255 305.118 c 128,-1,45
 352.255 348.93 352.255 348.93 313.893 440.779 c 128,-1,46
 275.531 532.628 275.531 532.628 221.351 572.449 c 0,47,48
 206.155 583.617 206.155 583.617 198.839 583.871 c 1,49,50
 189.851 580.178 189.851 580.178 179.129 561.15 c 128,-1,51
 168.407 542.122 168.407 542.122 153.719 533.114 c 1,37,38
EndSplineSet
EndChar

StartChar: e2
Encoding: 159 3399 159
Width: 871
GlyphClass: 2
Flags: MW
LayerCount: 2
Fore
SplineSet
901 223 m 0,0,1
 901 103 901 103 809 40.5 c 128,-1,2
 717 -22 717 -22 596 -22 c 0,3,4
 376 -22 376 -22 259 112 c 128,-1,5
 142 246 142 246 142 458 c 256,6,7
 142 670 142 670 259 806.5 c 128,-1,8
 376 943 376 943 592 943 c 0,9,10
 718 943 718 943 809.5 878 c 128,-1,11
 901 813 901 813 901 693 c 0,12,13
 901 607 901 607 844 555.5 c 128,-1,14
 787 504 787 504 706 504 c 0,15,16
 587 504 587 504 543.5 567.5 c 128,-1,17
 500 631 500 631 500 695 c 0,18,19
 500 758 500 758 550 821 c 1,20,21
 420 819 420 819 352 707 c 128,-1,22
 284 595 284 595 284 454 c 256,23,24
 284 313 284 313 355 207 c 128,-1,25
 426 101 426 101 554 101 c 1,26,27
 498 162 498 162 498 237 c 256,28,29
 498 312 498 312 557 362.5 c 128,-1,30
 616 413 616 413 702 413 c 0,31,32
 787 413 787 413 844 361 c 128,-1,33
 901 309 901 309 901 223 c 0,0,1
706 624 m 0,34,35
 775 624 775 624 775 698 c 0,36,37
 775 768 775 768 702 769 c 1,38,39
 628 768 628 768 628 696 c 256,40,41
 628 624 628 624 706 624 c 0,34,35
775 223 m 1,42,43
 774 300 774 300 702 300 c 256,44,45
 630 300 630 300 630 223 c 0,46,47
 630 147 630 147 702 147 c 256,48,49
 774 147 774 147 775 223 c 1,42,43
EndSplineSet
Validated: 1
EndChar

StartChar: o1
Encoding: 161 3402 161
Width: 2758
GlyphClass: 2
Flags: MW
LayerCount: 2
Fore
SplineSet
2760 199 m 2,0,1
 2760 53 2760 53 2654 -53.5 c 128,-1,2
 2548 -160 2548 -160 2398 -160 c 2,3,-1
 546 -160 l 2,4,5
 396 -160 396 -160 290 -53.5 c 128,-1,6
 184 53 184 53 184 199 c 2,7,-1
 184 1024 l 2,8,9
 184 1170 184 1170 290 1276 c 128,-1,10
 396 1382 396 1382 546 1382 c 2,11,-1
 2398 1382 l 2,12,13
 2548 1382 2548 1382 2654 1276 c 128,-1,14
 2760 1170 2760 1170 2760 1024 c 2,15,-1
 2760 199 l 2,0,1
2654 311 m 2,16,-1
 2654 917 l 2,17,18
 2654 1067 2654 1067 2548.5 1173 c 128,-1,19
 2443 1279 2443 1279 2295 1279 c 2,20,-1
 649 1279 l 2,21,22
 501 1279 501 1279 395.5 1173 c 128,-1,23
 290 1067 290 1067 290 917 c 2,24,-1
 290 311 l 2,25,26
 290 163 290 163 395.5 57.5 c 128,-1,27
 501 -48 501 -48 649 -48 c 2,28,-1
 2295 -48 l 2,29,30
 2443 -48 2443 -48 2548.5 57.5 c 128,-1,31
 2654 163 2654 163 2654 311 c 2,16,-1
2497 600 m 0,32,33
 2497 133 2497 133 2174 133 c 0,34,35
 1870 133 1870 133 1870 440 c 1,36,37
 1907 440 1907 440 1944 440 c 1,38,39
 1964 340 1964 340 1996 298.5 c 128,-1,40
 2028 257 2028 257 2119 257 c 0,41,42
 2246 257 2246 257 2293 374 c 0,43,44
 2323 450 2323 450 2323 602 c 0,45,46
 2323 944 2323 944 2143 944 c 0,47,48
 2030 944 2030 944 1988 874 c 1,49,50
 1958 829 1958 829 1944 703 c 1,51,-1
 1870 703 l 1,52,-1
 1870 708 l 2,53,54
 1870 876 1870 876 1931.5 958 c 128,-1,55
 1993 1040 1993 1040 2152 1040 c 0,56,57
 2497 1040 2497 1040 2497 600 c 0,32,33
1779 506 m 1,58,-1
 1568 506 l 1,59,-1
 1568 607 l 1,60,-1
 1779 607 l 1,61,-1
 1779 506 l 1,58,-1
1484 583 m 0,62,63
 1484 332 1484 332 1200 121 c 1,64,-1
 1086 166 l 1,65,66
 1296 320 1296 320 1296 551 c 0,67,68
 1296 708 1296 708 1182.5 820 c 128,-1,69
 1069 932 1069 932 905.5 932 c 128,-1,70
 742 932 742 932 631 819 c 128,-1,71
 520 706 520 706 499 536 c 1,72,-1
 506 529 l 1,73,74
 609 672 609 672 747 672 c 0,75,76
 858 672 858 672 937.5 585.5 c 128,-1,77
 1017 499 1017 499 1017 385 c 128,-1,78
 1017 271 1017 271 943.5 202 c 128,-1,79
 870 133 870 133 752 133 c 0,80,81
 600 133 600 133 508 241 c 1,82,83
 428 344 428 344 428 502 c 0,84,85
 428 724 428 724 577.5 882 c 128,-1,86
 727 1040 727 1040 941 1040 c 128,-1,87
 1155 1040 1155 1040 1312 917 c 1,88,89
 1484 785 1484 785 1484 583 c 0,62,63
818 293 m 128,-1,91
 867 340 867 340 867 407.5 c 128,-1,92
 867 475 867 475 822.5 525.5 c 128,-1,93
 778 576 778 576 708 576 c 0,94,95
 637 576 637 576 587.5 531.5 c 128,-1,96
 538 487 538 487 538 418 c 128,-1,97
 538 349 538 349 588.5 297.5 c 128,-1,98
 639 246 639 246 704 246 c 128,-1,90
 769 246 769 246 818 293 c 128,-1,91
EndSplineSet
Validated: 1
EndChar

StartChar: o2
Encoding: 162 3403 162
Width: 2537
GlyphClass: 2
Flags: MW
LayerCount: 2
Fore
SplineSet
2540 199 m 2,0,1
 2540 53 2540 53 2434.5 -53.5 c 128,-1,2
 2329 -160 2329 -160 2182 -160 c 2,3,-1
 545 -160 l 2,4,5
 395 -160 395 -160 289.5 -53.5 c 128,-1,6
 184 53 184 53 184 199 c 2,7,-1
 184 1024 l 2,8,9
 184 1170 184 1170 289.5 1276 c 128,-1,10
 395 1382 395 1382 545 1382 c 2,11,-1
 2182 1382 l 2,12,13
 2329 1382 2329 1382 2434.5 1276 c 128,-1,14
 2540 1170 2540 1170 2540 1024 c 2,15,-1
 2540 199 l 2,0,1
2454 281 m 2,16,-1
 2454 917 l 2,17,18
 2454 1067 2454 1067 2348.5 1173 c 128,-1,19
 2243 1279 2243 1279 2093 1279 c 2,20,-1
 655 1279 l 2,21,22
 508 1279 508 1279 402 1173 c 128,-1,23
 296 1067 296 1067 296 917 c 2,24,-1
 296 281 l 2,25,26
 296 133 296 133 402 27.5 c 128,-1,27
 508 -78 508 -78 655 -78 c 2,28,-1
 2093 -78 l 2,29,30
 2243 -78 2243 -78 2348.5 27.5 c 128,-1,31
 2454 133 2454 133 2454 281 c 2,16,-1
2252 598 m 0,32,33
 2252 131 2252 131 1926 131 c 0,34,35
 1626 131 1626 131 1626 433 c 2,36,-1
 1626 438 l 1,37,-1
 1697 438 l 1,38,39
 1717 337 1717 337 1744 302 c 1,40,41
 1783 257 1783 257 1874 257 c 0,42,43
 2078 257 2078 257 2078 599.5 c 128,-1,44
 2078 942 2078 942 1896 942 c 0,45,46
 1786 942 1786 942 1741 874 c 1,47,48
 1717 829 1717 829 1697 701 c 1,49,-1
 1626 701 l 1,50,-1
 1626 708 l 2,51,52
 1626 874 1626 874 1682 949 c 1,53,54
 1746 1040 1746 1040 1909 1040 c 0,55,56
 2252 1040 2252 1040 2252 598 c 0,32,33
1535 506 m 1,57,-1
 1321 506 l 1,58,-1
 1321 605 l 1,59,-1
 1535 605 l 1,60,-1
 1535 506 l 1,57,-1
1232 374 m 0,61,62
 1232 254 1232 254 1105 187 c 1,63,64
 1004 138 1004 138 866 138 c 0,65,66
 658 138 658 138 546 262 c 128,-1,67
 434 386 434 386 434 595 c 128,-1,68
 434 804 434 804 548 923.5 c 128,-1,69
 662 1043 662 1043 866 1043 c 0,70,71
 1002 1043 1002 1043 1117 986.5 c 128,-1,72
 1232 930 1232 930 1232 809 c 0,73,74
 1232 632 1232 632 1063 632 c 0,75,76
 979 632 979 632 920.5 675.5 c 128,-1,77
 862 719 862 719 862 814.5 c 128,-1,78
 862 910 862 910 930 961 c 1,79,80
 899 977 899 977 857 977 c 0,81,82
 599 977 599 977 599 591 c 128,-1,83
 599 205 599 205 857 205 c 0,84,85
 899 205 899 205 930 222 c 1,86,87
 862 262 862 262 862 374 c 0,88,89
 862 450 862 450 922 494.5 c 128,-1,90
 982 539 982 539 1059 539 c 128,-1,91
 1136 539 1136 539 1184 493.5 c 128,-1,92
 1232 448 1232 448 1232 374 c 0,61,62
1063 698 m 0,93,94
 1162 698 1162 698 1162 811.5 c 128,-1,95
 1162 925 1162 925 1049 947 c 1,96,97
 979 914 979 914 979 806 c 128,-1,98
 979 698 979 698 1063 698 c 0,93,94
1162 379 m 0,99,100
 1162 419 1162 419 1132.5 446 c 128,-1,101
 1103 473 1103 473 1063 473 c 0,102,103
 979 473 979 473 979 372 c 128,-1,104
 979 271 979 271 1049 234 c 1,105,106
 1162 259 1162 259 1162 379 c 0,99,100
EndSplineSet
Validated: 1
EndChar

StartChar: uni0D4C
Encoding: 163 3404 163
Width: 2758
GlyphClass: 2
Flags: MW
LayerCount: 2
Fore
SplineSet
3178 197 m 2,0,1
 3178 51 3178 51 3072 -55.5 c 128,-1,2
 2966 -162 2966 -162 2816 -162 c 2,3,-1
 546 -160 l 2,4,5
 396 -160 396 -160 290 -53.5 c 128,-1,6
 184 53 184 53 184 199 c 2,7,-1
 184 1024 l 2,8,9
 184 1170 184 1170 290 1276 c 128,-1,10
 396 1382 396 1382 546 1382 c 2,11,-1
 2816 1380 l 2,12,13
 2966 1380 2966 1380 3072 1274 c 128,-1,14
 3178 1168 3178 1168 3178 1022 c 2,15,-1
 3178 197 l 2,0,1
3072 309 m 2,16,-1
 3072 915 l 2,17,18
 3072 1065 3072 1065 2966.5 1171 c 128,-1,19
 2861 1277 2861 1277 2713 1277 c 2,20,-1
 649 1279 l 2,21,22
 501 1279 501 1279 395.5 1173 c 128,-1,23
 290 1067 290 1067 290 917 c 2,24,-1
 290 311 l 2,25,26
 290 163 290 163 395.5 57.5 c 128,-1,27
 501 -48 501 -48 649 -48 c 2,28,-1
 2713 -50 l 2,29,30
 2861 -50 2861 -50 2966.5 55.5 c 128,-1,31
 3072 161 3072 161 3072 309 c 2,16,-1
1779 506 m 1,32,-1
 1568 506 l 1,33,-1
 1568 607 l 1,34,-1
 1779 607 l 1,35,-1
 1779 506 l 1,32,-1
2850.5 1038.5 m 128,-1,37
 2952 915 2952 915 2952 710 c 256,38,39
 2952 505 2952 505 2846.5 351.5 c 128,-1,40
 2741 198 2741 198 2495 198 c 0,41,42
 2324 198 2324 198 2232.5 287 c 128,-1,43
 2141 376 2141 376 2141 480 c 1,44,-1
 2274 480 l 1,45,46
 2308 320 2308 320 2488 320 c 0,47,48
 2807 320 2807 320 2807 693 c 0,49,50
 2807 1042 2807 1042 2574 1042 c 0,51,52
 2507 1042 2507 1042 2458 989 c 128,-1,53
 2409 936 2409 936 2409 863 c 2,54,-1
 2409 698 l 1,55,-1
 2261 695 l 1,56,-1
 2261 845 l 2,57,58
 2261 1042 2261 1042 2109 1042 c 0,59,60
 2019 1042 2019 1042 1979.5 979.5 c 128,-1,61
 1940 917 1940 917 1940 782 c 0,62,63
 1940 760 1940 760 1944 676 c 1,64,-1
 1820 676 l 1,65,66
 1808 772 1808 772 1808 798 c 0,67,68
 1808 1162 1808 1162 2130 1162 c 0,69,70
 2272 1162 2272 1162 2338 1049 c 1,71,72
 2384 1113 2384 1113 2435 1137.5 c 128,-1,73
 2486 1162 2486 1162 2589 1162 c 0,74,36
 2749 1162 2749 1162 2850.5 1038.5 c 128,-1,37
1463 657 m 0,75,76
 1463 352 1463 352 1180 210 c 1,77,-1
 1109 309 l 1,78,79
 1323 417 1323 417 1323 657 c 0,80,81
 1323 825 1323 825 1217 938 c 128,-1,82
 1111 1051 1111 1051 939 1051 c 256,83,84
 767 1051 767 1051 655.5 941.5 c 128,-1,85
 544 832 544 832 533 668 c 1,86,87
 552 727 552 727 622.5 761 c 128,-1,88
 693 795 693 795 765 795 c 0,89,90
 892 795 892 795 978.5 708.5 c 128,-1,91
 1065 622 1065 622 1065 495 c 256,92,93
 1065 368 1065 368 976 287.5 c 128,-1,94
 887 207 887 207 748 207 c 0,95,96
 571 207 571 207 488.5 326 c 128,-1,97
 406 445 406 445 406 624 c 0,98,99
 406 856 406 856 550.5 1013.5 c 128,-1,100
 695 1171 695 1171 935 1171 c 256,101,102
 1175 1171 1175 1171 1319 1025 c 128,-1,103
 1463 879 1463 879 1463 657 c 0,75,76
863 376.5 m 128,-1,105
 910 426 910 426 910 496 c 256,106,107
 910 566 910 566 863 622 c 128,-1,108
 816 678 816 678 743 678 c 0,109,110
 669 678 669 678 618.5 623 c 128,-1,111
 568 568 568 568 568 498 c 256,112,113
 568 428 568 428 618.5 377.5 c 128,-1,114
 669 327 669 327 743 327 c 0,115,104
 816 327 816 327 863 376.5 c 128,-1,105
EndSplineSet
EndChar

StartChar: xx
Encoding: 164 3405 164
Width: 318
GlyphClass: 2
Flags: MW
AnchorPoint: "chandrakkala" 47 0 basechar 0
AnchorPoint: "dotreph" -600 1020 basechar 0
LayerCount: 2
Fore
SplineSet
-211.506 1437.76 m 128,-1,1
 -185.491 1443.09 -185.491 1443.09 -162.8 1428.13 c 128,-1,2
 -140.107 1413.17 -140.107 1413.17 -134.771 1387.14 c 0,3,4
 -95.5483 1195.94 -95.5483 1195.94 -20.8887 1146.17 c 0,5,6
 -1.94616 1133.54 -1.94616 1133.54 19.9058 1144.06 c 0,7,8
 85.8279 1175.8 85.8279 1175.8 111.619 1291.25 c 0,9,10
 120.556 1331.26 120.556 1331.26 120.556 1365.95 c 128,-1,11
 120.556 1400.64 120.556 1400.64 139.774 1419.86 c 128,-1,12
 158.994 1439.08 158.994 1439.08 185.556 1439.08 c 128,-1,13
 212.117 1439.08 212.117 1439.08 231.336 1419.86 c 128,-1,14
 250.556 1400.64 250.556 1400.64 250.556 1358.77 c 0,15,16
 250.556 1201.15 250.556 1201.15 155.844 1088.3 c 0,17,18
 93.8553 1014.44 93.8553 1014.44 3.47168 1009.67 c 0,19,20
 -85.3885 1004.99 -85.3885 1004.99 -162.794 1104.73 c 0,21,22
 -226.341 1186.61 -226.341 1186.61 -262.119 1361.02 c 0,23,24
 -267.456 1387.04 -267.456 1387.04 -252.488 1409.73 c 128,-1,0
 -237.52 1432.42 -237.52 1432.42 -211.506 1437.76 c 128,-1,1
EndSplineSet
EndChar

StartChar: dotreph
Encoding: 165 3406 165
Width: 0
GlyphClass: 4
Flags: MW
AnchorPoint: "dotreph" -591.5 1084.5 mark 0
LayerCount: 2
Fore
SplineSet
-673 1231 m 5,0,1
 -628 1275 -628 1275 -596 1275 c 132,-1,2
 -564 1275 -564 1275 -516 1231 c 5,3,-1
 -516 1177 l 5,4,5
 -547 1084 -547 1084 -594 1084 c 4,6,7
 -638 1084 -638 1084 -673 1177 c 5,8,-1
 -673 1231 l 5,0,1
EndSplineSet
EndChar

StartChar: au2
Encoding: 166 3415 166
Width: 1225
GlyphClass: 2
Flags: MW
LayerCount: 2
Fore
SplineSet
638.293 497.116 m 0,0,1
 613.334 445.181 613.334 445.181 565.085 447.364 c 0,2,3
 541.5 448.431 541.5 448.431 524.711 459.29 c 128,-1,4
 507.923 470.148 507.923 470.148 499.981 487.059 c 128,-1,5
 492.04 503.97 492.04 503.97 488.125 518.576 c 128,-1,6
 484.211 533.183 484.211 533.183 482.601 548.898 c 128,-1,7
 480.989 564.615 480.989 564.615 480.637 565.933 c 0,8,9
 462.143 634.909 462.143 634.909 452.684 665.52 c 0,10,11
 438.619 711.036 438.619 711.036 422.998 746.571 c 128,-1,12
 407.377 782.105 407.377 782.105 394.354 802.248 c 128,-1,13
 381.33 822.39 381.33 822.39 368.499 835.388 c 128,-1,14
 355.669 848.385 355.669 848.385 347.126 852.692 c 128,-1,15
 338.582 857 338.582 857 331.982 857 c 0,16,17
 299.766 857 299.766 857 265.953 825.527 c 0,18,19
 220.55 783.267 220.55 783.267 210.28 727.465 c 0,20,21
 187.241 602.285 187.241 602.285 301.188 459.303 c 0,22,23
 317.742 438.526 317.742 438.526 314.688 411.519 c 128,-1,24
 311.633 384.51 311.633 384.51 290.864 367.96 c 128,-1,25
 270.101 351.409 270.101 351.409 243.088 354.46 c 128,-1,26
 216.076 357.512 216.076 357.512 199.522 378.283 c 0,27,28
 48.6699 567.576 48.6699 567.576 82.4268 750.994 c 0,29,30
 100.484 849.11 100.484 849.11 177.383 920.687 c 0,31,32
 248.627 987 248.627 987 331.982 987 c 0,33,34
 377.954 987 377.954 987 416.482 965.498 c 128,-1,35
 455.011 943.996 455.011 943.996 484.371 903.414 c 128,-1,36
 513.73 862.832 513.73 862.832 535.571 814.883 c 128,-1,37
 557.412 766.935 557.412 766.935 576.89 703.898 c 0,38,39
 580.737 691.446 580.737 691.446 585.978 673.112 c 1,40,41
 654.033 786.529 654.033 786.529 733.034 872.01 c 0,42,43
 807.923 953.047 807.923 953.047 878.665 982.121 c 0,44,45
 908.16 994.243 908.16 994.243 934.911 998.965 c 0,46,47
 1011.63 1012.51 1011.63 1012.51 1063.18 965.705 c 128,-1,48
 1114.73 918.904 1114.73 918.904 1128.67 838.729 c 0,49,50
 1152.73 700.444 1152.73 700.444 1096.37 489.566 c 0,51,52
 1072.2 399.105 1072.2 399.105 1043.45 340.03 c 0,53,54
 948.299 144.532 948.299 144.532 819.167 27.1416 c 0,55,56
 688.668 -90.8672 688.668 -90.8672 515.013 -146.332 c 0,57,58
 489.716 -154.411 489.716 -154.411 465.558 -141.951 c 128,-1,59
 441.399 -129.492 441.399 -129.492 433.317 -104.189 c 128,-1,60
 425.236 -78.8867 425.236 -78.8867 437.699 -54.7305 c 128,-1,61
 450.163 -30.5742 450.163 -30.5742 475.46 -22.4941 c 0,62,63
 622.33 24.415 622.33 24.415 731.862 123.463 c 0,64,65
 842.371 223.925 842.371 223.925 926.554 396.915 c 0,66,67
 949.84 444.769 949.84 444.769 970.78 523.13 c 0,68,69
 1019.75 706.363 1019.75 706.363 1000.6 816.448 c 0,70,71
 995.157 847.716 995.157 847.716 989.254 860.434 c 128,-1,72
 983.352 873.151 983.352 873.151 975.904 873.034 c 128,-1,73
 968.457 872.917 968.457 872.917 957.512 870.944 c 0,74,75
 944.587 868.663 944.587 868.663 928.081 861.879 c 0,76,77
 883.904 843.724 883.904 843.724 828.507 783.777 c 0,78,79
 721.504 667.999 721.504 667.999 638.293 497.116 c 0,0,1
EndSplineSet
EndChar

StartChar: ml_rr
Encoding: 167 3424 167
Width: 1454
GlyphClass: 2
Flags: MW
LayerCount: 2
Fore
SplineSet
948 867 m 0,0,1
 1028 943 1028 943 1159 943 c 256,2,3
 1290 943 1290 943 1374.5 833.5 c 128,-1,4
 1459 724 1459 724 1459 578 c 256,5,6
 1459 432 1459 432 1386 317 c 128,-1,7
 1313 202 1313 202 1192 187 c 1,8,-1
 1192 174 l 1,9,10
 1426 133 1426 133 1426 -73 c 0,11,12
 1426 -246 1426 -246 1235.5 -318.5 c 128,-1,13
 1045 -391 1045 -391 797 -391 c 0,14,15
 553 -391 553 -391 369 -320 c 128,-1,16
 185 -249 185 -249 185 -73 c 0,17,18
 185 133 185 133 413 174 c 1,19,-1
 413 182 l 1,20,21
 277 209 277 209 210 319.5 c 128,-1,22
 143 430 143 430 143 580 c 256,23,24
 143 730 143 730 224 836.5 c 128,-1,25
 305 943 305 943 460 943 c 0,26,27
 575 943 575 943 651 865.5 c 128,-1,28
 727 788 727 788 727 670 c 256,29,30
 727 552 727 552 655 475 c 128,-1,31
 583 398 583 398 472 398 c 0,32,33
 406 398 406 398 347.5 437 c 128,-1,34
 289 476 289 476 268 541 c 1,35,36
 268 234 268 234 800 234 c 256,37,38
 1332 234 1332 234 1333 541 c 1,39,40
 1316 474 1316 474 1255.5 436 c 128,-1,41
 1195 398 1195 398 1126 398 c 0,42,43
 1018 398 1018 398 942.5 478 c 128,-1,44
 867 558 867 558 867 674 c 0,45,46
 868 790 868 790 948 867 c 0,0,1
1288 673 m 256,47,48
 1288 734 1288 734 1249 778.5 c 128,-1,49
 1210 823 1210 823 1142 823 c 256,50,51
 1074 823 1074 823 1033.5 778.5 c 128,-1,52
 993 734 993 734 993 674 c 256,53,54
 993 614 993 614 1035.5 567 c 128,-1,55
 1078 520 1078 520 1144 520 c 256,56,57
 1210 520 1210 520 1249 566 c 128,-1,58
 1288 612 1288 612 1288 673 c 256,47,48
601 673 m 256,59,60
 601 734 601 734 562.5 778.5 c 128,-1,61
 524 823 524 823 456 823 c 256,62,63
 388 823 388 823 346.5 778.5 c 128,-1,64
 305 734 305 734 305 674 c 256,65,66
 305 614 305 614 347 567 c 128,-1,67
 389 520 389 520 455 520 c 256,68,69
 521 520 521 520 561 566 c 128,-1,70
 601 612 601 612 601 673 c 256,59,60
1283 -73 m 0,71,72
 1283 103 1283 103 804 103 c 256,73,74
 325 103 325 103 325 -73 c 0,75,76
 325 -258 325 -258 797 -258 c 0,77,78
 1283 -258 1283 -258 1283 -73 c 0,71,72
1061.5 9 m 132,-1,80
 1119 -24 1119 -24 1119 -72 c 260,81,82
 1119 -120 1119 -120 1073.5 -159.5 c 132,-1,83
 1028 -199 1028 -199 967 -199 c 5,84,-1
 927 -122 l 5,85,86
 957 -122 957 -122 985 -105.5 c 132,-1,87
 1013 -89 1013 -89 1013 -76 c 4,88,89
 1013 -32 1013 -32 913 -32 c 4,90,91
 863 -32 863 -32 863 -52 c 6,92,-1
 863 -194 l 5,93,-1
 755 -194 l 5,94,-1
 755 -52 l 6,95,96
 755 -32 755 -32 697 -32 c 4,97,98
 601 -32 601 -32 601 -76 c 4,99,100
 601 -91 601 -91 626.5 -109 c 132,-1,101
 652 -127 652 -127 686 -133 c 5,102,-1
 643 -202 l 5,103,104
 493 -167 493 -167 493 -79 c 4,105,106
 493 -24 493 -24 551.5 9 c 132,-1,107
 610 42 610 42 686 42 c 260,108,109
 762 42 762 42 809 17 c 5,110,111
 854 42 854 42 929 42 c 260,112,79
 1004 42 1004 42 1061.5 9 c 132,-1,80
EndSplineSet
EndChar

